<svg width="297" height="201" viewBox="0 0 297 201" fill="none" xmlns="http://www.w3.org/2000/svg">
<path d="M92.8291 100.638H79.7171V123.686H47.9541V100.638H0.473145V77.0192L49.9902 4.61719H79.7171V76.6122H92.8291V100.638ZM47.9551 76.6112V62.7662C47.9551 60.1602 48.0492 56.6462 48.2402 52.2192C48.4292 47.7952 48.5781 45.4732 48.6881 45.2562H47.7922C45.9452 49.4372 43.8551 53.3472 41.5211 56.9842L28.3271 76.6112H47.9551Z" fill="#FFD9E4"/>
<path d="M187.22 64.3132C187.22 85.3802 183.69 100.814 176.633 110.614C169.574 120.415 158.769 125.314 144.219 125.314C129.993 125.314 119.269 120.198 112.049 109.962C104.827 99.7292 101.217 84.5112 101.217 64.3132C101.217 43.1382 104.745 27.6112 111.804 17.7282C118.861 7.84724 129.667 2.90625 144.218 2.90625C158.388 2.90625 169.097 8.05124 176.346 18.3402C183.596 28.6292 187.22 43.9542 187.22 64.3132ZM133.224 64.3132C133.224 77.7802 134.065 87.0372 135.749 92.0852C137.432 97.1342 140.255 99.6592 144.219 99.6592C148.236 99.6592 151.072 97.0532 152.729 91.8402C154.385 86.6282 155.212 77.4532 155.212 64.3132C155.212 51.1202 154.369 41.8752 152.688 36.5822C151.004 31.2882 148.18 28.6422 144.219 28.6422C140.255 28.6422 137.431 31.1952 135.749 36.2972C134.065 41.4022 133.224 50.7412 133.224 64.3132Z" fill="#FFD9E4"/>
<path d="M288.289 100.638H275.178V123.686H243.415V100.638H195.935V77.0192L245.452 4.61719H275.179V76.6122H288.29V100.638H288.289ZM243.415 76.6112V62.7662C243.415 60.1602 243.509 56.6462 243.7 52.2192C243.889 47.7952 244.038 45.4732 244.148 45.2562H243.252C241.405 49.4372 239.314 53.3472 236.981 56.9842L223.788 76.6112H243.415Z" fill="#FFD9E4"/>
<path d="M87.5164 124.865H52.4864V101.817H5.00537V76.0593L55.2944 2.5293H87.5164V74.5233H100.628V101.817H87.5164V124.865ZM55.7534 121.598H84.2484V98.5503H97.3604V77.7913H84.2484V5.7973H57.0174L8.27238 77.0693V98.5493H55.7534V121.598ZM55.7534 77.7913H31.4244L46.3294 55.6193C48.5874 52.0993 50.6574 48.2283 52.4614 44.1423L52.8914 43.1683H57.5034L56.4064 45.3473C56.3534 45.7633 56.2364 47.1603 56.0364 51.8343C55.8484 56.1993 55.7524 59.7233 55.7524 62.3113V77.7913H55.7534ZM37.5584 74.5233H52.4854V62.3123C52.4854 59.6783 52.5824 56.1053 52.7724 51.6953C52.7834 51.4413 52.7934 51.1953 52.8044 50.9583C51.6314 53.1993 50.3794 55.3573 49.0604 57.4133L37.5584 74.5233Z" fill="#1E1142"/>
<path d="M150.385 126.493C135.662 126.493 124.39 121.096 116.88 110.449C109.495 99.9844 105.75 84.3084 105.75 63.8594C105.75 42.4364 109.415 26.4424 116.642 16.3244C123.991 6.03537 135.343 0.818359 150.386 0.818359C165.053 0.818359 176.312 6.24437 183.85 16.9444C191.262 27.4664 195.021 43.2514 195.021 63.8594C195.021 85.1764 191.355 101.075 184.125 111.114C176.774 121.318 165.423 126.493 150.385 126.493ZM150.385 4.08537C136.459 4.08537 126 8.84137 119.301 18.2234C112.477 27.7764 109.018 43.1304 109.018 63.8594C109.018 83.6214 112.561 98.6624 119.551 108.566C126.509 118.431 136.596 123.226 150.386 123.226C164.314 123.226 174.773 118.508 181.473 109.205C188.294 99.7334 191.753 84.4774 191.753 63.8604C191.753 43.9394 188.195 28.7874 181.178 18.8274C174.189 8.90736 164.117 4.08537 150.385 4.08537ZM150.385 100.839C147.135 100.839 142.759 99.3314 140.365 92.1484C138.61 86.8844 137.756 77.6304 137.756 63.8594C137.756 49.9824 138.609 40.6504 140.363 35.3314C142.756 28.0774 147.134 26.5544 150.385 26.5544C155.122 26.5544 158.496 29.6094 160.411 35.6334C162.161 41.1414 163.012 50.3744 163.012 63.8604C163.012 77.2954 162.174 86.4624 160.451 91.8834C158.098 99.2854 153.678 100.839 150.385 100.839ZM150.385 29.8214C147.179 29.8214 144.916 31.9584 143.467 36.3544C141.846 41.2694 141.024 50.5224 141.024 63.8594C141.024 77.0874 141.845 86.2574 143.465 91.1144C144.913 95.4594 147.177 97.5714 150.385 97.5714C153.635 97.5714 155.908 95.3864 157.338 90.8914C158.935 85.8664 159.744 76.7714 159.744 63.8584C159.744 50.8964 158.921 41.7324 157.298 36.6214C155.842 32.0464 153.581 29.8214 150.385 29.8214Z" fill="#1E1142"/>
<path d="M282.976 124.865H247.947V101.817H200.466V76.0593L250.754 2.5293H282.977V74.5233H296.089V101.817H282.977V124.865H282.976ZM251.214 121.598H279.708V98.5503H292.82V77.7913H279.708V5.7973H252.478L203.733 77.0693V98.5493H251.214V121.598V121.598ZM251.214 77.7913H226.886L241.79 55.6193C244.049 52.0983 246.118 48.2273 247.923 44.1423L248.353 43.1683H252.964L251.867 45.3473C251.814 45.7633 251.697 47.1593 251.497 51.8343C251.309 56.1883 251.214 59.7123 251.214 62.3113V77.7913ZM233.019 74.5233H247.947V62.3123C247.947 59.6663 248.044 56.0943 248.234 51.6943C248.245 51.4403 248.255 51.1943 248.265 50.9573C247.092 53.1983 245.84 55.3563 244.521 57.4123L233.019 74.5233Z" fill="#1E1142"/>
<path d="M102.894 183V178.612H90.7718V171.398H101.63V167.196H90.7718V160.205H102.894V155.817H86.012V183H102.894ZM112.814 183V172.848H118.652L123.263 183H128.469L123.301 171.844C126.499 170.543 128.209 167.94 128.209 164.296C128.209 158.941 124.602 155.817 118.429 155.817H108.055V183H112.814ZM112.814 160.057H118.429C121.441 160.057 123.226 161.581 123.226 164.296C123.226 167.047 121.441 168.646 118.429 168.646H112.814V160.057ZM137.726 183V172.848H143.564L148.175 183H153.381L148.212 171.844C151.41 170.543 153.121 167.94 153.121 164.296C153.121 158.941 149.514 155.817 143.341 155.817H132.966V183H137.726ZM137.726 160.057H143.341C146.353 160.057 148.138 161.581 148.138 164.296C148.138 167.047 146.353 168.646 143.341 168.646H137.726V160.057ZM182.607 169.39C182.607 161.098 177.178 155.334 169.407 155.334C161.635 155.334 156.243 161.135 156.243 169.39C156.243 177.682 161.598 183.446 169.369 183.446C177.178 183.446 182.607 177.645 182.607 169.39ZM177.587 169.39C177.587 175.117 174.389 178.872 169.407 178.872C164.424 178.872 161.226 175.191 161.226 169.39C161.226 163.589 164.424 159.908 169.407 159.908C174.389 159.908 177.587 163.589 177.587 169.39ZM191.797 183V172.848H197.635L202.246 183H207.452L202.284 171.844C205.481 170.543 207.192 167.94 207.192 164.296C207.192 158.941 203.585 155.817 197.412 155.817H187.037V183H191.797ZM191.797 160.057H197.412C200.424 160.057 202.209 161.581 202.209 164.296C202.209 167.047 200.424 168.646 197.412 168.646H191.797V160.057Z" fill="#2563EA"/>
<path d="M282.761 139H9V199H282.761V139Z" stroke="#2563EA" stroke-width="2.4187" stroke-miterlimit="10" stroke-linecap="round" stroke-linejoin="round"/>
</svg>
