<svg width="32" height="32" viewBox="0 0 32 32" fill="none" xmlns="http://www.w3.org/2000/svg">
<path d="M23.4809 0H8.53333C3.08622 0 0 3.08622 0 8.53333V23.4667C0 28.9138 3.08622 32 8.53333 32H23.4809C28.928 32 32 28.9138 32 23.4667V8.53333C32 3.08622 28.928 0 23.4809 0Z" fill="#FF179C"/>
<path fill-rule="evenodd" clip-rule="evenodd" d="M21.2372 7.13576C20.7194 7.21807 20.1598 7.63054 19.9031 8.1191C19.7402 8.42915 19.6749 8.69761 19.6754 9.05523C19.6759 9.4854 19.7813 9.81871 20.0154 10.1306C20.0739 10.2085 20.0906 10.2546 20.0636 10.2637C19.9306 10.308 19.465 10.6535 19.2469 10.8698C18.8482 11.265 18.6125 11.6494 18.4267 12.2076C18.3059 12.5702 18.2516 13.0189 18.2516 13.6538V14.1224L18.0263 13.9519C17.9025 13.8582 17.7306 13.7402 17.6444 13.6897C17.5583 13.6392 17.4878 13.5905 17.4878 13.5815C17.4878 13.5725 17.5251 13.5154 17.5706 13.4546C17.8558 13.0742 17.971 12.5081 17.8666 12.0005C17.8457 11.8994 17.7665 11.6862 17.6904 11.527C17.3774 10.8714 16.7297 10.4661 15.995 10.4661C15.2606 10.4661 14.6138 10.8708 14.2989 11.527C14.127 11.8851 14.0703 12.1659 14.0945 12.5384C14.1157 12.8644 14.2082 13.1399 14.3843 13.4015C14.4502 13.4994 14.4996 13.584 14.494 13.5895C14.4885 13.595 14.3652 13.6771 14.2199 13.7719C13.467 14.2634 12.9379 15.0279 12.7625 15.8778C12.713 16.1173 12.6977 16.3437 12.6974 16.8414L12.6969 17.4919L12.446 17.298C12.3081 17.1914 12.1323 17.0725 12.0555 17.0338C11.9787 16.9951 11.9115 16.9597 11.9062 16.9552C11.9009 16.9507 11.9505 16.8669 12.0164 16.769C12.2189 16.4681 12.29 16.2364 12.3072 15.8219C12.3188 15.5419 12.3083 15.4038 12.2636 15.2491C12.0102 14.3719 11.2912 13.8128 10.4166 13.8128C9.88838 13.8128 9.45922 13.9924 9.08178 14.3713C8.4481 15.0076 8.32222 16.0318 8.79193 16.7298C8.85845 16.8286 8.91229 16.9196 8.91163 16.932C8.91097 16.9445 8.77704 17.0401 8.61398 17.1445C8.10038 17.4735 7.63379 18.02 7.39519 18.5719C7.19317 19.0391 7.13658 19.3226 7.11669 19.9666C7.09669 20.6132 7.12929 20.8666 7.27101 21.1668C7.39658 21.4329 7.7227 21.767 7.99359 21.907L8.21828 22.0232L8.21838 23.236C8.21852 24.3777 8.22258 24.4572 8.28795 24.5922C8.3325 24.6842 8.40634 24.7632 8.49389 24.8124L8.63043 24.8891L10.4529 24.8795C12.2438 24.8701 12.277 24.8687 12.3733 24.7969C12.4272 24.7567 12.5025 24.6708 12.5407 24.6059C12.6061 24.495 12.6107 24.4153 12.6204 23.2534L12.6307 22.0187L12.8114 21.9301C13.3141 21.6833 13.664 21.1591 13.7253 20.5614C13.7844 19.9841 13.8079 20.5076 13.8079 22.4062C13.8079 24.6805 13.8035 24.6316 14.0209 24.7867L14.1377 24.8699H15.995H17.8523L17.9691 24.7867C18.1864 24.6317 18.1821 24.6796 18.1823 22.4149L18.1824 20.3568L18.4095 20.2394C18.9396 19.9653 19.2931 19.4067 19.2931 18.843C19.2931 18.7304 19.3083 18.6383 19.327 18.6383C19.3488 18.6383 19.3643 19.6868 19.3704 21.5632C19.3796 24.4168 19.3815 24.4909 19.4493 24.6059C19.4875 24.6708 19.5628 24.7567 19.6167 24.7969C19.713 24.8687 19.7462 24.8701 21.5371 24.8795L23.3596 24.8891L23.4961 24.8124C23.5837 24.7632 23.6575 24.6842 23.702 24.5922C23.7698 24.4523 23.7715 24.3779 23.7715 21.562V18.6752L23.9711 18.5792C24.2194 18.4597 24.5655 18.1232 24.6873 17.8829C24.8817 17.4991 24.8824 17.4897 24.8824 15.1292C24.8824 12.7383 24.8746 12.6246 24.6727 12.0667C24.415 11.3544 23.8606 10.7156 23.1279 10.2869C23.0692 10.2525 23.0735 10.2359 23.1917 10.0438C23.5563 9.45138 23.5803 8.79128 23.2603 8.15399C22.8903 7.4171 22.0687 7.00356 21.2372 7.13576ZM21.9426 8.23943C22.1097 8.31966 22.2616 8.47033 22.3501 8.64391C22.5581 9.05172 22.3921 9.58083 21.9889 9.79476C21.875 9.85516 21.7858 9.87138 21.5643 9.87186C21.3121 9.87238 21.2667 9.86183 21.1139 9.7674C20.8687 9.61583 20.7393 9.39194 20.7223 9.08998C20.7061 8.80308 20.7499 8.65981 20.9119 8.47057C21.0325 8.32962 21.1635 8.24234 21.3411 8.18461C21.4774 8.14028 21.7968 8.16937 21.9426 8.23943ZM22.0877 11.0181C22.7049 11.1472 23.3134 11.609 23.5745 12.1464C23.8285 12.6692 23.8201 12.5752 23.8326 15.0284L23.8438 17.2334L23.7616 17.3891C23.6666 17.5692 23.4682 17.6996 23.2877 17.7004C23.1021 17.7013 22.8924 17.8207 22.8058 17.9748L22.73 18.1097V20.9777V23.8458H21.567H20.404L20.4038 20.9557C20.4037 18.1187 20.4024 18.0634 20.3337 17.9507C20.2542 17.8203 20.0287 17.7029 19.8555 17.7018C19.6243 17.7002 19.396 17.5032 19.3265 17.2451C19.3006 17.1486 19.2927 16.4414 19.3016 14.9814C19.3141 12.8945 19.3157 12.8536 19.3929 12.5982C19.5867 11.957 19.9701 11.4832 20.5117 11.2155C20.676 11.1343 20.9104 11.0462 21.0325 11.0197C21.3266 10.9559 21.7872 10.9552 22.0877 11.0181ZM16.3511 11.5816C16.518 11.6478 16.7683 11.9255 16.8216 12.1035C16.9484 12.5265 16.7728 12.9521 16.3955 13.1367C15.8026 13.4268 15.1271 13.0239 15.1271 12.3804C15.1271 12.1632 15.1968 11.9823 15.3455 11.8133C15.616 11.5061 15.9607 11.4266 16.3511 11.5816ZM16.6025 14.3842C17.2121 14.5436 17.7437 14.9731 18.0008 15.5139C18.2378 16.0122 18.2516 16.1292 18.2516 17.642C18.2516 18.9713 18.2513 18.9756 18.1726 19.0924C18.061 19.258 17.9025 19.3538 17.7004 19.3778C17.4782 19.4041 17.3406 19.4758 17.2389 19.6186L17.158 19.7319L17.1483 21.7889L17.1385 23.8458H15.995H14.8515L14.8417 21.7889L14.832 19.7319L14.7511 19.6186C14.6494 19.4758 14.5118 19.4041 14.2896 19.3778C14.0875 19.3538 13.929 19.258 13.8174 19.0924C13.7386 18.9755 13.7384 18.972 13.739 17.6351C13.7397 16.1131 13.7544 15.9853 13.9815 15.5246C14.2833 14.9122 14.8341 14.4964 15.5387 14.349C15.8166 14.2908 16.3075 14.3071 16.6025 14.3842ZM10.6901 14.8951C10.8684 14.9485 11.1281 15.1797 11.2084 15.3563C11.2879 15.5314 11.2936 15.8847 11.2197 16.0618C11.1515 16.2255 10.9833 16.4016 10.8049 16.4963C10.7025 16.5506 10.602 16.5704 10.4223 16.5714C9.98093 16.5738 9.65713 16.321 9.57114 15.9067C9.43276 15.2402 10.0325 14.698 10.6901 14.8951ZM11.0305 17.7209C11.6782 17.9155 12.1922 18.3602 12.4722 18.9682C12.6431 19.3392 12.6781 19.5334 12.6789 20.1138C12.6795 20.5975 12.6739 20.6437 12.5997 20.763C12.4922 20.9359 12.3406 21.0227 12.0712 21.0654C11.8754 21.0966 11.8296 21.119 11.7162 21.2397L11.586 21.3783V22.612V23.8458H10.423H9.26001L9.25994 22.6568C9.25991 21.594 9.25345 21.4549 9.19919 21.3469C9.11844 21.1861 8.95621 21.0833 8.74361 21.0581C8.51805 21.0314 8.38412 20.96 8.26372 20.8023C8.16954 20.679 8.1661 20.6595 8.15509 20.1911C8.14128 19.6036 8.19752 19.3013 8.39634 18.8942C8.70195 18.2684 9.29518 17.8217 10.0262 17.667C10.2396 17.6218 10.801 17.6519 11.0305 17.7209Z" fill="white"/>
</svg>
