<svg width="28" height="28" viewBox="0 0 28 28" fill="none" xmlns="http://www.w3.org/2000/svg">
<path d="M20.5458 0H7.46667C2.70044 0 0 2.70044 0 7.46667V20.5333C0 25.2996 2.70044 28 7.46667 28H20.5458C25.312 28 28 25.2996 28 20.5333V7.46667C28 2.70044 25.312 0 20.5458 0Z" fill="#FF179C"/>
<path fill-rule="evenodd" clip-rule="evenodd" d="M18.7133 6.02199C18.2473 6.09607 17.7436 6.46729 17.5126 6.90699C17.366 7.18604 17.3072 7.42766 17.3076 7.74951C17.3082 8.13666 17.403 8.43664 17.6137 8.71735C17.6663 8.78746 17.6813 8.82898 17.657 8.83711C17.5373 8.87698 17.1183 9.18799 16.922 9.38264C16.5632 9.73827 16.3511 10.0843 16.1838 10.5866C16.0751 10.913 16.0262 11.3169 16.0262 11.8882V12.31L15.8235 12.1566C15.712 12.0722 15.5574 11.966 15.4798 11.9205C15.4023 11.8751 15.3388 11.8313 15.3388 11.8231C15.3388 11.815 15.3724 11.7637 15.4134 11.7089C15.67 11.3666 15.7737 10.8571 15.6797 10.4003C15.661 10.3092 15.5897 10.1174 15.5212 9.97411C15.2395 9.38408 14.6566 9.01933 13.9953 9.01933C13.3344 9.01933 12.7522 9.38349 12.4688 9.97411C12.3141 10.2964 12.2631 10.5491 12.2849 10.8844C12.304 11.1778 12.3872 11.4257 12.5457 11.6612C12.6049 11.7492 12.6494 11.8254 12.6444 11.8303C12.6395 11.8353 12.5285 11.9092 12.3977 11.9945C11.7201 12.4369 11.2439 13.1249 11.086 13.8898C11.0415 14.1054 11.0278 14.3091 11.0275 14.757L11.027 15.3425L10.8012 15.168C10.6771 15.0721 10.5189 14.9651 10.4497 14.9302C10.3806 14.8954 10.3202 14.8635 10.3154 14.8595C10.3106 14.8554 10.3553 14.78 10.4145 14.6919C10.5968 14.4211 10.6608 14.2126 10.6763 13.8395C10.6867 13.5875 10.6772 13.4632 10.637 13.324C10.409 12.5345 9.76192 12.0313 8.97477 12.0313C8.49935 12.0313 8.1131 12.1929 7.77341 12.534C7.2031 13.1067 7.0898 14.0284 7.51254 14.6566C7.57241 14.7456 7.62087 14.8275 7.62028 14.8386C7.61968 14.8498 7.49914 14.9359 7.35238 15.0299C6.89015 15.326 6.47022 15.8178 6.25547 16.3145C6.07366 16.735 6.02273 16.9901 6.00483 17.5697C5.98683 18.1517 6.01617 18.3798 6.14371 18.65C6.25672 18.8894 6.55024 19.1901 6.79404 19.3161L6.99625 19.4207L6.99635 20.5122C6.99647 21.5397 7.00013 21.6113 7.05896 21.7328C7.09905 21.8156 7.16551 21.8866 7.24431 21.931L7.36719 22L9.00739 21.9914C10.6192 21.9829 10.6491 21.9816 10.7358 21.917C10.7843 21.8808 10.8521 21.8035 10.8864 21.7451C10.9453 21.6453 10.9495 21.5736 10.9582 20.5279L10.9675 19.4167L11.13 19.3369C11.5825 19.1147 11.8974 18.643 11.9526 18.105C12.0058 17.5855 12.0269 18.0567 12.0269 19.7654C12.0269 21.8122 12.0229 21.7683 12.2186 21.9078L12.3237 21.9828H13.9953H15.6669L15.772 21.9078C15.9676 21.7683 15.9637 21.8114 15.9638 19.7732L15.9639 17.9209L16.1683 17.8153C16.6454 17.5686 16.9636 17.0658 16.9636 16.5585C16.9636 16.4572 16.9773 16.3743 16.9941 16.3743C17.0137 16.3743 17.0277 17.3179 17.0332 19.0067C17.0414 21.5749 17.0432 21.6417 17.1042 21.7451C17.1385 21.8035 17.2063 21.8808 17.2549 21.917C17.3415 21.9816 17.3714 21.9829 18.9832 21.9914L20.6234 22L20.7463 21.931C20.8251 21.8866 20.8916 21.8156 20.9316 21.7328C20.9926 21.6069 20.9941 21.5399 20.9941 19.0056V16.4075L21.1738 16.321C21.3972 16.2135 21.7087 15.9107 21.8183 15.6944C21.9934 15.349 21.994 15.3405 21.994 13.2161C21.994 11.0643 21.987 10.962 21.8053 10.4599C21.5733 9.81873 21.0744 9.24388 20.4149 8.85798C20.3621 8.82705 20.366 8.81208 20.4723 8.63927C20.8005 8.10604 20.822 7.51196 20.5341 6.93839C20.2011 6.27519 19.4616 5.90301 18.7133 6.02199ZM19.3482 7.01529C19.4986 7.08749 19.6352 7.2231 19.7149 7.37932C19.9021 7.74635 19.7527 8.22256 19.3898 8.41509C19.2873 8.46945 19.207 8.48404 19.0077 8.48448C18.7807 8.48495 18.7398 8.47545 18.6023 8.39046C18.3817 8.25405 18.2652 8.05255 18.2498 7.78079C18.2352 7.52258 18.2747 7.39363 18.4205 7.22332C18.5291 7.09646 18.647 7.01791 18.8068 6.96595C18.9295 6.92605 19.2169 6.95224 19.3482 7.01529ZM19.4788 9.51606C20.0342 9.63229 20.5818 10.0479 20.8168 10.5315C21.0455 11.0021 21.0379 10.9175 21.0491 13.1253L21.0592 15.1098L20.9853 15.25C20.8997 15.4121 20.7211 15.5294 20.5588 15.5302C20.3917 15.531 20.203 15.6384 20.125 15.7771L20.0568 15.8985V18.4798V21.061H19.0101H17.9634L17.9633 18.4599C17.9632 15.9066 17.962 15.8569 17.9002 15.7554C17.8286 15.6381 17.6256 15.5324 17.4697 15.5314C17.2617 15.53 17.0562 15.3526 16.9937 15.1204C16.9703 15.0335 16.9633 14.397 16.9712 13.0831C16.9825 11.2049 16.9839 11.168 17.0534 10.9382C17.2278 10.3611 17.5729 9.93464 18.0604 9.69375C18.2082 9.62066 18.4191 9.5414 18.529 9.51753C18.7937 9.46013 19.2083 9.45947 19.4788 9.51606ZM14.3158 10.0232C14.466 10.0829 14.6913 10.3328 14.7393 10.4929C14.8533 10.8736 14.6953 11.2567 14.3557 11.4229C13.8221 11.6839 13.2142 11.3213 13.2142 10.7421C13.2142 10.5467 13.2769 10.3839 13.4107 10.2318C13.6542 9.95527 13.9645 9.88375 14.3158 10.0232ZM14.5421 12.5456C15.0907 12.6891 15.5692 13.0756 15.8006 13.5623C16.0138 14.0108 16.0262 14.1161 16.0262 15.4776C16.0262 16.674 16.026 16.6778 15.9552 16.7829C15.8547 16.932 15.712 17.0182 15.5302 17.0398C15.3302 17.0635 15.2064 17.1281 15.1148 17.2565L15.042 17.3585L15.0333 19.2098L15.0245 21.061H13.9953H12.9661L12.9574 19.2098L12.9486 17.3585L12.8758 17.2565C12.7842 17.1281 12.6604 17.0635 12.4604 17.0398C12.2786 17.0182 12.1359 16.932 12.0354 16.7829C11.9645 16.6778 11.9644 16.6746 11.9649 15.4714C11.9655 14.1016 11.9788 13.9866 12.1831 13.572C12.4548 13.0208 12.9505 12.6465 13.5846 12.5139C13.8348 12.4615 14.2765 12.4762 14.5421 12.5456ZM9.22088 13.0054C9.38132 13.0534 9.6151 13.2615 9.68734 13.4205C9.75892 13.5781 9.76404 13.896 9.69755 14.0554C9.63613 14.2027 9.48478 14.3612 9.32421 14.4465C9.23204 14.4954 9.14165 14.5131 8.97986 14.514C8.58265 14.5163 8.29123 14.2887 8.21383 13.9159C8.08929 13.316 8.62901 12.828 9.22088 13.0054ZM9.52724 15.5486C10.1101 15.7237 10.5728 16.124 10.8248 16.6711C10.9786 17.0051 11.0101 17.1799 11.0108 17.7022C11.0114 18.1376 11.0063 18.1791 10.9396 18.2865C10.8428 18.4421 10.7063 18.5202 10.4639 18.5587C10.2876 18.5867 10.2464 18.6069 10.1444 18.7156L10.0272 18.8402V19.9506V21.061H8.98052H7.93382L7.93375 19.9909C7.93372 19.0344 7.92791 18.9092 7.87908 18.812C7.8064 18.6673 7.66039 18.5748 7.46905 18.5521C7.26605 18.5281 7.14551 18.4638 7.03715 18.3219C6.95239 18.2109 6.94929 18.1934 6.93939 17.7718C6.92695 17.2431 6.97757 16.971 7.15651 16.6046C7.43156 16.0413 7.96547 15.6393 8.62336 15.5001C8.81542 15.4594 9.32071 15.4866 9.52724 15.5486Z" fill="white"/>
</svg>
