<svg width="20" height="20" viewBox="0 0 20 20" fill="none" xmlns="http://www.w3.org/2000/svg">
<path fill-rule="evenodd" clip-rule="evenodd" d="M10.011 2.5C10.861 2.5 11.6219 2.94083 12.0435 3.67917L18.0319 14.1492C18.451 14.8817 18.4485 15.7558 18.0244 16.4867C17.6002 17.2183 16.8427 17.655 15.9985 17.655H4.01269C3.16769 17.655 2.41019 17.2183 1.98603 16.4867C1.56186 15.7558 1.55936 14.8817 1.97853 14.1492L7.97853 3.6775C8.40019 2.94 9.15936 2.5 10.0102 2.5H10.011ZM10.0102 3.75C9.61353 3.75 9.26019 3.955 9.06186 4.29917L3.06353 14.77C2.86853 15.1117 2.87019 15.5192 3.06769 15.86C3.26519 16.2008 3.61853 16.405 4.01269 16.405H15.9985C16.3919 16.405 16.7452 16.2008 16.9427 15.86C17.141 15.5192 17.1427 15.1117 16.946 14.77L10.9585 4.29917C10.761 3.955 10.4077 3.75 10.0102 3.75ZM10.0045 12.9158C10.4654 12.9158 10.8379 13.2883 10.8379 13.7492C10.8379 14.21 10.4654 14.5825 10.0045 14.5825C9.54369 14.5825 9.16703 14.21 9.16703 13.7492C9.16703 13.2883 9.53619 12.9158 9.99619 12.9158H10.0045ZM10.0029 7.97C10.3479 7.97 10.6279 8.25 10.6279 8.595V11.1783C10.6279 11.5233 10.3479 11.8033 10.0029 11.8033C9.65786 11.8033 9.37786 11.5233 9.37786 11.1783V8.595C9.37786 8.25 9.65786 7.97 10.0029 7.97Z" fill="#FF9900"/>
</svg>
