<svg width="20" height="20" viewBox="0 0 20 20" fill="none" xmlns="http://www.w3.org/2000/svg">
<path fill-rule="evenodd" clip-rule="evenodd" d="M10.0114 2.5C10.8614 2.5 11.6222 2.94083 12.0439 3.67917L18.0322 14.1492C18.4514 14.8817 18.4489 15.7558 18.0247 16.4867C17.6006 17.2183 16.8431 17.655 15.9989 17.655H4.01306C3.16806 17.655 2.41056 17.2183 1.98639 16.4867C1.56223 15.7558 1.55973 14.8817 1.97889 14.1492L7.97889 3.6775C8.40056 2.94 9.15973 2.5 10.0106 2.5H10.0114ZM10.0106 3.75C9.61389 3.75 9.26056 3.955 9.06223 4.29917L3.06389 14.77C2.86889 15.1117 2.87056 15.5192 3.06806 15.86C3.26556 16.2008 3.61889 16.405 4.01306 16.405H15.9989C16.3922 16.405 16.7456 16.2008 16.9431 15.86C17.1414 15.5192 17.1431 15.1117 16.9464 14.77L10.9589 4.29917C10.7614 3.955 10.4081 3.75 10.0106 3.75ZM10.0049 12.9158C10.4657 12.9158 10.8382 13.2883 10.8382 13.7492C10.8382 14.21 10.4657 14.5825 10.0049 14.5825C9.54406 14.5825 9.16739 14.21 9.16739 13.7492C9.16739 13.2883 9.53656 12.9158 9.99656 12.9158H10.0049ZM10.0032 7.97C10.3482 7.97 10.6282 8.25 10.6282 8.595V11.1783C10.6282 11.5233 10.3482 11.8033 10.0032 11.8033C9.65823 11.8033 9.37823 11.5233 9.37823 11.1783V8.595C9.37823 8.25 9.65823 7.97 10.0032 7.97Z" fill="#BA1A1A"/>
</svg>
