<svg width="28" height="28" viewBox="0 0 28 28" fill="none" xmlns="http://www.w3.org/2000/svg">
<path d="M17.8699 3.91378C18.5508 4.1848 19.0323 4.67331 19.4639 5.38949L19.6061 5.63666L20.1337 6.64834L20.1511 6.67659L20.1669 6.70118L20.2117 6.76244C20.452 7.02435 20.8543 7.18258 21.1198 7.18258C23.5521 7.18258 25.5386 9.09272 25.6604 11.494L25.6663 11.7279V18.4887C25.6663 21.6061 23.2045 24.15 20.1195 24.2817L19.868 24.2871H8.13134C5.01324 24.2871 2.47006 21.8256 2.33836 18.7402L2.33301 18.4887V11.7279C2.33301 9.21794 4.36882 7.18258 6.87951 7.18258C7.14408 7.18258 7.54693 7.02412 7.78769 6.76244L7.79598 6.75266L7.80636 6.73906L7.86636 6.64703L8.39246 5.63698C8.86141 4.78471 9.37155 4.21497 10.1285 3.91367C11.5157 3.36209 16.4838 3.36209 17.8699 3.91378ZM10.7754 5.53972C10.5171 5.64252 10.2833 5.88048 10.0337 6.29301L9.9257 6.48061L9.47669 7.34872L9.36618 7.54872C9.27393 7.70217 9.18165 7.8317 9.07628 7.94651C8.53912 8.53037 7.76789 8.8676 7.0823 8.92409L6.87951 8.93258L6.68806 8.93903C5.29631 9.03314 4.18359 10.1456 4.08946 11.5366L4.08301 11.7279V18.4887C4.08301 20.6498 5.77671 22.4158 7.90922 22.5311L8.13134 22.5371H19.868C22.0286 22.5371 23.795 20.8427 23.9104 18.7108L23.9163 18.4887V11.7279C23.9163 10.2488 22.7663 9.03742 21.3113 8.93903L21.1198 8.93258L20.9167 8.92409C20.2301 8.86759 19.4588 8.53027 18.9224 7.94573C18.8184 7.83245 18.7266 7.70384 18.6349 7.55168L18.6129 7.51396L18.5866 7.46712L18.4512 7.21308L18.0733 6.48093C17.8181 6.01763 17.5844 5.73449 17.3321 5.5922L17.2228 5.53972L17.0835 5.49344C15.8829 5.15408 11.7065 5.1695 10.7754 5.53972ZM13.9993 10.7324C16.5312 10.7324 18.5832 12.7843 18.5832 15.3162C18.5832 17.8481 16.5312 19.9001 13.9993 19.9001C11.4674 19.9001 9.41549 17.8481 9.41549 15.3162C9.41549 12.7843 11.4674 10.7324 13.9993 10.7324ZM13.9993 12.4824C12.4339 12.4824 11.1655 13.7508 11.1655 15.3162C11.1655 16.8817 12.4339 18.1501 13.9993 18.1501C15.5647 18.1501 16.8332 16.8817 16.8332 15.3162C16.8332 13.7508 15.5647 12.4824 13.9993 12.4824ZM20.4214 9.9169C21.0657 9.9169 21.588 10.4392 21.588 11.0836C21.588 11.6819 21.1376 12.175 20.5574 12.2424L20.4214 12.2502C19.7665 12.2502 19.2442 11.7279 19.2442 11.0836C19.2442 10.4853 19.6946 9.99214 20.2748 9.92475L20.4214 9.9169Z" fill="white"/>
</svg>
