<svg width="28" height="28" viewBox="0 0 28 28" fill="none" xmlns="http://www.w3.org/2000/svg">
<path d="M20.5458 0H7.46667C2.70044 0 0 2.70044 0 7.46667V20.5333C0 25.2996 2.70044 28 7.46667 28H20.5458C25.312 28 28 25.2996 28 20.5333V7.46667C28 2.70044 25.312 0 20.5458 0Z" fill="#FF179C"/>
<path fill-rule="evenodd" clip-rule="evenodd" d="M13.986 6.2002C15.9464 6.2002 17.5659 7.69394 17.7656 9.60439L17.8213 9.60505C18.9088 9.60505 20.231 10.3273 20.6773 12.353L21.269 16.9333C21.4813 18.4115 21.2158 19.5973 20.4785 20.4478C19.745 21.2938 18.584 21.7415 17.1208 21.7415H10.8598C9.25254 21.7415 8.13279 21.3478 7.43604 20.5385C6.73629 19.727 6.50229 18.5098 6.74079 16.9213L7.32279 12.4018C7.70529 10.3295 9.10404 9.60505 10.187 9.60505C10.2805 8.7429 10.6693 7.92272 11.286 7.30795C11.9948 6.6037 12.972 6.2002 13.9703 6.2002H13.986ZM17.8213 10.73H10.187C9.85629 10.73 8.75079 10.8635 8.43354 12.5765L7.85454 17.0765C7.66629 18.3388 7.81179 19.2523 8.28804 19.805C8.75829 20.351 9.59979 20.6165 10.8598 20.6165H17.1208C17.9068 20.6165 18.98 20.4598 19.628 19.7113C20.1425 19.118 20.3195 18.2345 20.1545 17.0848L19.5703 12.5458C19.3213 11.4275 18.6643 10.73 17.8213 10.73ZM16.1734 12.8181C16.4839 12.8181 16.7531 13.0701 16.7531 13.3806C16.7531 13.6911 16.5184 13.9431 16.2079 13.9431H16.1734C15.8629 13.9431 15.6109 13.6911 15.6109 13.3806C15.6109 13.0701 15.8629 12.8181 16.1734 12.8181ZM11.8008 12.8181C12.1113 12.8181 12.3806 13.0701 12.3806 13.3806C12.3806 13.6911 12.1451 13.9431 11.8346 13.9431H11.8008C11.4903 13.9431 11.2383 13.6911 11.2383 13.3806C11.2383 13.0701 11.4903 12.8181 11.8008 12.8181ZM13.9838 7.3252H13.9725C13.2668 7.3252 12.579 7.60945 12.0803 8.1052C11.674 8.50965 11.4083 9.04134 11.3223 9.6047L16.6318 9.60491C16.4391 8.31623 15.3247 7.3252 13.9838 7.3252Z" fill="white"/>
</svg>
