<svg width="20" height="20" viewBox="0 0 20 20" fill="none" xmlns="http://www.w3.org/2000/svg">
<path fill-rule="evenodd" clip-rule="evenodd" d="M9.79102 0.833496C12.1852 0.833496 14.4352 1.76433 16.1252 3.45516C19.6185 6.9485 19.6185 12.6318 16.1252 16.1252C14.4127 17.8385 12.1068 18.7452 9.77102 18.7452C8.49768 18.7452 7.21602 18.476 6.01685 17.921C5.66352 17.7793 5.33268 17.646 5.09518 17.646C4.82185 17.6477 4.45435 17.7743 4.09935 17.8968C3.37102 18.1468 2.46435 18.4585 1.79352 17.7902C1.12518 17.121 1.43352 16.2168 1.68185 15.4893C1.80435 15.131 1.93018 14.761 1.93018 14.481C1.93018 14.251 1.81935 13.9577 1.64935 13.5352C0.0885153 10.1643 0.810182 6.10183 3.45768 3.456C5.14768 1.76516 7.39685 0.833496 9.79102 0.833496ZM9.79185 2.0835C7.73102 2.0835 5.79518 2.88516 4.34102 4.34016C2.06268 6.61683 1.44268 10.1127 2.79685 13.0402C2.99185 13.5227 3.18018 13.9927 3.18018 14.481C3.18018 14.9685 3.01268 15.4593 2.86518 15.8927C2.74352 16.2493 2.55935 16.7877 2.67768 16.906C2.79352 17.026 3.33518 16.8368 3.69268 16.7143C4.12185 16.5677 4.60852 16.3993 5.09102 16.396C5.57435 16.396 6.03018 16.5793 6.51268 16.7735C9.46852 18.1402 12.9643 17.5185 15.2418 15.2418C18.2468 12.2352 18.2468 7.34433 15.2418 4.33933C13.7868 2.88433 11.8518 2.0835 9.79185 2.0835ZM13.0809 9.30241C13.5409 9.30241 13.9143 9.67491 13.9143 10.1357C13.9143 10.5966 13.5409 10.9691 13.0809 10.9691C12.6209 10.9691 12.2443 10.5966 12.2443 10.1357C12.2443 9.67491 12.6134 9.30241 13.0734 9.30241H13.0809ZM9.74027 9.30241C10.2003 9.30241 10.5736 9.67491 10.5736 10.1357C10.5736 10.5966 10.2003 10.9691 9.74027 10.9691C9.28027 10.9691 8.9036 10.5966 8.9036 10.1357C8.9036 9.67491 9.27193 9.30241 9.73277 9.30241H9.74027ZM6.39927 9.30241C6.85927 9.30241 7.2326 9.67491 7.2326 10.1357C7.2326 10.5966 6.85927 10.9691 6.39927 10.9691C5.93927 10.9691 5.5626 10.5966 5.5626 10.1357C5.5626 9.67491 5.93177 9.30241 6.39177 9.30241H6.39927Z" fill="#FF179C"/>
</svg>
