<svg width="20" height="20" viewBox="0 0 20 20" fill="none" xmlns="http://www.w3.org/2000/svg">
<path fill-rule="evenodd" clip-rule="evenodd" d="M1.59961 10.4927C1.59961 10.1646 1.59961 9.83651 1.59961 9.50845C1.60916 9.4613 1.62412 9.41457 1.62743 9.36699C1.7093 8.19528 2.01843 7.08493 2.58501 6.05819C3.89106 3.69141 5.87619 2.24368 8.53527 1.73403C8.85572 1.6726 9.1826 1.64488 9.5065 1.60156C9.83459 1.60156 10.1627 1.60156 10.4908 1.60156C10.533 1.61078 10.5748 1.62555 10.6175 1.62847C11.7898 1.70847 12.9045 2.00939 13.9284 2.58227C16.6903 4.12755 18.19 6.49105 18.3843 9.65046C18.4775 11.1656 18.1517 12.6155 17.4099 13.9422C15.8688 16.6983 13.5039 18.1917 10.3513 18.3862C8.83627 18.4796 7.39086 18.1466 6.05847 17.4144C3.68817 16.112 2.24143 14.1232 1.73188 11.4627C1.67058 11.1427 1.64286 10.8162 1.59961 10.4927ZM10.002 17.0871C13.9116 17.0841 17.081 13.9153 17.0851 10.0053C17.0892 6.09304 13.9078 2.91105 9.99511 2.91407C6.08554 2.91709 2.91616 6.08585 2.91205 9.99585C2.90795 13.9082 6.08935 17.0901 10.002 17.0871Z" fill="#2563EA"/>
<path fill-rule="evenodd" clip-rule="evenodd" d="M8.87487 11.3014C8.92077 11.2331 8.94971 11.1708 8.99526 11.1252C10.2343 9.88329 11.4759 8.64375 12.715 7.40182C12.9185 7.19782 13.1458 7.08695 13.4373 7.17505C13.8697 7.30571 14.0419 7.81664 13.7754 8.18119C13.7306 8.24258 13.6767 8.29804 13.6228 8.35201C12.2165 9.75922 10.8098 11.1659 9.40295 12.5726C9.01878 12.9566 8.67307 12.9551 8.28627 12.5685C7.63307 11.9155 6.97908 11.2633 6.32748 10.6086C6.06209 10.342 6.02111 10.0072 6.2127 9.73363C6.44105 9.4076 6.88428 9.35087 7.18836 9.6241C7.41568 9.82839 7.62522 10.0525 7.84189 10.2686C8.17057 10.5965 8.4986 10.9251 8.87487 11.3014Z" fill="#2563EA"/>
</svg>
