<svg width="24" height="24" viewBox="0 0 24 24" fill="none" xmlns="http://www.w3.org/2000/svg">
<path fill-rule="evenodd" clip-rule="evenodd" d="M1.91992 12.5912C1.91992 12.1975 1.91992 11.8038 1.91992 11.4101C1.93138 11.3536 1.94934 11.2975 1.95331 11.2404C2.05155 9.83434 2.42251 8.50192 3.1024 7.26983C4.66966 4.42969 7.05182 2.69241 10.2427 2.08083C10.6273 2.00712 11.0195 1.97385 11.4082 1.92188C11.8019 1.92188 12.1956 1.92188 12.5893 1.92188C12.64 1.93294 12.6902 1.95066 12.7414 1.95416C14.1482 2.05016 15.4858 2.41127 16.7145 3.09872C20.0287 4.95306 21.8284 7.78927 22.0615 11.5806C22.1734 13.3987 21.7825 15.1386 20.8923 16.7306C19.043 20.038 16.205 21.83 12.422 22.0634C10.6039 22.1755 8.86943 21.7759 7.27055 20.8973C4.4262 19.3344 2.6901 16.9478 2.07864 13.7553C2.00509 13.3712 1.97182 12.9794 1.91992 12.5912ZM12.0028 20.5045C16.6943 20.5009 20.4975 16.6984 20.5025 12.0064C20.5074 7.31164 16.6898 3.49326 11.9945 3.49689C7.30304 3.50051 3.49978 7.30302 3.49486 11.995C3.48993 16.6898 7.30761 20.5081 12.0028 20.5045Z" fill="#D19C97"/>
<path fill-rule="evenodd" clip-rule="evenodd" d="M10.6498 13.5622C10.7049 13.4803 10.7397 13.4055 10.7943 13.3508C12.2812 11.8605 13.771 10.373 15.258 8.88272C15.5023 8.63793 15.775 8.50488 16.1248 8.6106C16.6436 8.76739 16.8502 9.38051 16.5305 9.81797C16.4767 9.89164 16.4121 9.95818 16.3474 10.023C14.6599 11.7116 12.9718 13.3997 11.2835 15.0876C10.8225 15.5484 10.4077 15.5467 9.94352 15.0828C9.15968 14.2991 8.37489 13.5164 7.59298 12.7309C7.27451 12.411 7.22533 12.0091 7.45524 11.6809C7.72925 11.2897 8.26114 11.2216 8.62603 11.5495C8.89882 11.7946 9.15027 12.0635 9.41026 12.3229C9.80469 12.7163 10.1983 13.1106 10.6498 13.5622Z" fill="#D19C97"/>
</svg>
