<svg width="36" height="36" viewBox="0 0 36 36" fill="none" xmlns="http://www.w3.org/2000/svg">
<circle cx="18" cy="18" r="18" fill="#D9D9D9"/>
<path d="M19.3824 18.0004L23.5491 13.8337C23.7252 13.6492 23.822 13.4031 23.819 13.1481C23.816 12.893 23.7134 12.6493 23.5331 12.4689C23.3527 12.2886 23.109 12.1859 22.8539 12.1829C22.5989 12.1799 22.3528 12.2768 22.1683 12.4529L18.0016 16.6195L13.8349 12.4529C13.7451 12.3587 13.6373 12.2834 13.5179 12.2315C13.3985 12.1795 13.2699 12.152 13.1398 12.1505C13.0096 12.1489 12.8804 12.1734 12.7598 12.2226C12.6393 12.2717 12.5297 12.3444 12.4377 12.4364C12.3456 12.5285 12.2729 12.638 12.2238 12.7586C12.1747 12.8792 12.1501 13.0084 12.1517 13.1385C12.1532 13.2687 12.1808 13.3973 12.2327 13.5167C12.2846 13.6361 12.3599 13.7438 12.4541 13.8337L16.6208 18.0004L12.4541 22.167C12.278 22.3516 12.1812 22.5977 12.1842 22.8527C12.1872 23.1077 12.2898 23.3515 12.4701 23.5318C12.6505 23.7122 12.8942 23.8148 13.1493 23.8178C13.4043 23.8208 13.6504 23.7239 13.8349 23.5479L18.0016 19.3812L22.1683 23.5479C22.3528 23.7239 22.5989 23.8208 22.8539 23.8178C23.109 23.8148 23.3527 23.7122 23.5331 23.5318C23.7134 23.3515 23.816 23.1077 23.819 22.8527C23.822 22.5977 23.7252 22.3516 23.5491 22.167L19.3824 18.0004Z" fill="#717972"/>
</svg>
