<svg width="32" height="32" viewBox="0 0 32 32" fill="none" xmlns="http://www.w3.org/2000/svg">
<path d="M23.4809 0H8.53333C3.08622 0 0 3.08622 0 8.53333V23.4667C0 28.9138 3.08622 32 8.53333 32H23.4809C28.928 32 32 28.9138 32 23.4667V8.53333C32 3.08622 28.928 0 23.4809 0Z" fill="#FF179C"/>
<path fill-rule="evenodd" clip-rule="evenodd" d="M19.8822 7.56641C22.6572 7.56641 24.7497 9.83057 24.7497 12.8331V18.5564C24.7497 20.0931 24.2063 21.4814 23.2188 22.4664C22.333 23.3489 21.1838 23.8164 19.8955 23.8164H11.6847C10.3988 23.8164 9.25051 23.3497 8.36384 22.4664C7.37634 21.4814 6.83301 20.0931 6.83301 18.5564V12.8331C6.83301 9.83057 8.92551 7.56641 11.7005 7.56641H19.8822ZM19.8822 8.81641H11.7005C9.60467 8.81641 8.08301 10.5056 8.08301 12.8331V18.5564C8.08301 19.7589 8.49634 20.8331 9.24634 21.5806C9.89301 22.2264 10.7372 22.5664 11.6872 22.5664H19.8822C19.8838 22.5647 19.8905 22.5664 19.8955 22.5664C20.8463 22.5664 21.6897 22.2264 22.3363 21.5806C23.0872 20.8331 23.4997 19.7589 23.4997 18.5564V12.8331C23.4997 10.5056 21.978 8.81641 19.8822 8.81641ZM21.1955 12.6737C21.413 12.9412 21.3722 13.3346 21.1047 13.5529L17.4013 16.5629C16.933 16.9346 16.373 17.1204 15.8138 17.1204C15.2563 17.1204 14.7005 16.9362 14.2355 16.5679L10.498 13.5546C10.2288 13.3379 10.1872 12.9437 10.403 12.6754C10.6205 12.4079 11.0138 12.3654 11.2822 12.5812L15.0163 15.5912C15.4855 15.9629 16.1463 15.9629 16.6188 15.5879L20.3155 12.5829C20.5838 12.3637 20.9772 12.4054 21.1955 12.6737Z" fill="white"/>
</svg>
