<svg width="24" height="24" viewBox="0 0 24 24" fill="none" xmlns="http://www.w3.org/2000/svg">
<path d="M6.9916 13.8776L6.36173 16.2171L4.07261 16.2657C3.37994 14.9759 3.01188 13.5367 3.00028 12.0727C2.98868 10.6087 3.33388 9.16393 4.00602 7.86328L6.0441 8.23671L6.93671 10.2631C6.53508 11.4378 6.55288 12.7154 6.9871 13.8785L6.9916 13.8776Z" fill="#FBBB00"/>
<path d="M20.8422 10.3203C21.1471 11.9247 21.0097 13.5818 20.4446 15.114C19.8795 16.6462 18.908 17.9957 17.6344 19.0179L15.0672 18.8865L14.7073 16.6181C15.7673 15.9967 16.5818 15.03 17.0144 13.88H12.2031V10.3203H20.8458H20.8422Z" fill="#518EF8"/>
<path d="M17.6354 19.0167C16.6059 19.8436 15.407 20.4338 14.1238 20.7454C12.8406 21.057 11.5045 21.0824 10.2104 20.8197C8.91631 20.557 7.69588 20.0127 6.63574 19.2254C5.57561 18.4381 4.70174 17.4271 4.07617 16.2642L6.99246 13.877C7.26623 14.6068 7.69613 15.2679 8.25209 15.8143C8.80805 16.3606 9.47665 16.7789 10.2111 17.0398C10.9456 17.3008 11.7282 17.3981 12.5043 17.3251C13.2803 17.252 14.031 17.0103 14.7039 16.6169L17.6354 19.0167Z" fill="#28B446"/>
<path d="M17.7445 5.07185L14.8291 7.45815C14.1462 7.03294 13.3762 6.76717 12.5764 6.68061C11.7766 6.59405 10.9676 6.68893 10.2096 6.95819C9.45151 7.22745 8.7639 7.66416 8.19792 8.23584C7.63193 8.80752 7.20212 9.49945 6.94045 10.2602L4.00977 7.86127C4.62784 6.66739 5.50558 5.62717 6.57848 4.81708C7.65138 4.00698 8.89217 3.44759 10.2097 3.18002C11.5272 2.91245 12.8879 2.9435 14.1918 3.27088C15.4957 3.59826 16.7097 4.21366 17.7445 5.07185Z" fill="#F14336"/>
</svg>
