<svg width="28" height="28" viewBox="0 0 28 28" fill="none" xmlns="http://www.w3.org/2000/svg">
<path d="M20.5458 0H7.46667C2.70044 0 0 2.70044 0 7.46667V20.5333C0 25.2996 2.70044 28 7.46667 28H20.5458C25.312 28 28 25.2996 28 20.5333V7.46667C28 2.70044 25.312 0 20.5458 0Z" fill="#FF179C"/>
<path fill-rule="evenodd" clip-rule="evenodd" d="M18.1639 6.04927C18.0891 6.08616 17.8076 6.43563 17.1323 7.32993C16.1178 8.6736 16.0132 8.82833 15.9126 9.13477C15.7108 9.74938 15.7508 10.3535 16.0307 10.9204L16.1541 11.1705L14.1009 13.225L12.0478 15.2795L11.7031 14.9407C11.3352 14.5793 11.2103 14.5077 11.0117 14.5449C10.8597 14.5735 10.6943 14.7288 10.6531 14.8818C10.6262 14.9816 10.629 15.0383 10.6663 15.1517C10.6923 15.2307 10.711 15.2965 10.7077 15.2978C10.6561 15.3193 10.0518 15.7668 9.77848 15.9858C8.48943 17.0189 7.25087 18.3429 6.41844 19.5776C5.98448 20.2213 5.93653 20.3555 6.05722 20.5886C6.13047 20.73 7.28607 21.8807 7.42577 21.9513C7.59276 22.0356 7.71177 22.0151 7.99183 21.8533C9.39695 21.042 11.3238 19.2231 12.454 17.6412C12.5891 17.452 12.7006 17.2947 12.7018 17.2914C12.7029 17.2882 12.7685 17.3068 12.8475 17.3328C13.2123 17.4529 13.553 17.1214 13.4359 16.7601C13.4095 16.6783 13.291 16.5326 13.0585 16.2961L12.7197 15.9514L14.7743 13.8983L16.8289 11.8452L17.079 11.9688C17.4445 12.1495 17.6684 12.1994 18.1106 12.1989C18.5367 12.1984 18.7644 12.1493 19.1109 11.9833C19.3228 11.8817 21.5448 10.2399 21.8364 9.96942C21.9806 9.8356 22.024 9.70296 21.988 9.50597C21.9691 9.40291 21.7679 9.18975 20.3209 7.74017C19.4158 6.83344 18.6305 6.07034 18.5757 6.04436C18.4475 5.98353 18.2936 5.98535 18.1639 6.04927ZM20.775 9.61047C20.5916 9.77883 18.7769 11.1105 18.6662 11.1579C18.3427 11.2966 17.921 11.3087 17.613 11.1882L17.5219 11.1525L17.9449 10.7239C18.1775 10.4881 18.385 10.2623 18.406 10.2221C18.4627 10.1131 18.4524 9.88674 18.3856 9.7723C18.3534 9.71731 18.2821 9.64601 18.2272 9.61388C18.1127 9.54704 17.8864 9.53679 17.7773 9.5935C17.7371 9.61444 17.5113 9.82191 17.2755 10.0546L16.8469 10.4776L16.8112 10.3864C16.691 10.0792 16.7028 9.65679 16.8407 9.33504C16.874 9.25733 17.2429 8.741 17.6603 8.18765L18.4194 7.18151L19.6165 8.37826C20.5394 9.30094 20.8048 9.58315 20.775 9.61047ZM12.0082 16.6387C11.9978 16.6571 11.8986 16.8034 11.7877 16.9638C10.9202 18.2194 9.43368 19.7195 8.16848 20.6161C7.64397 20.9877 7.74831 20.9877 7.37778 20.6159L7.05721 20.2943L7.29654 19.9524C7.77976 19.2621 8.23747 18.7217 8.94593 18.005C9.69986 17.2423 10.3118 16.7165 11.0283 16.2162L11.386 15.9663L11.7066 16.2858C11.8829 16.4615 12.0186 16.6203 12.0082 16.6387Z" fill="white"/>
</svg>
