<svg width="32" height="32" viewBox="0 0 32 32" fill="none" xmlns="http://www.w3.org/2000/svg">
<path d="M23.4809 0H8.53333C3.08622 0 0 3.08622 0 8.53333V23.4667C0 28.9138 3.08622 32 8.53333 32H23.4809C28.928 32 32 28.9138 32 23.4667V8.53333C32 3.08622 28.928 0 23.4809 0Z" fill="#FF179C"/>
<path fill-rule="evenodd" clip-rule="evenodd" d="M20.6268 7.16607C20.5436 7.20706 20.2309 7.59537 19.4806 8.58902C18.3533 10.082 18.2371 10.2539 18.1253 10.5944C17.9011 11.2773 17.9455 11.9485 18.2565 12.5785L18.3937 12.8563L16.1124 15.1391L13.8311 17.4219L13.4481 17.0455C13.0394 16.6438 12.9005 16.5643 12.6799 16.6057C12.511 16.6374 12.3272 16.81 12.2814 16.98C12.2516 17.0909 12.2546 17.1539 12.2962 17.2799C12.325 17.3677 12.3458 17.4407 12.3421 17.4422C12.2848 17.4661 11.6133 17.9633 11.3096 18.2067C9.87737 19.3546 8.50118 20.8257 7.57626 22.1976C7.09408 22.9128 7.0408 23.0619 7.17491 23.3209C7.25629 23.478 8.54029 24.7565 8.69552 24.835C8.88106 24.9287 9.01329 24.9058 9.32447 24.7261C10.8857 23.8247 13.0266 21.8037 14.2824 20.046C14.4326 19.8358 14.5564 19.6609 14.5577 19.6574C14.559 19.6538 14.6319 19.6745 14.7197 19.7034C15.125 19.8368 15.5035 19.4684 15.3735 19.067C15.3441 18.9761 15.2124 18.8143 14.9541 18.5515L14.5777 18.1685L16.8605 15.8873L19.1434 13.606L19.4213 13.7434C19.8274 13.9441 20.0762 13.9996 20.5675 13.999C21.041 13.9984 21.294 13.9439 21.679 13.7594C21.9145 13.6465 24.3833 11.8223 24.7073 11.5218C24.8676 11.3731 24.9158 11.2257 24.8758 11.0068C24.8548 10.8923 24.6312 10.6555 23.0234 9.04485C22.0178 8.03737 21.1452 7.18948 21.0844 7.16062C20.9419 7.09303 20.7709 7.09505 20.6268 7.16607ZM23.528 11.123C23.3242 11.31 21.3078 12.7896 21.1849 12.8423C20.8254 12.9964 20.3568 13.0099 20.0147 12.876L19.9134 12.8363L20.3834 12.3601C20.6419 12.0981 20.8725 11.8473 20.8957 11.8026C20.9587 11.6814 20.9473 11.4299 20.8731 11.3028C20.8374 11.2417 20.7582 11.1625 20.6971 11.1267C20.5699 11.0525 20.3184 11.0411 20.1972 11.1041C20.1525 11.1274 19.9017 11.3579 19.6397 11.6164L19.1635 12.0864L19.1238 11.9851C18.9902 11.6437 19.0033 11.1744 19.1566 10.8169C19.1936 10.7306 19.6034 10.1569 20.0673 9.54205L20.9107 8.42412L22.2408 9.75384C23.2662 10.779 23.5611 11.0926 23.528 11.123ZM13.7871 18.9321C13.7755 18.9525 13.6653 19.1151 13.5422 19.2933C12.5783 20.6884 10.9265 22.3552 9.52075 23.3514C8.93796 23.7644 9.0539 23.7644 8.6422 23.3513L8.28601 22.9939L8.55193 22.614C9.08884 21.847 9.59741 21.2466 10.3846 20.4502C11.2223 19.6027 11.9023 19.0186 12.6983 18.4626L13.0958 18.185L13.452 18.54C13.6479 18.7352 13.7987 18.9117 13.7871 18.9321Z" fill="white"/>
</svg>
