<svg width="48" height="48" viewBox="0 0 48 48" fill="none" xmlns="http://www.w3.org/2000/svg">
<path fill-rule="evenodd" clip-rule="evenodd" d="M24.7498 4.00353C30.5898 4.00353 35.3458 8.75953 35.3458 14.6055L35.3456 17.7587C38.896 18.9943 41.45 22.3743 41.45 26.3411V34.9191C41.45 39.9291 37.376 44.0031 32.366 44.0031H17.084C12.074 44.0031 8 39.9291 8 34.9191V26.3411C8 22.3751 10.553 18.9956 14.1024 17.7594L14.1038 14.6055C14.1158 11.7255 15.2298 9.06753 17.2398 7.07553C19.2518 5.08153 21.9078 3.92753 24.7498 4.00353ZM32.366 20.2571H17.084C13.728 20.2571 11 22.9851 11 26.3411V34.9191C11 38.2751 13.728 41.0031 17.084 41.0031H32.366C35.72 41.0031 38.45 38.2751 38.45 34.9191V26.3411C38.45 22.9851 35.72 20.2571 32.366 20.2571ZM24.7246 26.9087C25.5526 26.9087 26.2246 27.5807 26.2246 28.4087V32.8507C26.2246 33.6787 25.5526 34.3507 24.7246 34.3507C23.8966 34.3507 23.2246 33.6787 23.2246 32.8507V28.4087C23.2246 27.5807 23.8966 26.9087 24.7246 26.9087ZM24.7438 7.00353H24.7118C22.6858 7.00353 20.7878 7.78353 19.3538 9.20553C17.9098 10.6335 17.1118 12.5395 17.1038 14.5715L17.102 17.256H32.344L32.3458 14.6055C32.3458 10.4135 28.9358 7.00353 24.7438 7.00353Z" fill="white"/>
</svg>
