<svg width="129" height="44" viewBox="0 0 129 44" fill="none" xmlns="http://www.w3.org/2000/svg">
<path d="M51.4451 15.9822C49.6227 15.9568 48.0504 16.5925 46.7281 17.8893C45.4058 19.1862 44.7574 20.7415 44.7828 22.5512C44.7447 24.3609 45.3889 25.9162 46.7197 27.2131C48.0504 28.51 49.6227 29.1457 51.4494 29.1202C53.259 29.1457 54.8356 28.51 56.1791 27.2131C57.5225 25.9162 58.171 24.3609 58.1328 22.5512C58.171 20.7415 57.5183 19.1862 56.1791 17.8893C54.8398 16.5925 53.2548 15.9568 51.4451 15.9822ZM54.7212 25.8993C53.8481 26.7978 52.7632 27.247 51.4663 27.247C50.144 27.247 49.0506 26.802 48.1903 25.9078C47.3299 25.0135 46.9019 23.8904 46.9019 22.5258C46.9019 21.1781 47.3342 20.0592 48.203 19.1735C49.0718 18.2877 50.1567 17.8427 51.4663 17.8427C52.7632 17.8427 53.8481 18.2877 54.7212 19.1819C55.5942 20.0762 56.0307 21.1908 56.0307 22.5215C56.0307 23.8777 55.5942 25.0008 54.7212 25.8993Z" fill="#FF179C"/>
<path d="M65.6213 19.2373C64.2609 19.2373 63.2056 19.695 62.464 20.6062V16.4825C62.464 15.3636 61.557 14.4609 60.4424 14.4609V27.0184C60.4424 28.061 61.2858 28.9043 62.3283 28.9043V27.5948C63.0615 28.6077 64.1634 29.1162 65.6425 29.1162C66.9648 29.1162 68.0667 28.6458 68.944 27.7007C69.8213 26.7556 70.262 25.5859 70.262 24.1873C70.262 22.7761 69.8213 21.5979 68.944 20.6528C68.0625 19.7077 66.9563 19.2373 65.6213 19.2373ZM67.3547 26.3912C66.8037 26.976 66.1172 27.2684 65.295 27.2684C64.4982 27.2684 63.8244 26.9972 63.2734 26.459C62.7225 25.9207 62.447 25.1621 62.447 24.1873C62.447 23.1999 62.7225 22.4328 63.2734 21.8945C63.8244 21.3563 64.4982 21.0851 65.295 21.0851C66.1172 21.0851 66.8037 21.3733 67.3547 21.9496C67.9057 22.526 68.1811 23.2677 68.1811 24.1662C68.1811 25.0646 67.9057 25.8063 67.3547 26.3912Z" fill="#FF179C"/>
<path d="M77.1408 27.3265C76.3313 27.3265 75.649 27.1061 75.0896 26.6611C74.5301 26.2203 74.1869 25.6101 74.0597 24.843H81.1076C81.2094 24.3683 81.2602 23.9445 81.2602 23.5715C81.2602 22.3383 80.8449 21.3084 80.01 20.482C79.1751 19.6555 78.1367 19.2402 76.8907 19.2402C75.5558 19.2148 74.3988 19.6937 73.424 20.6727C72.4492 21.6559 71.9746 22.8256 72 24.1861C72 25.5846 72.4874 26.7586 73.4664 27.6994C74.4411 28.6445 75.649 29.115 77.0857 29.115C77.8316 29.115 78.5267 28.9793 79.1708 28.7123C80.1541 28.3012 80.5058 27.0849 79.8955 26.2076C79.0606 26.9535 78.141 27.3265 77.1408 27.3265ZM75.0684 21.5754C75.5642 21.1601 76.1448 20.9482 76.8102 20.9482C77.4926 20.9482 78.0605 21.1558 78.5224 21.5754C78.9844 21.995 79.2217 22.5544 79.2344 23.2622H74.0979C74.2504 22.5544 74.5768 21.995 75.0684 21.5754Z" fill="#FF179C"/>
<path d="M87.6006 29.9841L92.2031 19.4482C90.8978 19.4482 89.7239 20.2408 89.2322 21.4486L87.2531 26.3267L85.3374 21.474C84.8543 20.2535 83.6761 19.4482 82.3623 19.4482L86.1384 28.4838L85.7528 29.3696C85.3544 30.2935 84.6678 30.7555 83.6931 30.7555C83.4727 30.7555 83.104 30.73 82.5742 30.6792V32.3914C83.0743 32.5185 83.5956 32.5863 84.1338 32.5863C84.9433 32.5863 85.6214 32.3786 86.1766 31.9591C86.7233 31.5395 87.2022 30.8826 87.6006 29.9841Z" fill="#FF179C"/>
<path d="M94.0122 18.0242H96.4576V28.9076H98.5003V18.0242H100.967C101.976 18.0242 102.798 17.2063 102.798 16.1934H92.1856C92.1813 17.202 93.0035 18.0242 94.0122 18.0242Z" fill="#FF179C"/>
<path d="M104.565 19.4482V26.8818C104.565 28.0007 105.472 28.9034 106.587 28.9034V21.4698C106.591 20.3552 105.684 19.4482 104.565 19.4482Z" fill="#FF179C"/>
<path d="M105.586 14.5752C105.2 14.5752 104.874 14.7066 104.603 14.9693C104.332 15.2321 104.2 15.55 104.2 15.9229C104.2 16.2959 104.336 16.6095 104.603 16.868C104.874 17.1265 105.2 17.2537 105.586 17.2537C105.959 17.2537 106.281 17.1265 106.548 16.868C106.819 16.6095 106.955 16.2959 106.955 15.9229C106.955 15.55 106.819 15.2321 106.548 14.9693C106.281 14.7066 105.959 14.5752 105.586 14.5752Z" fill="#FF179C"/>
<path d="M114.237 19.2363C113.067 19.2363 112.126 19.6135 111.405 20.3721V19.4482H109.52V26.8818C109.52 28.0007 110.426 28.9034 111.541 28.9034V23.2583C111.541 22.6183 111.745 22.0886 112.147 21.6775C112.554 21.2664 113.067 21.0629 113.698 21.0629C114.313 21.0629 114.813 21.2664 115.19 21.669C115.567 22.0716 115.758 22.6014 115.758 23.2583V26.8776C115.758 27.9965 116.665 28.8992 117.78 28.8992V22.987C117.78 21.8427 117.462 20.9316 116.826 20.2535C116.19 19.5754 115.326 19.2363 114.237 19.2363Z" fill="#FF179C"/>
<path d="M127.053 20.2747C126.354 19.5796 125.413 19.2363 124.23 19.2363C122.497 19.2363 121.166 19.9102 120.242 21.2579L121.416 22.453C122.2 21.5164 123.073 21.046 124.035 21.046C124.68 21.046 125.176 21.2198 125.527 21.5673C125.879 21.9148 126.057 22.4149 126.057 23.0676V23.6821H123.379C122.311 23.6821 121.467 23.9279 120.836 24.4153C120.208 24.9027 119.891 25.5596 119.891 26.3817C119.891 27.2039 120.192 27.8651 120.798 28.3652C121.399 28.8653 122.196 29.1153 123.188 29.1153C124.497 29.1153 125.506 28.6915 126.21 27.8439V28.9034C127.252 28.9034 128.096 28.06 128.096 27.0175V23.1862C128.104 21.9402 127.752 20.9697 127.053 20.2747ZM126.061 25.3222C126.061 25.9622 125.828 26.4962 125.358 26.92C124.887 27.3438 124.307 27.5557 123.616 27.5557C123.116 27.5557 122.713 27.4455 122.412 27.2166C122.111 26.992 121.959 26.6869 121.959 26.3012C121.959 25.5299 122.518 25.1442 123.633 25.1442H126.061V25.3222Z" fill="#FF179C"/>
<path d="M30.0132 15.8417C28.2205 14.1083 26.2243 12.8284 24.0883 12.0401L23.4229 11.7943V17.0792L23.6772 17.2191C24.6054 17.7319 25.4742 18.3973 26.2625 19.2025C28.4154 21.4021 29.5046 24.1865 29.5046 27.4795C29.5046 30.8064 28.4112 33.612 26.2625 35.8285C24.1095 38.045 21.3971 39.1681 18.2016 39.1681C14.9383 39.1681 12.2132 38.0535 10.0942 35.8539C7.97513 33.6544 6.89866 30.836 6.89866 27.4795C6.89866 24.1568 7.9836 21.3597 10.1196 19.1771C10.9121 18.3676 11.7894 17.7022 12.7303 17.1894L12.9888 17.0496V11.752L12.3276 11.9893C10.145 12.7733 8.12346 14.0702 6.32228 15.8375C4.67366 17.4564 3.42343 19.2618 2.61395 21.1986C1.80448 23.1397 1.41033 25.2672 1.44424 27.5219V27.5303C1.39762 29.7892 1.77905 31.9168 2.58428 33.8578C3.38952 35.7988 4.63975 37.6 6.29684 39.219C7.95394 40.8379 9.79327 42.0585 11.7597 42.851C13.6499 43.6139 15.7139 43.9995 17.8838 43.9995C17.9728 43.9995 18.0618 43.9995 18.1508 43.9995C18.244 43.9995 18.333 43.9995 18.4262 43.9995C20.5792 43.9995 22.6304 43.6139 24.5249 42.851C26.4913 42.0585 28.3391 40.8337 30.0132 39.219C31.6872 37.6 32.9502 35.7946 33.7639 33.8578C34.5776 31.921 34.9633 29.7935 34.9166 27.5303C34.9633 25.2714 34.5776 23.1439 33.7639 21.2029C32.9502 19.2661 31.6872 17.4607 30.0132 15.8417Z" fill="#FF179C"/>
<path d="M33.6027 0C33.8442 0.178 33.9799 0.478909 34.0519 0.779813C34.1875 1.33924 34.1113 1.92833 33.8697 2.45386C33.8146 2.57676 33.751 2.69543 33.6874 2.80562C32.5813 4.65342 30.2843 4.68309 30.2843 4.68309H5.98732C5.98732 4.68309 3.69027 4.64918 2.58413 2.80562C2.51632 2.69543 2.45699 2.57676 2.4019 2.45386C2.16032 1.93257 2.08404 1.33924 2.21966 0.779813C2.29171 0.478909 2.42732 0.178 2.66889 0C2.66889 0 1.34661 0.372954 0.545612 1.96224C-0.412195 3.85666 -0.0901007 6.17913 1.36356 7.72604C2.21966 8.63722 3.57585 9.41703 5.70336 9.41279H6.19074L15.5103 9.41703V33.091H20.7655V9.42127L30.0851 9.41703H30.5725C32.7 9.42127 34.0562 8.64146 34.9122 7.73027C36.3659 6.18337 36.688 3.8609 35.7302 1.96647C34.925 0.372951 33.6027 0 33.6027 0Z" fill="#FF179C"/>
<path d="M77.9033 40.3126V36.5576H79.3146C79.7087 36.5576 80.0351 36.6678 80.2851 36.8924C80.5394 37.117 80.6665 37.4095 80.6665 37.7697C80.6665 38.1257 80.5394 38.4181 80.2851 38.647C80.0308 38.8758 79.7087 38.9903 79.3146 38.9903H78.6704V40.3168H77.9033V40.3126ZM78.6704 38.3164H79.3146C79.4926 38.3164 79.6324 38.2656 79.7342 38.1639C79.8359 38.0621 79.8867 37.9308 79.8867 37.7697C79.8867 37.6087 79.8359 37.4815 79.7299 37.384C79.624 37.2866 79.4884 37.2357 79.3188 37.2357H78.6746V38.3164H78.6704Z" fill="#FF179C"/>
<path d="M82.6113 40.3122V36.5615H83.3784V39.6214H85.0228V40.3122H82.6113Z" fill="#FF179C"/>
<path d="M89.3469 40.313L89.135 39.8256H87.6008L87.3889 40.313H86.5625L88.2408 36.4902H88.4951L90.1691 40.313H89.3469ZM88.868 39.1941L88.3679 37.9269L87.8678 39.1941H88.868Z" fill="#FF179C"/>
<path d="M94.5509 36.5615L93.2583 38.8331V40.3122H92.4912V38.8416L91.1943 36.5615H92.0504L92.8769 38.0491L93.7033 36.5615H94.5509Z" fill="#FF179C"/>
</svg>
