<svg width="47" height="56" viewBox="0 0 47 56" fill="none" xmlns="http://www.w3.org/2000/svg">
<path d="M38.2008 20.1628C35.9213 17.9557 33.3841 16.3275 30.6614 15.3235L29.8157 15.0114V21.7412L30.1413 21.9221C31.3217 22.5734 32.4298 23.4236 33.4338 24.4458C36.1746 27.2453 37.5631 30.7911 37.5631 34.9792C37.5631 39.2079 36.1746 42.7854 33.4338 45.603C30.6931 48.4206 27.2423 49.8498 23.1763 49.8498C19.0245 49.8498 15.5556 48.4297 12.86 45.6347C10.16 42.8351 8.79414 39.2486 8.79414 34.9792C8.79414 30.7504 10.1736 27.1956 12.8917 24.4141C13.8957 23.3875 15.0174 22.5372 16.2159 21.8859L16.5461 21.7095V14.9707L15.7048 15.2737C12.9279 16.2732 10.359 17.9195 8.06598 20.1673C5.96744 22.2251 4.37997 24.5227 3.3488 26.9921C2.31762 29.4615 1.8156 32.166 1.8563 35.0334V35.0425C1.79751 37.9144 2.28596 40.6235 3.30809 43.0929C4.33022 45.5623 5.92222 47.8553 8.03432 49.9131C10.1464 51.971 12.4847 53.5268 14.9857 54.5353C17.3918 55.5077 20.015 55.9962 22.7783 55.9962C22.8914 55.9962 23.0045 55.9962 23.1175 55.9962H23.1221C23.2397 55.9962 23.3527 56.0007 23.4703 56.0007C26.2111 56.0007 28.8207 55.5077 31.2268 54.5353C33.7323 53.5268 36.0796 51.971 38.2098 49.9131C40.34 47.8553 41.9456 45.5578 42.9813 43.0884C44.017 40.6235 44.51 37.9144 44.4512 35.038C44.51 32.1615 44.017 29.4524 42.9813 26.9875C41.9365 24.5181 40.331 22.2206 38.2008 20.1628Z" fill="#ED3093"/>
<path d="M7.26502 11.9806H7.88463L19.7432 11.9897V42.1154H26.4277V11.9897L38.2863 11.9806H38.9059C41.615 11.9852 43.3381 10.9902 44.4281 9.83236C46.2779 7.86499 46.6895 4.91166 45.4683 2.50106C44.4462 0.474884 42.7637 0 42.7637 0C43.0713 0.226135 43.2431 0.610563 43.3336 0.99047C43.5055 1.70054 43.4105 2.45131 43.1029 3.11614C43.0306 3.27444 42.9537 3.41916 42.8678 3.55937C41.4612 5.90665 38.535 5.94736 38.535 5.94736H7.62684C7.62684 5.94736 4.70517 5.90665 3.29409 3.55937C3.21268 3.41916 3.13127 3.26992 3.05891 3.11614C2.75136 2.45131 2.65639 1.70054 2.82825 0.99047C2.92323 0.610563 3.09057 0.226135 3.39811 0C3.39811 0 1.71566 0.474884 0.693531 2.50106C-0.523077 4.91166 -0.116033 7.86499 1.73375 9.83236C2.83277 10.9902 4.55592 11.9806 7.26502 11.9806Z" fill="#ED3093"/>
</svg>
