<svg width="20" height="20" viewBox="0 0 20 20" fill="none" xmlns="http://www.w3.org/2000/svg">
<mask id="mask0_1073_24078" style="mask-type:alpha" maskUnits="userSpaceOnUse" x="0" y="0" width="20" height="20">
<rect width="20" height="20" fill="#D9D9D9"/>
</mask>
<g mask="url(#mask0_1073_24078)">
<path d="M2 16V14.5057C2 14.083 2.10298 13.7208 2.30894 13.4189C2.51433 13.117 2.78723 12.8755 3.12766 12.6943C3.86525 12.317 4.59943 12.019 5.33021 11.8005C6.06043 11.5813 6.93617 11.4717 7.95745 11.4717C8.97872 11.4717 9.85475 11.5813 10.5855 11.8005C11.3157 12.019 12.0496 12.317 12.7872 12.6943C13.1277 12.8755 13.4009 13.117 13.6068 13.4189C13.8122 13.7208 13.9149 14.083 13.9149 14.5057V16H2ZM15.617 16V14.4604C15.617 13.9321 15.5177 13.434 15.3191 12.966C15.1206 12.4981 14.8369 12.0981 14.4681 11.766C14.8794 11.8566 15.2803 11.9849 15.6706 12.1509C16.0604 12.317 16.4468 12.4981 16.8298 12.6943C17.1986 12.8906 17.486 13.1432 17.6919 13.4524C17.8973 13.7621 18 14.0981 18 14.4604V16H15.617ZM7.95745 9.43396C7.24823 9.43396 6.64539 9.16981 6.14894 8.64151C5.65248 8.11321 5.40426 7.4717 5.40426 6.71698C5.40426 5.97736 5.65248 5.33947 6.14894 4.80332C6.64539 4.26777 7.24823 4 7.95745 4C8.65248 4 9.25192 4.26777 9.75575 4.80332C10.259 5.33947 10.5106 5.97736 10.5106 6.71698C10.5106 7.4717 10.259 8.11321 9.75575 8.64151C9.25192 9.16981 8.65248 9.43396 7.95745 9.43396ZM14.1489 6.71698C14.1489 7.4717 13.8973 8.11321 13.394 8.64151C12.8902 9.16981 12.2908 9.43396 11.5957 9.43396C11.5532 9.43396 11.5035 9.43034 11.4468 9.42309C11.3901 9.41525 11.3475 9.41132 11.3192 9.41132C11.6028 9.03396 11.8227 8.61494 11.9787 8.15426C12.1348 7.69419 12.2128 7.21509 12.2128 6.71698C12.2128 6.23396 12.1311 5.76604 11.9677 5.31321C11.8048 4.86038 11.5887 4.43774 11.3192 4.04528C11.3617 4.03019 11.4043 4.01872 11.4468 4.01087C11.4894 4.00362 11.539 4 11.5957 4C12.2908 4 12.8902 4.26777 13.394 4.80332C13.8973 5.33947 14.1489 5.97736 14.1489 6.71698ZM2.85106 15.0943H13.0638V14.5057C13.0638 14.2943 13.0142 14.1096 12.9149 13.9514C12.8156 13.7926 12.6383 13.6377 12.383 13.4868C11.7447 13.1245 11.0746 12.8492 10.3728 12.6608C9.67035 12.4718 8.86525 12.3774 7.95745 12.3774C7.04965 12.3774 6.24482 12.4718 5.54298 12.6608C4.84057 12.8492 4.17021 13.1245 3.53192 13.4868C3.2766 13.6377 3.09929 13.7926 3 13.9514C2.90071 14.1096 2.85106 14.2943 2.85106 14.5057V15.0943ZM7.95745 8.5283C8.42553 8.5283 8.82638 8.35079 9.16 7.99577C9.49305 7.64136 9.65957 7.21509 9.65957 6.71698C9.65957 6.21887 9.49305 5.7926 9.16 5.43819C8.82638 5.08317 8.42553 4.90566 7.95745 4.90566C7.48936 4.90566 7.08879 5.08317 6.75574 5.43819C6.42213 5.7926 6.25532 6.21887 6.25532 6.71698C6.25532 7.21509 6.42213 7.64136 6.75574 7.99577C7.08879 8.35079 7.48936 8.5283 7.95745 8.5283Z" fill="white"/>
</g>
</svg>
