<svg width="20" height="20" viewBox="0 0 20 20" fill="none" xmlns="http://www.w3.org/2000/svg">
<mask id="mask0_746_27269" style="mask-type:alpha" maskUnits="userSpaceOnUse" x="0" y="0" width="20" height="20">
<rect width="20" height="20" fill="#D9D9D9"/>
</mask>
<g mask="url(#mask0_746_27269)">
<path d="M10 18C8.88889 18 7.8483 17.789 6.87822 17.3671C5.90756 16.9446 5.06311 16.3739 4.34489 15.6551C3.62607 14.9369 3.05541 14.0924 2.63289 13.1218C2.21096 12.1517 2 11.1111 2 10C2 8.88889 2.21096 7.848 2.63289 6.87733C3.05541 5.90726 3.62607 5.06281 4.34489 4.344C5.06311 3.62578 5.90756 3.05541 6.87822 2.63289C7.8483 2.21096 8.88889 2 10 2C11.1111 2 12.152 2.21096 13.1227 2.63289C14.0927 3.05541 14.9372 3.62578 15.656 4.344C16.3742 5.06281 16.9446 5.90726 17.3671 6.87733C17.789 7.848 18 8.88889 18 10C18 11.1111 17.789 12.1517 17.3671 13.1218C16.9446 14.0924 16.3742 14.9369 15.656 15.6551C14.9372 16.3739 14.0927 16.9446 13.1227 17.3671C12.152 17.789 11.1111 18 10 18ZM9.11111 17.0667V15.3333C8.62222 15.3333 8.20385 15.1594 7.856 14.8116C7.50756 14.4631 7.33333 14.0444 7.33333 13.5556V12.6667L3.06667 8.4C3.02222 8.66667 2.98133 8.93333 2.944 9.2C2.90726 9.46667 2.88889 9.73333 2.88889 10C2.88889 11.7926 3.47793 13.363 4.656 14.7111C5.83348 16.0593 7.31852 16.8444 9.11111 17.0667ZM15.2444 14.8C15.5407 14.4741 15.8074 14.1221 16.0444 13.744C16.2815 13.3665 16.4779 12.9739 16.6338 12.5662C16.789 12.1591 16.9076 11.7407 16.9893 11.3111C17.0705 10.8815 17.1111 10.4444 17.1111 10C17.1111 8.53333 16.7111 7.19615 15.9111 5.98844C15.1111 4.78133 14.0296 3.91111 12.6667 3.37778V3.77778C12.6667 4.26667 12.4927 4.68504 12.1449 5.03289C11.7964 5.38133 11.3778 5.55556 10.8889 5.55556H9.11111V7.33333C9.11111 7.58519 9.02607 7.79615 8.856 7.96622C8.68533 8.13689 8.47407 8.22222 8.22222 8.22222H6.44444V10H11.7778C12.0296 10 12.2409 10.085 12.4116 10.2551C12.5816 10.4258 12.6667 10.637 12.6667 10.8889V13.5556H13.5556C13.9407 13.5556 14.2889 13.6702 14.6 13.8996C14.9111 14.1295 15.1259 14.4296 15.2444 14.8Z" fill="white"/>
</g>
</svg>
