<svg width="32" height="32" viewBox="0 0 32 32" fill="none" xmlns="http://www.w3.org/2000/svg">
<rect width="32" height="32" rx="8" fill="#FFD9E4"/>
<path fill-rule="evenodd" clip-rule="evenodd" d="M15.79 6.83398C18.1842 6.83398 20.4342 7.76482 22.1242 9.45565C25.6175 12.949 25.6175 18.6323 22.1242 22.1257C20.4117 23.839 18.1059 24.7457 15.77 24.7457C14.4967 24.7457 13.215 24.4765 12.0159 23.9215C11.6625 23.7798 11.3317 23.6465 11.0942 23.6465C10.8209 23.6482 10.4534 23.7748 10.0984 23.8973C9.37004 24.1473 8.46337 24.459 7.79254 23.7907C7.12421 23.1215 7.43254 22.2173 7.68087 21.4898C7.80337 21.1315 7.92921 20.7615 7.92921 20.4815C7.92921 20.2515 7.81837 19.9582 7.64837 19.5357C6.08754 16.1648 6.80921 12.1023 9.45671 9.45648C11.1467 7.76565 13.3959 6.83398 15.79 6.83398ZM15.7909 8.08398C13.73 8.08398 11.7942 8.88565 10.34 10.3407C8.06171 12.6173 7.44171 16.1132 8.79587 19.0407C8.99087 19.5232 9.17921 19.9932 9.17921 20.4815C9.17921 20.969 9.01171 21.4598 8.86421 21.8932C8.74254 22.2498 8.55837 22.7882 8.67671 22.9065C8.79254 23.0265 9.33421 22.8373 9.69171 22.7148C10.1209 22.5682 10.6075 22.3998 11.09 22.3965C11.5734 22.3965 12.0292 22.5798 12.5117 22.774C15.4675 24.1407 18.9634 23.519 21.2409 21.2423C24.2459 18.2357 24.2459 13.3448 21.2409 10.3398C19.7859 8.88482 17.8509 8.08398 15.7909 8.08398ZM19.08 15.3029C19.54 15.3029 19.9133 15.6754 19.9133 16.1362C19.9133 16.5971 19.54 16.9696 19.08 16.9696C18.62 16.9696 18.2433 16.5971 18.2433 16.1362C18.2433 15.6754 18.6125 15.3029 19.0725 15.3029H19.08ZM15.7393 15.3029C16.1993 15.3029 16.5726 15.6754 16.5726 16.1362C16.5726 16.5971 16.1993 16.9696 15.7393 16.9696C15.2793 16.9696 14.9026 16.5971 14.9026 16.1362C14.9026 15.6754 15.271 15.3029 15.7318 15.3029H15.7393ZM12.3983 15.3029C12.8583 15.3029 13.2316 15.6754 13.2316 16.1362C13.2316 16.5971 12.8583 16.9696 12.3983 16.9696C11.9383 16.9696 11.5616 16.5971 11.5616 16.1362C11.5616 15.6754 11.9308 15.3029 12.3908 15.3029H12.3983Z" fill="#B7006E"/>
</svg>
