<svg width="28" height="28" viewBox="0 0 28 28" fill="none" xmlns="http://www.w3.org/2000/svg">
<path d="M20.5458 0H7.46667C2.70044 0 0 2.70044 0 7.46667V20.5333C0 25.2996 2.70044 28 7.46667 28H20.5458C25.312 28 28 25.2996 28 20.5333V7.46667C28 2.70044 25.312 0 20.5458 0Z" fill="#FF179C"/>
<path fill-rule="evenodd" clip-rule="evenodd" d="M14.4107 17.7615C14.4107 18.3216 14.4107 18.8729 14.4107 19.4419C14.5952 19.4419 14.7729 19.4419 14.951 19.4419C15.1255 19.4419 15.3001 19.4381 15.4746 19.4428C15.7376 19.4501 15.9387 19.6517 15.9535 19.9152C15.9669 20.1529 15.7813 20.381 15.5305 20.4054C15.3286 20.4249 15.1241 20.4162 14.9207 20.4182C14.7566 20.4197 14.5926 20.4185 14.4134 20.4185C14.4102 20.4799 14.4055 20.5314 14.4052 20.5826C14.4043 20.8831 14.4081 21.184 14.4038 21.4845C14.3991 21.7946 14.1998 22.0003 13.913 22C13.6296 21.9997 13.4295 21.7853 13.4289 21.479C13.428 21.131 13.4286 20.7834 13.4286 20.4185C13.275 20.4185 13.1359 20.42 12.9968 20.4182C12.7595 20.4153 12.5206 20.4267 12.2855 20.4022C12.0249 20.3752 11.8684 20.1553 11.8852 19.8853C11.9004 19.6426 12.1066 19.4451 12.3574 19.4425C12.7062 19.4387 13.055 19.4416 13.4166 19.4416C13.4166 18.8801 13.4166 18.3256 13.4166 17.7607C11.5524 17.4866 10.163 16.5283 9.43274 14.7673C8.70427 13.0108 9.00101 11.356 10.1443 9.81495C10.0501 9.72448 9.94418 9.6276 9.84323 9.52549C9.7449 9.42599 9.65181 9.32126 9.53689 9.1982C9.37688 9.36693 9.23608 9.51967 9.09003 9.66746C8.87068 9.88972 8.56172 9.90514 8.36709 9.7076C8.16344 9.50105 8.1742 9.21041 8.3956 8.9832C8.53757 8.83745 8.68187 8.69403 8.825 8.54915C8.82791 8.54624 8.82849 8.54071 8.82733 8.54362C8.54775 8.26637 8.27021 7.99145 7.99296 7.71652C7.99092 7.7334 7.98394 7.76802 7.98365 7.80293C7.98278 8.04061 7.98627 8.278 7.98249 8.51569C7.97812 8.80225 7.77477 9.01462 7.50653 9.02044C7.23947 9.02626 7.01109 8.82232 7.00702 8.53925C6.99771 7.85093 6.99742 7.16231 7.0076 6.4737C7.01196 6.18743 7.22638 6.00095 7.51003 6.00065C8.1742 5.99978 8.83867 5.99978 9.50285 6.00065C9.80629 6.00095 10.0178 6.1915 10.0251 6.46817C10.0323 6.74891 9.83974 6.95867 9.53805 6.97205C9.26371 6.98427 8.98821 6.97467 8.70369 6.97467C8.99374 7.25919 9.27128 7.53179 9.57588 7.83115C9.71552 7.68278 9.86884 7.51026 10.0332 7.34879C10.1825 7.20246 10.4079 7.17511 10.5863 7.26443C10.7652 7.35432 10.8842 7.54284 10.8487 7.74096C10.8286 7.85297 10.7701 7.97166 10.6948 8.0569C10.5516 8.21866 10.3835 8.35888 10.2229 8.51074C10.4469 8.72719 10.6476 8.92095 10.8423 9.10859C12.8764 7.67696 14.9199 7.6723 16.9674 9.09114C17.5606 8.49678 18.1645 7.89195 18.7743 7.28101C18.6061 7.28101 18.4255 7.28101 18.2448 7.28101C18.1479 7.28101 18.0508 7.28188 17.9539 7.28072C17.6781 7.27752 17.4742 7.07707 17.4707 6.8068C17.4675 6.53566 17.6636 6.32067 17.9385 6.3166C18.404 6.30932 18.8694 6.3134 19.3349 6.3134C19.558 6.3134 19.7812 6.30962 20.004 6.31631C20.283 6.32474 20.4858 6.51472 20.4893 6.79284C20.4974 7.47651 20.4969 8.16018 20.4899 8.84385C20.487 9.12867 20.2682 9.33377 19.9982 9.33289C19.7247 9.33202 19.5159 9.11412 19.5135 8.82203C19.5112 8.55642 19.513 8.29051 19.513 8.03596C18.9113 8.63962 18.3091 9.24387 17.7101 9.8455C18.8232 11.3406 19.1327 12.9965 18.4013 14.7624C17.6723 16.5216 16.2889 17.4788 14.4107 17.7615ZM17.8023 12.9081C17.7977 10.7549 16.0571 9.01753 13.9083 9.02102C11.745 9.02451 10.0094 10.7759 10.0291 12.9665C10.0486 15.1202 11.8515 16.8405 13.9959 16.796C16.0914 16.7526 17.809 15.0245 17.8023 12.9081Z" fill="white"/>
</svg>
