<svg width="32" height="32" viewBox="0 0 32 32" fill="none" xmlns="http://www.w3.org/2000/svg">
<path d="M23.4809 0H8.53333C3.08622 0 0 3.08622 0 8.53333V23.4667C0 28.9138 3.08622 32 8.53333 32H23.4809C28.928 32 32 28.9138 32 23.4667V8.53333C32 3.08622 28.928 0 23.4809 0Z" fill="#FF179C"/>
<path fill-rule="evenodd" clip-rule="evenodd" d="M16.4568 20.1797C16.4568 20.802 16.4568 21.4145 16.4568 22.0468C16.6617 22.0468 16.8593 22.0468 17.0571 22.0468C17.251 22.0468 17.445 22.0426 17.6389 22.0478C17.9311 22.0558 18.1545 22.2798 18.171 22.5727C18.1859 22.8368 17.9796 23.0902 17.701 23.1174C17.4767 23.139 17.2494 23.1293 17.0235 23.1316C16.8411 23.1332 16.6588 23.1319 16.4597 23.1319C16.4562 23.2001 16.451 23.2573 16.4507 23.3142C16.4497 23.6482 16.4539 23.9824 16.449 24.3163C16.4439 24.6609 16.2225 24.8894 15.9037 24.8891C15.5889 24.8888 15.3665 24.6505 15.3658 24.3102C15.3649 23.9236 15.3655 23.5373 15.3655 23.1319C15.1948 23.1319 15.0403 23.1335 14.8858 23.1316C14.622 23.1284 14.3567 23.141 14.0955 23.1138C13.8058 23.0838 13.6319 22.8394 13.6507 22.5394C13.6675 22.2698 13.8967 22.0503 14.1753 22.0474C14.5629 22.0432 14.9505 22.0465 15.3523 22.0465C15.3523 21.4226 15.3523 20.8065 15.3523 20.1787C13.2809 19.8742 11.7371 18.8094 10.9257 16.8528C10.1163 14.9011 10.446 13.0624 11.7164 11.3502C11.6116 11.2496 11.494 11.142 11.3818 11.0285C11.2725 10.918 11.1691 10.8016 11.0414 10.6649C10.8636 10.8524 10.7072 11.0221 10.5449 11.1863C10.3012 11.4332 9.9579 11.4504 9.74164 11.2309C9.51537 11.0014 9.52733 10.6785 9.77332 10.426C9.93107 10.2641 10.0914 10.1047 10.2504 9.94371C10.2537 9.94048 10.2543 9.93434 10.253 9.93757C9.94238 9.62951 9.634 9.32404 9.32594 9.01857C9.32368 9.03732 9.31592 9.07579 9.3156 9.11458C9.31463 9.37867 9.31851 9.64244 9.31431 9.90654C9.30946 10.2249 9.08351 10.4609 8.78547 10.4674C8.48873 10.4738 8.23498 10.2472 8.23046 9.93272C8.22011 9.16792 8.21979 8.40279 8.2311 7.63766C8.23595 7.31958 8.47418 7.11238 8.78935 7.11206C9.52733 7.11109 10.2656 7.11109 11.0036 7.11206C11.3408 7.11238 11.5758 7.32411 11.5838 7.63152C11.5919 7.94345 11.3779 8.17651 11.0427 8.19138C10.7379 8.20496 10.4318 8.19429 10.1156 8.19429C10.4379 8.51043 10.7463 8.81331 11.0847 9.14594C11.2399 8.98108 11.4103 8.78939 11.5929 8.60999C11.7587 8.44739 12.0092 8.41701 12.2074 8.51625C12.4062 8.61613 12.5384 8.8256 12.499 9.04573C12.4766 9.17018 12.4117 9.30206 12.328 9.39678C12.1689 9.5765 11.9821 9.73231 11.8036 9.90104C12.0525 10.1415 12.2756 10.3568 12.4918 10.5653C14.752 8.97461 17.0225 8.96944 19.2975 10.5459C19.9566 9.88553 20.6277 9.21349 21.3052 8.53467C21.1184 8.53467 20.9176 8.53467 20.7169 8.53467C20.6093 8.53467 20.5013 8.53564 20.3936 8.53435C20.0872 8.53079 19.8606 8.30807 19.8567 8.00778C19.8532 7.70651 20.071 7.46763 20.3765 7.4631C20.8937 7.45502 21.4109 7.45955 21.9281 7.45955C22.176 7.45955 22.424 7.45535 22.6716 7.46278C22.9816 7.47215 23.2069 7.68324 23.2108 7.99226C23.2198 8.75189 23.2192 9.51153 23.2114 10.2712C23.2082 10.5876 22.9651 10.8155 22.6651 10.8145C22.3613 10.8136 22.1292 10.5715 22.1266 10.2469C22.124 9.95179 22.1259 9.65634 22.1259 9.3735C21.4575 10.0442 20.7883 10.7156 20.1228 11.3841C21.3595 13.0453 21.7035 14.8852 20.8908 16.8473C20.0807 18.802 18.5437 19.8655 16.4568 20.1797ZM20.2252 14.7869C20.2201 12.3946 18.2861 10.4641 15.8986 10.468C13.4949 10.4719 11.5664 12.4179 11.5884 14.8519C11.61 17.2449 13.6132 19.1563 15.9959 19.1068C18.3242 19.0587 20.2327 17.1386 20.2252 14.7869Z" fill="white"/>
</svg>
