<svg width="28" height="28" viewBox="0 0 28 28" fill="none" xmlns="http://www.w3.org/2000/svg">
<path d="M20.5458 0H7.46667C2.70044 0 0 2.70044 0 7.46667V20.5333C0 25.2996 2.70044 28 7.46667 28H20.5458C25.312 28 28 25.2996 28 20.5333V7.46667C28 2.70044 25.312 0 20.5458 0Z" fill="#FF179C"/>
<path d="M16.6667 11.55H18C18 9.5641 16.1633 8.6583 14.6667 8.4497V7H13.3333V8.4497C11.8367 8.6583 10 9.5641 10 11.55C10 13.4442 11.7773 14.4291 13.3333 14.651V18.13C12.368 17.9543 11.3333 17.4132 11.3333 16.45H10C10 18.2623 11.6167 19.3333 13.3333 19.5552V21H14.6667V19.551C16.1633 19.3424 18 18.4359 18 16.45C18 14.4641 16.1633 13.5583 14.6667 13.3497V9.87C15.5533 10.0373 16.6667 10.5287 16.6667 11.55ZM11.3333 11.55C11.3333 10.5287 12.4467 10.0373 13.3333 9.87V13.2293C12.4193 13.0522 11.3333 12.5279 11.3333 11.55ZM16.6667 16.45C16.6667 17.4713 15.5533 17.9627 14.6667 18.13V14.77C15.5533 14.9373 16.6667 15.4287 16.6667 16.45Z" fill="white"/>
</svg>
