<svg width="28" height="28" viewBox="0 0 28 28" fill="none" xmlns="http://www.w3.org/2000/svg">
<path d="M20.5458 0H7.46667C2.70044 0 0 2.70044 0 7.46667V20.5333C0 25.2996 2.70044 28 7.46667 28H20.5458C25.312 28 28 25.2996 28 20.5333V7.46667C28 2.70044 25.312 0 20.5458 0Z" fill="#D19C97"/>
<path fill-rule="evenodd" clip-rule="evenodd" d="M13.8124 8.375C13.7442 8.375 13.5762 8.39375 13.4869 8.57225L12.1174 11.3105C11.9007 11.7432 11.4829 12.044 10.9999 12.113L7.93394 12.5547C7.73144 12.584 7.66244 12.734 7.64144 12.797C7.62269 12.8577 7.59269 13.0122 7.73219 13.1458L9.94919 15.2758C10.3024 15.6155 10.4629 16.1053 10.3789 16.5845L9.85694 19.592C9.82469 19.7802 9.94244 19.8897 9.99494 19.9272C10.0504 19.9692 10.1989 20.0525 10.3827 19.9565L13.1239 18.5353C13.5559 18.3125 14.0704 18.3125 14.5009 18.5353L17.2414 19.9557C17.4259 20.051 17.5744 19.9677 17.6307 19.9272C17.6832 19.8897 17.8009 19.7802 17.7687 19.592L17.2452 16.5845C17.1612 16.1053 17.3217 15.6155 17.6749 15.2758L19.8919 13.1458C20.0322 13.0122 20.0022 12.857 19.9827 12.797C19.9624 12.734 19.8934 12.584 19.6909 12.5547L16.6249 12.113C16.1427 12.044 15.7249 11.7432 15.5082 11.3098L14.1372 8.57225C14.0487 8.39375 13.8807 8.375 13.8124 8.375ZM10.2102 21.125C9.90044 21.125 9.59294 21.0275 9.32969 20.8355C8.87519 20.5025 8.65244 19.9527 8.74919 19.3993L9.27119 16.3918C9.29069 16.28 9.25244 16.1667 9.16994 16.0872L6.95294 13.9572C6.54494 13.5665 6.39869 12.989 6.57119 12.4528C6.74519 11.9105 7.20569 11.5227 7.77344 11.4417L10.8394 11C10.9579 10.9835 11.0599 10.9107 11.1109 10.8073L12.4812 8.06825C12.7339 7.5635 13.2439 7.25 13.8124 7.25C14.3809 7.25 14.8909 7.5635 15.1437 8.06825L16.5147 10.8065C16.5664 10.9108 16.6677 10.9835 16.7854 11L19.8514 11.4417C20.4192 11.5227 20.8797 11.9105 21.0537 12.4528C21.2262 12.989 21.0792 13.5665 20.6712 13.9572L18.4542 16.0872C18.3717 16.1667 18.3342 16.28 18.3537 16.391L18.8764 19.3993C18.9724 19.9535 18.7497 20.5033 18.2944 20.8355C17.8332 21.1737 17.2324 21.2195 16.7232 20.954L13.9834 19.5343C13.8762 19.4788 13.7479 19.4788 13.6407 19.5343L10.9009 20.9548C10.6819 21.0688 10.4457 21.125 10.2102 21.125Z" fill="white"/>
</svg>
