<svg width="24" height="24" viewBox="0 0 24 24" fill="none" xmlns="http://www.w3.org/2000/svg">
<mask id="mask0_900_26992" style="mask-type:alpha" maskUnits="userSpaceOnUse" x="0" y="0" width="24" height="24">
<rect width="24" height="24" fill="#D9D9D9"/>
</mask>
<g mask="url(#mask0_900_26992)">
<path d="M3.5 21.375V2.625L4.875 3.85L6.3 2.625L7.725 3.85L9.15 2.625L10.575 3.85L12 2.625L13.425 3.85L14.85 2.625L16.275 3.85L17.7 2.625L19.125 3.85L20.5 2.625V21.375L19.125 20.15L17.7 21.375L16.275 20.15L14.85 21.375L13.425 20.15L12 21.375L10.575 20.15L9.15 21.375L7.725 20.15L6.3 21.375L4.875 20.15L3.5 21.375ZM6.25 16.45H17.75V14.95H6.25V16.45ZM6.25 12.75H17.75V11.25H6.25V12.75ZM6.25 9.05H17.75V7.55H6.25V9.05ZM5 19.1H19V4.9H5V19.1Z" fill="#379F00"/>
</g>
</svg>
