<svg width="20" height="20" viewBox="0 0 20 20" fill="none" xmlns="http://www.w3.org/2000/svg">
<path fill-rule="evenodd" clip-rule="evenodd" d="M9.78283 1.66602C14.2578 1.66602 17.8978 5.30602 17.8978 9.78102C17.8978 11.8923 17.0876 13.8179 15.7617 15.2631L18.3707 17.8666C18.6148 18.1108 18.6157 18.5058 18.3715 18.7499C18.2498 18.8733 18.089 18.9341 17.929 18.9341C17.7698 18.9341 17.6098 18.8733 17.4873 18.7516L14.8469 16.1185C13.4579 17.2309 11.6967 17.8969 9.78283 17.8969C5.30783 17.8969 1.66699 14.256 1.66699 9.78102C1.66699 5.30602 5.30783 1.66602 9.78283 1.66602ZM9.78283 2.91602C5.99699 2.91602 2.91699 5.99518 2.91699 9.78102C2.91699 13.5669 5.99699 16.6469 9.78283 16.6469C13.5678 16.6469 16.6478 13.5669 16.6478 9.78102C16.6478 5.99518 13.5678 2.91602 9.78283 2.91602Z" fill="#FF179C"/>
</svg>
