<svg width="32" height="32" viewBox="0 0 32 32" fill="none" xmlns="http://www.w3.org/2000/svg">
<path d="M23.4809 0H8.53333C3.08622 0 0 3.08622 0 8.53333V23.4667C0 28.9138 3.08622 32 8.53333 32H23.4809C28.928 32 32 28.9138 32 23.4667V8.53333C32 3.08622 28.928 0 23.4809 0Z" fill="#FF179C"/>
<path fill-rule="evenodd" clip-rule="evenodd" d="M23.0896 16.2822C22.5234 15.866 21.8454 15.6054 21.0726 15.5069V11.4458L21.3289 11.7029C21.5765 11.9514 21.8173 12.1926 22.0588 12.4337C22.1898 12.5643 22.3458 12.636 22.4988 12.636C22.6328 12.636 22.7559 12.5824 22.8558 12.4813C23.071 12.2626 23.0515 11.9393 22.8087 11.696C22.1289 11.0145 21.5217 10.4073 20.9525 9.83986C20.8198 9.70761 20.6807 9.64062 20.538 9.64062C20.395 9.64062 20.2545 9.70804 20.121 9.84158C19.5255 10.4358 18.9005 11.0603 18.2648 11.6978C18.0219 11.9411 18.0038 12.2639 18.2203 12.483C18.3201 12.5837 18.4437 12.6369 18.5786 12.6369C18.729 12.6369 18.8807 12.5686 19.006 12.4441C19.194 12.2574 19.3815 12.0703 19.5687 11.8827C19.6983 11.7531 19.828 11.6234 19.9581 11.4938C19.9728 11.4791 19.9892 11.4652 20.0069 11.4501V15.5052L19.9533 15.5147C19.8984 15.5246 19.8457 15.5337 19.793 15.5428C18.6564 15.7308 17.6135 16.3859 16.9324 17.3402C16.2561 18.2875 15.9868 19.4237 16.1744 20.54C16.4856 22.3923 17.5651 23.6166 19.3828 24.178C19.5453 24.2281 19.7152 24.2597 19.8794 24.2899C19.9546 24.3037 20.0328 24.3184 20.1085 24.3344L20.1123 24.3353H20.9624C20.9624 24.3353 21.0117 24.3258 21.0346 24.321C21.0839 24.3111 21.1336 24.3012 21.1833 24.2929C23.2205 23.9615 24.7327 22.3897 24.9466 20.3814C25.126 18.6994 24.501 17.3203 23.0896 16.2822ZM20.538 16.4879V16.5247C21.4465 16.5247 22.3026 16.8812 22.9491 17.5282C23.5866 18.1665 23.9371 19.0066 23.9362 19.8939C23.9345 21.7652 22.4106 23.289 20.5372 23.2903C19.6439 23.2903 18.7998 22.9346 18.1611 22.289C17.5219 21.6433 17.1701 20.7911 17.171 19.8891C17.1727 18.0351 18.6823 16.5255 20.5363 16.5247L20.538 16.4879Z" fill="white"/>
<path fill-rule="evenodd" clip-rule="evenodd" d="M16.4513 11.3496C16.1228 9.58032 15.0675 8.39834 13.3133 7.83738C13.1409 7.78206 12.9598 7.74878 12.7843 7.71637C12.7039 7.70168 12.621 7.68612 12.5402 7.66883L12.5363 7.66797H11.6857L11.6819 7.66883C11.6045 7.68526 11.525 7.69995 11.4481 7.71464C11.2804 7.74576 11.1071 7.77817 10.9416 7.8296C9.1528 8.38537 8.06502 9.60885 7.70891 11.4655C7.69897 11.5173 7.66699 11.6876 7.66699 11.6876V12.5398L7.66915 12.5454C7.67261 12.5554 7.67693 12.5658 7.68082 12.5757C7.6886 12.5943 7.69552 12.6116 7.69768 12.6276C7.84116 13.791 8.37878 14.7646 9.29541 15.5222C9.93935 16.0542 10.7077 16.3823 11.5799 16.4964V19.3677L10.7704 19.3673C10.5811 19.3673 10.3923 19.3673 10.2034 19.3677C10.0366 19.3681 9.88878 19.4247 9.78722 19.5276C9.69258 19.6235 9.64331 19.7515 9.64504 19.8971C9.6485 20.1992 9.87711 20.411 10.2017 20.4118C10.3724 20.4123 10.5431 20.4123 10.7142 20.4123L11.5898 20.4118C11.5898 20.5484 11.5898 20.6837 11.5894 20.8172C11.5889 21.1638 11.5885 21.4914 11.5902 21.8242C11.592 22.1275 11.8163 22.3562 12.1119 22.3562H12.1132C12.4127 22.3557 12.6318 22.131 12.6335 21.8216C12.6352 21.5497 12.6348 21.2736 12.6344 21.0061C12.6344 20.8889 12.6339 20.4114 12.6339 20.4114L13.5203 20.4118C13.688 20.4118 13.8561 20.4118 14.0238 20.411C14.3479 20.4101 14.5757 20.197 14.5778 19.8936C14.5787 19.7484 14.5299 19.6218 14.4361 19.5272C14.3345 19.4247 14.1859 19.3677 14.0164 19.3668C13.94 19.3664 13.8639 19.3664 13.7874 19.3664L12.643 19.3668V16.4942C13.8522 16.3442 14.9586 15.6951 15.6799 14.7124C16.3986 13.7352 16.6721 12.5407 16.4513 11.3496ZM14.4879 9.7143C15.1271 10.36 15.4785 11.2122 15.4776 12.1141C15.4763 13.9686 13.9663 15.4782 12.1101 15.479C11.2082 15.479 10.3564 15.1264 9.71116 14.4868C9.06593 13.8471 8.71112 13.0027 8.71241 12.1094C8.71414 10.2385 10.238 8.71512 12.1093 8.71382L12.1119 8.67709V8.71382C13.0052 8.71339 13.8492 9.06907 14.4879 9.7143Z" fill="white"/>
</svg>
