<svg width="36" height="36" viewBox="0 0 36 36" fill="none" xmlns="http://www.w3.org/2000/svg">
<path fill-rule="evenodd" clip-rule="evenodd" d="M18.7254 3C20.4249 3 29.3424 6.0615 30.5229 7.242C31.5069 8.226 31.4919 9.021 31.4229 12.831C31.3959 14.358 31.3584 16.4385 31.3584 19.3185C31.3584 29.6415 19.5534 33.3345 19.0509 33.486C18.9444 33.519 18.8349 33.534 18.7254 33.534C18.6159 33.534 18.5064 33.519 18.3999 33.486C17.8974 33.3345 6.09243 29.6415 6.09243 19.3185C6.09243 16.443 6.05493 14.3625 6.02793 12.8355C6.01561 12.1543 6.00501 11.5695 6.00153 11.0626L6.0011 10.4906C6.01397 8.61169 6.19031 7.98 6.92943 7.242C8.10693 6.0615 17.0244 3 18.7254 3ZM18.7254 5.25C17.4534 5.25 9.42843 8.076 8.50293 8.8485C8.22993 9.123 8.21943 9.6 8.27793 12.7935C8.30493 14.3325 8.34243 16.4235 8.34243 19.3185C8.34243 27.12 16.9254 30.5835 18.7239 31.221C20.5209 30.5805 29.1084 27.0975 29.1084 19.3185C29.1084 16.4205 29.1459 14.328 29.1744 12.789C29.2314 9.5985 29.2209 9.1215 28.9314 8.8335C28.0239 8.076 19.9974 5.25 18.7254 5.25ZM24.3077 14.0092C24.7472 14.4487 24.7472 15.1613 24.3077 15.6007L18.4607 21.4493C18.2927 21.6185 18.0757 21.7281 17.8428 21.7652L17.6657 21.7792C17.3672 21.7792 17.0807 21.6608 16.8692 21.4493L14.0312 18.6083C13.5932 18.1688 13.5932 17.4547 14.0327 17.0167C14.4707 16.5772 15.1847 16.5772 15.6242 17.0167L17.6657 19.0613L22.7177 14.0092C23.1572 13.5697 23.8682 13.5697 24.3077 14.0092Z" fill="#FF179C"/>
</svg>
