<svg width="32" height="32" viewBox="0 0 32 32" fill="none" xmlns="http://www.w3.org/2000/svg">
<path d="M16.7613 2.79926L25.6112 5.76853C26.6019 6.09932 27.2717 7.00932 27.277 8.02915L27.3334 16.8834C27.3509 19.5676 26.3723 22.1708 24.5803 24.2104C23.7562 25.1466 22.6997 25.9507 21.3507 26.6698L16.5935 29.2128C16.4445 29.2913 16.2808 29.3318 16.1157 29.3331C15.9506 29.3344 15.7855 29.2952 15.6378 29.2181L10.8363 26.7339C9.47255 26.0265 8.40675 25.2342 7.57452 24.3111C5.75299 22.2924 4.74088 19.701 4.72343 17.0128L4.66702 8.16512C4.66169 7.14399 5.31942 6.22745 6.30468 5.88358L15.121 2.80841C15.6445 2.62275 16.2284 2.61882 16.7613 2.79926ZM20.9934 12.2914C20.5974 11.9109 19.9598 11.9135 19.5692 12.2992L15.0778 16.7263L13.2388 14.9586C12.8428 14.5781 12.2066 14.5821 11.8146 14.9678C11.424 15.3535 11.428 15.9732 11.824 16.3537L14.3785 18.8117C14.5771 19.0026 14.8348 19.0968 15.0926 19.0942C15.3503 19.0928 15.6067 18.9961 15.8027 18.8026L21.0014 13.6773C21.3921 13.2916 21.388 12.6719 20.9934 12.2914Z" fill="#2563EA"/>
</svg>
