<svg width="28" height="28" viewBox="0 0 28 28" fill="none" xmlns="http://www.w3.org/2000/svg">
<path d="M22.6206 18.6567C19.5093 17.1506 19.0134 14.8252 18.9913 14.6527C18.9646 14.4438 18.9343 14.2795 19.1648 14.067C19.3871 13.8617 20.3732 13.2513 20.6468 13.0604C21.0991 12.7442 21.2982 12.4285 21.1514 12.0404C21.0487 11.7719 20.7988 11.6708 20.5354 11.6708C20.4523 11.671 20.3696 11.6803 20.2885 11.6985C19.7916 11.8063 19.3091 12.0553 19.0298 12.1225C18.9963 12.1312 18.9618 12.1358 18.9271 12.1364C18.7783 12.1364 18.7218 12.0702 18.7362 11.891C18.7711 11.3479 18.845 10.2879 18.7593 9.29764C18.6417 7.93525 18.2023 7.26022 17.6813 6.66321C17.4292 6.37369 16.2588 5.12988 14.0002 5.12988C11.7415 5.12988 10.5726 6.37369 10.3221 6.65962C9.79956 7.25662 9.36066 7.93166 9.24413 9.29404C9.1584 10.2843 9.2354 11.3438 9.26723 11.8874C9.2775 12.0578 9.22514 12.1328 9.07627 12.1328C9.04163 12.1322 9.00717 12.1275 8.9736 12.1189C8.69486 12.0517 8.21233 11.8027 7.71542 11.6949C7.63437 11.6767 7.55158 11.6674 7.46851 11.6672C7.20414 11.6672 6.95518 11.7699 6.85251 12.0368C6.7057 12.4249 6.90384 12.7406 7.35763 13.0568C7.63124 13.2477 8.61735 13.8576 8.83962 14.0634C9.0696 14.2759 9.03982 14.4402 9.01313 14.6491C8.99106 14.8242 8.49466 17.1496 5.38386 18.6531C5.20163 18.7414 4.89158 18.9283 5.43828 19.2301C6.29657 19.7044 6.86791 19.6536 7.31194 19.9396C7.68873 20.1824 7.46594 20.706 7.74006 20.8949C8.07681 21.1274 9.07216 20.8784 10.3581 21.303C11.4361 21.6582 12.0911 22.6618 14.0027 22.6618C15.9144 22.6618 16.5884 21.6536 17.6474 21.303C18.9307 20.8784 19.9281 21.1274 20.2654 20.8949C20.539 20.706 20.3167 20.1824 20.6935 19.9396C21.1376 19.6536 21.7084 19.7044 22.5672 19.2301C23.1129 18.9319 22.8028 18.745 22.6206 18.6567Z" fill="white"/>
<path d="M23.9739 18.4798C23.8342 18.0999 23.5683 17.8966 23.2655 17.7282C23.2085 17.6949 23.1561 17.6682 23.1115 17.6476C23.0211 17.6009 22.9287 17.5558 22.8368 17.508C21.8928 17.0075 21.1557 16.3761 20.6444 15.6277C20.4992 15.417 20.3733 15.1936 20.2681 14.9603C20.2245 14.8356 20.2265 14.7648 20.2578 14.7001C20.2889 14.6503 20.33 14.6074 20.3785 14.5743C20.5407 14.467 20.708 14.3582 20.8215 14.2848C21.0237 14.1539 21.1839 14.0502 21.2871 13.9768C21.6746 13.7058 21.9457 13.4178 22.1151 13.0959C22.2333 12.8735 22.3022 12.6283 22.3172 12.3769C22.3321 12.1256 22.2928 11.8739 22.2018 11.6391C21.9452 10.9635 21.3071 10.5441 20.534 10.5441C20.371 10.544 20.2083 10.5612 20.0489 10.5955C20.0063 10.6047 19.9637 10.6145 19.9221 10.6252C19.9293 10.1632 19.919 9.67558 19.878 9.19561C19.7322 7.50828 19.1413 6.62381 18.5253 5.91849C18.1309 5.47651 17.6662 5.10258 17.1501 4.81174C16.2153 4.27788 15.1553 4.00684 13.9998 4.00684C12.8443 4.00684 11.7894 4.27788 10.8536 4.81174C10.3362 5.10266 9.87062 5.47734 9.47579 5.92054C8.85979 6.62586 8.26894 7.51188 8.12316 9.19766C8.08209 9.67763 8.07182 10.1679 8.0785 10.6273C8.03692 10.6165 7.99482 10.6068 7.95222 10.5975C7.7928 10.5632 7.63018 10.546 7.46712 10.5462C6.69352 10.5462 6.05442 10.9656 5.79878 11.6411C5.70741 11.8761 5.66768 12.1279 5.68229 12.3795C5.69691 12.6312 5.76552 12.8767 5.88348 13.0995C6.0534 13.4214 6.32444 13.7094 6.712 13.9804C6.81467 14.0523 6.97534 14.156 7.1776 14.2884C7.28694 14.3592 7.44658 14.4629 7.60315 14.5666C7.65793 14.602 7.70449 14.6488 7.7397 14.7037C7.77255 14.7709 7.77358 14.8433 7.72481 14.9768C7.62108 15.2052 7.49722 15.4238 7.3547 15.6302C6.85471 16.3617 6.13912 16.9818 5.22539 17.4782C4.74132 17.7349 4.23825 17.9064 4.02573 18.4839C3.86557 18.9197 3.97029 19.4156 4.37736 19.8334C4.52676 19.9894 4.70004 20.1206 4.8907 20.222C5.28739 20.44 5.70922 20.6088 6.14682 20.7246C6.23713 20.7479 6.32286 20.7862 6.40041 20.838C6.54876 20.9679 6.52772 21.1635 6.72535 21.4499C6.82456 21.5979 6.95061 21.7261 7.097 21.8277C7.51178 22.1142 7.97788 22.1321 8.47171 22.1511C8.9178 22.1681 9.42343 22.1876 10.0009 22.378C10.2401 22.4571 10.4886 22.61 10.7766 22.7887C11.468 23.2137 12.4146 23.7953 13.9988 23.7953C15.5829 23.7953 16.5362 23.2106 17.2328 22.7841C17.5187 22.6085 17.7656 22.4571 17.9982 22.3801C18.5757 22.1891 19.0813 22.1701 19.5274 22.1532C20.0212 22.1342 20.4873 22.1162 20.9021 21.8298C21.0754 21.7089 21.2199 21.5511 21.3251 21.3678C21.4673 21.126 21.4637 20.9571 21.5971 20.839C21.6699 20.7897 21.7504 20.7529 21.8353 20.7302C22.2789 20.6141 22.7065 20.4437 23.1084 20.223C23.3109 20.1144 23.4933 19.9716 23.6474 19.8011L23.6525 19.7949C24.0344 19.3863 24.1304 18.9048 23.9739 18.4798ZM22.5658 19.2364C21.707 19.7107 21.1362 19.6599 20.6921 19.9458C20.3148 20.1886 20.5381 20.7122 20.264 20.9011C19.9273 21.1337 18.9319 20.8847 17.646 21.3092C16.5855 21.6599 15.9089 22.668 14.0013 22.668C12.0938 22.668 11.4331 21.6619 10.3551 21.3067C9.0718 20.8822 8.07439 21.1311 7.73713 20.8986C7.46352 20.7097 7.6858 20.1861 7.30901 19.9433C6.86446 19.6573 6.29364 19.7082 5.43534 19.2364C4.88864 18.9346 5.1987 18.7477 5.38093 18.6594C8.49173 17.1533 8.98812 14.8279 9.0102 14.6554C9.03689 14.4465 9.06666 14.2822 8.83669 14.0697C8.61442 13.8644 7.6283 13.254 7.3547 13.0631C6.90194 12.7469 6.70276 12.4311 6.84958 12.0431C6.95224 11.7746 7.20275 11.6735 7.46558 11.6735C7.54864 11.6737 7.63143 11.683 7.71249 11.7012C8.2094 11.809 8.69193 12.058 8.97067 12.1252C9.00423 12.1338 9.03869 12.1385 9.07334 12.1391C9.2222 12.1391 9.27456 12.0641 9.2643 11.8937C9.23247 11.3501 9.15547 10.2906 9.2412 9.30033C9.35875 7.93794 9.79765 7.26291 10.3192 6.6659C10.5697 6.37895 11.7468 5.13514 13.9977 5.13514C16.2487 5.13514 17.4289 6.37382 17.6794 6.65974C18.2014 7.25675 18.6408 7.93178 18.7574 9.29417C18.8431 10.2844 18.7692 11.3444 18.7343 11.8875C18.7225 12.0667 18.7764 12.1329 18.9252 12.1329C18.9599 12.1323 18.9943 12.1277 19.0279 12.119C19.3072 12.0518 19.7897 11.8028 20.2866 11.695C20.3676 11.6769 20.4504 11.6676 20.5335 11.6673C20.7979 11.6673 21.0468 11.77 21.1495 12.0369C21.2963 12.425 21.0982 12.7407 20.6449 13.0569C20.3713 13.2479 19.3852 13.8577 19.1629 14.0635C18.9324 14.2761 18.9627 14.4403 18.9894 14.6493C19.0115 14.8243 19.5073 17.1497 22.6187 18.6533C22.8024 18.7452 23.1125 18.932 22.5658 19.2364Z" fill="black"/>
</svg>
