<svg width="28" height="28" viewBox="0 0 28 28" fill="none" xmlns="http://www.w3.org/2000/svg">
<path d="M19.611 2H8.40037C4.31503 2 2.00037 4.31467 2.00037 8.4V19.6C2.00037 23.6853 4.31503 26 8.40037 26H19.611C23.6964 26 26.0004 23.6853 26.0004 19.6V8.4C26.0004 4.31467 23.6964 2 19.611 2Z" fill="#2563EA"/>
<path fill-rule="evenodd" clip-rule="evenodd" d="M12.7522 19.4382C13.0883 19.8146 13.5197 20.0214 13.9673 20.0214C14.4169 20.0214 14.8509 19.8146 15.1876 19.4375C15.368 19.2372 15.6755 19.2209 15.8747 19.4016C16.0745 19.5824 16.0907 19.8922 15.911 20.0925C15.3868 20.6777 14.6972 21 13.968 21H13.9667C13.2394 20.9993 12.5511 20.6771 12.0289 20.0919C11.8492 19.8916 11.8654 19.5817 12.0652 19.4016C12.265 19.2203 12.5725 19.2366 12.7522 19.4382ZM13.9996 8C16.8834 8 18.8205 10.2586 18.8205 12.3678C18.8205 13.4527 19.095 13.9126 19.3862 14.4006C19.6743 14.8821 20.0006 15.4288 20.0006 16.4622C19.7742 19.1024 17.0332 19.3177 13.9996 19.3177C10.9661 19.3177 8.22445 19.1024 8.00062 16.5039C7.99868 15.4288 8.325 14.8821 8.61305 14.4006L8.71474 14.2285C8.96511 13.7958 9.17876 13.3251 9.17876 12.3678C9.17876 10.2586 11.1159 8 13.9996 8ZM13.9996 8.97859C11.7323 8.97859 10.1519 10.7648 10.1519 12.3678C10.1519 13.7241 9.77756 14.351 9.4467 14.9043C9.18136 15.3485 8.97181 15.6995 8.97181 16.4622C9.08015 17.6926 9.88785 18.3391 13.9996 18.3391C18.0887 18.3391 18.9217 17.6639 19.0294 16.4198C19.0275 15.6995 18.8179 15.3485 18.5526 14.9043C18.2217 14.351 17.8474 13.7241 17.8474 12.3678C17.8474 10.7648 16.267 8.97859 13.9996 8.97859Z" fill="white"/>
</svg>
