<svg width="28" height="28" viewBox="0 0 28 28" fill="none" xmlns="http://www.w3.org/2000/svg">
<path d="M8.49504 16.7658C8.60899 15.8224 8.99593 15.2941 9.72512 14.7526C10.7685 14.0192 12.0717 14.4341 12.0717 14.4341V11.973C12.3886 11.9649 12.7055 11.9837 13.0189 12.0291V15.1963C13.0189 15.1963 11.716 14.7814 10.6727 15.5152C9.94392 16.0563 9.55618 16.5849 9.44263 17.5284C9.43907 18.0407 9.53521 18.7104 9.97794 19.2895C9.86848 19.2333 9.75691 19.1694 9.64322 19.0976C8.66794 18.4427 8.49029 17.4602 8.49504 16.7658ZM18.4002 7.42253C17.6825 6.63605 17.4111 5.84199 17.3129 5.28418H18.2158C18.2158 5.28418 18.0358 6.74678 19.3478 8.18512L19.366 8.20446C19.0124 7.98203 18.6881 7.71949 18.4002 7.42253ZM22.7496 9.65227V12.7557C22.7496 12.7557 21.5975 12.7106 20.7448 12.4937C19.5543 12.1903 18.7891 11.725 18.7891 11.725C18.7891 11.725 18.2605 11.3932 18.2178 11.3701V17.7787C18.2178 18.1355 18.1201 19.0267 17.8221 19.7699C17.4332 20.7422 16.833 21.3804 16.7226 21.5109C16.7226 21.5109 15.9926 22.3735 14.7048 22.9545C13.544 23.4786 12.5248 23.4653 12.2201 23.4786C12.2201 23.4786 10.4583 23.5483 8.87289 22.518C8.53006 22.2909 8.21005 22.0337 7.91699 21.7498L7.92491 21.7554C9.51068 22.7857 11.2721 22.716 11.2721 22.716C11.5772 22.7027 12.5964 22.716 13.7568 22.1919C15.0435 21.611 15.7746 20.7483 15.7746 20.7483C15.8838 20.6178 16.4868 19.9796 16.8742 19.0069C17.1713 18.2641 17.2698 17.3726 17.2698 17.0157V10.6079C17.3125 10.6314 17.8407 10.9632 17.8407 10.9632C17.8407 10.9632 18.6063 11.4289 19.7968 11.7318C20.6499 11.9488 21.8016 11.9939 21.8016 11.9939V9.56202C22.1957 9.65038 22.5316 9.67427 22.7496 9.65227Z" fill="#FD355A"/>
<path d="M21.8024 9.56202V11.9931C21.8024 11.9931 20.6506 11.948 19.7976 11.7311C18.6071 11.4277 17.8415 10.9624 17.8415 10.9624C17.8415 10.9624 17.3133 10.6306 17.2706 10.6071V17.0165C17.2706 17.3733 17.1729 18.2648 16.8749 19.0077C16.486 19.9804 15.8858 20.6186 15.7754 20.749C15.7754 20.749 15.045 21.6117 13.7576 22.1927C12.5971 22.7167 11.5779 22.7035 11.2729 22.7167C11.2729 22.7167 9.51146 22.7865 7.92568 21.7562L7.91777 21.7505C7.75035 21.5884 7.59275 21.4172 7.44576 21.2378C6.93972 20.6209 6.62953 19.8913 6.55158 19.6831C6.55145 19.6822 6.55145 19.6813 6.55158 19.6804C6.42616 19.3187 6.16266 18.4499 6.19866 17.6084C6.26236 16.1238 6.78462 15.2126 6.9227 14.9843C7.28841 14.3618 7.76405 13.8048 8.32845 13.3382C8.82651 12.9355 9.39105 12.6151 9.9989 12.3902C10.656 12.126 11.3597 11.9844 12.0721 11.973V14.4341C12.0721 14.4341 10.7688 14.0207 9.7259 14.7526C8.99671 15.2941 8.60976 15.8224 8.49582 16.7658C8.49107 17.4602 8.66872 18.4427 9.64321 19.098C9.75689 19.17 9.86846 19.234 9.97793 19.2898C10.1482 19.5111 10.3554 19.704 10.5912 19.8605C11.5431 20.4631 12.3408 20.5052 13.3608 20.1138C14.0409 19.8522 14.5529 19.2625 14.7902 18.6092C14.9394 18.2011 14.9374 17.7904 14.9374 17.3657V5.28418H17.3113C17.4095 5.84199 17.6809 6.63605 18.3986 7.42253C18.6865 7.71949 19.0108 7.98203 19.3644 8.20446C19.4688 8.31253 20.003 8.84683 20.6886 9.17485C21.0432 9.3444 21.4169 9.47431 21.8024 9.56202Z" fill="black"/>
<path d="M5.60645 18.9268V18.9287L5.66535 19.0883C5.65858 19.0697 5.63669 19.0132 5.60645 18.9268Z" fill="#33F3ED"/>
<path d="M9.99893 12.39C9.39108 12.6149 8.82655 12.9353 8.32849 13.338C7.7639 13.8057 7.28837 14.3638 6.92313 14.9875C6.78505 15.2151 6.26279 16.1271 6.19909 17.6117C6.16308 18.4531 6.42659 19.3219 6.55201 19.6836C6.55187 19.6845 6.55187 19.6854 6.55201 19.6863C6.63114 19.8926 6.94014 20.6222 7.44618 21.241C7.59318 21.4204 7.75077 21.5916 7.9182 21.7537C7.38177 21.3982 6.90336 20.9683 6.4986 20.4781C5.99691 19.8664 5.68751 19.1444 5.6068 18.9313C5.6067 18.9298 5.6067 18.9283 5.6068 18.9267V18.9241C5.48098 18.5627 5.21668 17.6936 5.25348 16.851C5.31718 15.3664 5.83944 14.4551 5.97752 14.2268C6.34266 13.6031 6.8182 13.0449 7.38288 12.5773C7.88083 12.1745 8.44539 11.8541 9.05332 11.6293C9.43252 11.4785 9.82754 11.3672 10.2316 11.2975C10.8405 11.1956 11.4623 11.1868 12.0741 11.2713V11.9728C11.361 11.984 10.6567 12.1256 9.99893 12.39Z" fill="#33F3ED"/>
<path d="M17.3135 5.28347H14.9396V17.3654C14.9396 17.7901 14.9396 18.1997 14.7924 18.6088C14.5526 19.2618 14.0427 19.8515 13.3629 20.1131C12.3425 20.506 11.5449 20.4624 10.5934 19.8598C10.3571 19.704 10.1494 19.5118 9.97852 19.291C10.7892 19.7055 11.5148 19.6983 12.4138 19.3524C13.0931 19.0908 13.6039 18.5011 13.8428 17.8478C13.9924 17.4397 13.9904 17.029 13.9904 16.6047V4.52051H17.2684C17.2684 4.52051 17.2316 4.82084 17.3135 5.28347ZM21.8026 8.88898V9.56131C21.4177 9.47346 21.0447 9.34356 20.6908 9.17414C20.0051 8.84613 19.471 8.31182 19.3665 8.20375C19.4878 8.28002 19.6135 8.34941 19.7432 8.41156C20.5768 8.81048 21.3978 8.92955 21.8026 8.88898Z" fill="#33F3ED"/>
</svg>
