<svg width="28" height="28" viewBox="0 0 28 28" fill="none" xmlns="http://www.w3.org/2000/svg">
<path d="M19.6107 2H8.4C4.31467 2 2 4.31467 2 8.4V19.6C2 23.6853 4.31467 26 8.4 26H19.6107C23.696 26 26 23.6853 26 19.6V8.4C26 4.31467 23.696 2 19.6107 2Z" fill="#2563EA"/>
<path fill-rule="evenodd" clip-rule="evenodd" d="M13.833 8C13.7723 8 13.623 8.01667 13.5436 8.17533L12.3263 10.6093C12.1336 10.994 11.7623 11.2613 11.333 11.3227L8.60762 11.7153C8.42762 11.7413 8.36629 11.8747 8.34762 11.9307C8.33095 11.9847 8.30429 12.122 8.42829 12.2407L10.399 14.134C10.713 14.436 10.8556 14.8713 10.781 15.2973L10.317 17.9707C10.2883 18.138 10.393 18.2353 10.4396 18.2687C10.489 18.306 10.621 18.38 10.7843 18.2947L13.221 17.0313C13.605 16.8333 14.0623 16.8333 14.445 17.0313L16.881 18.294C17.045 18.3787 17.177 18.3047 17.227 18.2687C17.2736 18.2353 17.3783 18.138 17.3496 17.9707L16.8843 15.2973C16.8096 14.8713 16.9523 14.436 17.2663 14.134L19.237 12.2407C19.3616 12.122 19.335 11.984 19.3176 11.9307C19.2996 11.8747 19.2383 11.7413 19.0583 11.7153L16.333 11.3227C15.9043 11.2613 15.533 10.994 15.3403 10.6087L14.1216 8.17533C14.043 8.01667 13.8936 8 13.833 8ZM10.631 19.3333C10.3556 19.3333 10.0823 19.2467 9.84829 19.076C9.44429 18.78 9.24629 18.2913 9.33229 17.7993L9.79629 15.126C9.81362 15.0267 9.77962 14.926 9.70629 14.8553L7.73562 12.962C7.37295 12.6147 7.24295 12.1013 7.39629 11.6247C7.55095 11.1427 7.96029 10.798 8.46495 10.726L11.1903 10.3333C11.2956 10.3187 11.3863 10.254 11.4316 10.162L12.6496 7.72733C12.8743 7.27867 13.3276 7 13.833 7C14.3383 7 14.7916 7.27867 15.0163 7.72733L16.235 10.1613C16.281 10.254 16.371 10.3187 16.4756 10.3333L19.201 10.726C19.7056 10.798 20.115 11.1427 20.2696 11.6247C20.423 12.1013 20.2923 12.6147 19.9296 12.962L17.959 14.8553C17.8856 14.926 17.8523 15.0267 17.8696 15.1253L18.3343 17.7993C18.4196 18.292 18.2216 18.7807 17.817 19.076C17.407 19.3767 16.873 19.4173 16.4203 19.1813L13.985 17.9193C13.8896 17.87 13.7756 17.87 13.6803 17.9193L11.245 19.182C11.0503 19.2833 10.8403 19.3333 10.631 19.3333Z" fill="white"/>
</svg>
