<svg width="28" height="28" viewBox="0 0 28 28" fill="none" xmlns="http://www.w3.org/2000/svg">
<path d="M20.5458 0H7.46667C2.70044 0 0 2.70044 0 7.46667V20.5333C0 25.2996 2.70044 28 7.46667 28H20.5458C25.312 28 28 25.2996 28 20.5333V7.46667C28 2.70044 25.312 0 20.5458 0Z" fill="#2563EA"/>
<path fill-rule="evenodd" clip-rule="evenodd" d="M19.88 18.6451C19.88 21.117 16.49 21.4028 13.9408 21.4028L13.7583 21.4026C12.1342 21.3987 8 21.2962 8 18.63C8 16.2085 11.2538 15.8849 13.7836 15.8727L14.1232 15.8725C15.7472 15.8764 19.88 15.9789 19.88 18.6451ZM13.9408 16.9973C10.745 16.9973 9.125 17.5463 9.125 18.63C9.125 19.7235 10.745 20.2778 13.9408 20.2778C17.1358 20.2778 18.755 19.7288 18.755 18.6451C18.755 17.5515 17.1358 16.9973 13.9408 16.9973ZM13.9408 6.5C16.1368 6.5 17.9225 8.2865 17.9225 10.4825C17.9225 12.6785 16.1368 14.4643 13.9408 14.4643H13.9168C11.7253 14.4575 9.95 12.6702 9.95748 10.4803C9.95748 8.2865 11.744 6.5 13.9408 6.5ZM13.9408 7.571C12.335 7.571 11.0285 8.87675 11.0285 10.4825C11.0233 12.083 12.32 13.388 13.919 13.394L13.9408 13.9295V13.394C15.5458 13.394 16.8515 12.0875 16.8515 10.4825C16.8515 8.87675 15.5458 7.571 13.9408 7.571Z" fill="white"/>
</svg>
