<svg width="36" height="36" viewBox="0 0 36 36" fill="none" xmlns="http://www.w3.org/2000/svg">
<path fill-rule="evenodd" clip-rule="evenodd" d="M5.41112 3.11658C4.83084 3.26858 4.39283 3.52828 3.93677 3.99061C3.4834 4.45024 3.27164 4.82227 3.11512 5.43426C3.0018 5.87742 2.99922 6.1155 3.0001 16.1179C3.0008 24.8472 3.0134 26.4012 3.08588 26.7086C3.39404 28.0152 4.42699 28.9709 5.76575 29.1882C5.98936 29.2245 7.65444 29.2482 10.0019 29.2484L13.8697 29.2489L15.5686 30.9546C16.503 31.8927 17.3848 32.7365 17.5281 32.8297C17.824 33.0222 18.0877 33.0459 18.3692 32.9055C18.4723 32.854 19.3609 32.0111 20.3439 31.0323L22.1311 29.2526L26.2328 29.2345C30.0108 29.2178 30.3601 29.2079 30.6569 29.1098C31.5227 28.8237 32.2152 28.2562 32.6041 27.5142C33.0254 26.7105 32.999 27.4733 32.9999 16.1179C33.0008 6.10296 32.9983 5.87789 32.8845 5.43261C32.7313 4.83387 32.4779 4.40049 32.0082 3.93429C31.5536 3.48292 31.1811 3.27127 30.564 3.11341C30.1194 2.99973 29.8799 2.99757 17.976 3.00073C6.19843 3.00389 5.82851 3.00729 5.41112 3.11658ZM30.2669 4.84928C30.4307 4.90507 30.6468 5.04752 30.8 5.20075C31.2822 5.68294 31.2461 4.75576 31.2289 16.2135C31.2142 26.0264 31.2095 26.4146 31.1045 26.612C30.9522 26.8983 30.6695 27.1856 30.3932 27.335C30.1605 27.4608 30.1282 27.4619 25.7641 27.493C23.347 27.5102 21.3581 27.5299 21.3444 27.5369C21.3306 27.5439 20.5725 28.2935 19.6597 29.2026L18 30.8557L16.3403 29.2026C15.4275 28.2935 14.6694 27.5439 14.6556 27.5369C14.6419 27.5299 12.653 27.5102 10.2359 27.493C5.87181 27.4619 5.83952 27.4608 5.60678 27.335C5.29528 27.1666 5.02485 26.8762 4.87895 26.5534C4.76052 26.2915 4.7597 26.2204 4.75841 16.1483C4.75695 4.75811 4.72062 5.66776 5.19613 5.19231C5.66104 4.7274 4.54289 4.7652 17.9749 4.76004C28.8497 4.75588 30.0176 4.76432 30.2669 4.84928ZM17.7433 7.74584C17.6505 7.77367 17.508 7.85712 17.4267 7.93124C17.3454 8.00554 16.7954 9.04435 16.203 10.2425C15.1572 12.3578 15.1217 12.4198 14.9374 12.4531C14.8332 12.4719 13.8118 12.6203 12.6677 12.7829C11.5236 12.9455 10.4842 13.1068 10.358 13.1413C10.0629 13.2218 9.82645 13.4604 9.73322 13.7717C9.59657 14.2276 9.69261 14.3532 11.5837 16.1908C12.5183 17.099 13.291 17.8875 13.3008 17.9431C13.3107 17.9986 13.1459 19.0534 12.9346 20.2869C12.7234 21.5205 12.5506 22.6242 12.5507 22.7397C12.5512 23.1788 12.9555 23.5643 13.4158 23.5647C13.6274 23.5649 13.9998 23.3897 15.8358 22.4258L18.0056 21.2866L20.1687 22.4258C22.0054 23.3931 22.3697 23.5649 22.583 23.5647C23.0445 23.5643 23.4488 23.1793 23.4493 22.7397C23.4494 22.6242 23.2766 21.5205 23.0654 20.2869C22.8541 19.0534 22.6893 17.9993 22.6992 17.9445C22.709 17.8897 23.4817 17.101 24.4163 16.1919C26.1975 14.4593 26.3674 14.2499 26.2965 13.8749C26.2449 13.6019 26.0569 13.3286 25.8456 13.2194C25.7294 13.1592 24.7661 12.9918 23.3087 12.7784C22.0165 12.5891 20.9411 12.4336 20.919 12.4329C20.8969 12.4322 20.4011 11.4626 19.8173 10.2782C19.2333 9.0938 18.686 8.05207 18.6009 7.96323C18.5158 7.8744 18.3523 7.77567 18.2377 7.74379C17.9983 7.67728 17.9719 7.6774 17.7433 7.74584ZM18.7649 12.1217C19.4734 13.5852 19.6562 13.8965 19.8762 14.0143C19.9342 14.0453 20.7158 14.1772 21.6131 14.3073C22.5103 14.4374 23.3078 14.558 23.3853 14.5751C23.5113 14.6031 23.3899 14.7388 22.2299 15.8659C21.1999 16.8668 20.9213 17.17 20.8739 17.3421C20.8245 17.5205 20.8659 17.8606 21.1093 19.2794C21.2717 20.226 21.3918 21.0132 21.3761 21.0287C21.3605 21.0444 20.6538 20.692 19.8057 20.2458C18.4806 19.5485 18.2266 19.4345 18 19.4354C17.7755 19.4363 17.5075 19.5568 16.1949 20.2475C15.3471 20.6934 14.6405 21.0453 14.6245 21.0294C14.6085 21.0134 14.7283 20.226 14.8907 19.2794C15.134 17.8615 15.1754 17.5205 15.1262 17.3422C15.0788 17.1706 14.7991 16.8658 13.7714 15.8659C12.6182 14.7439 12.4916 14.6024 12.616 14.5751C12.6928 14.5582 13.4148 14.4504 14.2205 14.3356C15.0262 14.2207 15.7742 14.111 15.8827 14.0918C16.2686 14.0232 16.4124 13.8152 17.2101 12.1713C17.6254 11.3154 17.981 10.6151 18.0004 10.6151C18.0197 10.6151 18.3638 11.2931 18.7649 12.1217Z" fill="#1E1142"/>
</svg>
