<svg width="20" height="20" viewBox="0 0 20 20" fill="none" xmlns="http://www.w3.org/2000/svg">
<path fill-rule="evenodd" clip-rule="evenodd" d="M13.612 1.66602C16.4362 1.66602 18.3337 3.64768 18.3337 6.59602V13.4027C18.3337 16.351 16.4362 18.3327 13.6112 18.3327H6.38783C3.56366 18.3327 1.66699 16.351 1.66699 13.4027V6.59602C1.66699 3.64768 3.56366 1.66602 6.38783 1.66602H13.612ZM13.612 2.91602H6.38783C4.27949 2.91602 2.91699 4.36018 2.91699 6.59602V13.4027C2.91699 15.6385 4.27949 17.0827 6.38783 17.0827H13.6112C15.7203 17.0827 17.0837 15.6385 17.0837 13.4027V6.59602C17.0837 4.36018 15.7203 2.91602 13.612 2.91602ZM13.4082 7.58018C13.6524 7.82435 13.6524 8.21935 13.4082 8.46352L9.45324 12.4185C9.33158 12.541 9.17158 12.6018 9.01158 12.6018C8.85241 12.6018 8.69158 12.541 8.56991 12.4185L6.59158 10.441C6.34741 10.1968 6.34741 9.80185 6.59158 9.55768C6.83574 9.31352 7.23074 9.31352 7.47491 9.55768L9.01158 11.0927L12.5249 7.58018C12.7691 7.33602 13.1641 7.33602 13.4082 7.58018Z" fill="#379F00"/>
</svg>
