<svg width="20" height="20" viewBox="0 0 20 20" fill="none" xmlns="http://www.w3.org/2000/svg">
<path fill-rule="evenodd" clip-rule="evenodd" d="M13.612 1.66699C16.4362 1.66699 18.3337 3.64866 18.3337 6.59699V13.4037C18.3337 16.352 16.4362 18.3337 13.6103 18.3337H6.38699C3.56366 18.3337 1.66699 16.352 1.66699 13.4037V6.59699C1.66699 3.64866 3.56366 1.66699 6.38699 1.66699H13.612ZM13.612 2.91699H6.38699C4.27949 2.91699 2.91699 4.36116 2.91699 6.59699V13.4037C2.91699 15.6395 4.27949 17.0837 6.38699 17.0837H13.6103C15.7203 17.0837 17.0837 15.6395 17.0837 13.4037V6.59699C17.0837 4.36116 15.7203 2.91699 13.612 2.91699ZM9.99533 9.37533C10.3403 9.37533 10.6203 9.65533 10.6203 10.0003V13.3337C10.6203 13.6787 10.3403 13.9587 9.99533 13.9587C9.65032 13.9587 9.37033 13.6787 9.37033 13.3337V10.0003C9.37033 9.65533 9.65032 9.37533 9.99533 9.37533ZM9.99941 6.00374C10.4602 6.00374 10.8327 6.37624 10.8327 6.83708C10.8327 7.29791 10.4602 7.67041 9.99941 7.67041C9.53857 7.67041 9.16191 7.29791 9.16191 6.83708C9.16191 6.37624 9.53108 6.00374 9.99108 6.00374H9.99941Z" fill="#2563EA"/>
</svg>
