<svg width="24" height="24" viewBox="0 0 24 24" fill="none" xmlns="http://www.w3.org/2000/svg">
<path fill-rule="evenodd" clip-rule="evenodd" d="M1.69335 3.0779C0.874348 3.29812 0.209284 3.99101 0.0412708 4.79907C0.0067488 4.9651 -0.00610314 5.7519 0.00266808 7.16147C0.0154262 9.21236 0.0186626 9.27873 0.112519 9.4042C0.294979 9.64812 0.428893 9.71154 0.851881 9.75434C1.50808 9.82076 1.96198 10.0343 2.37573 10.4711C3.18484 11.3254 3.18484 12.671 2.37573 13.5252C1.96198 13.962 1.50808 14.1756 0.851881 14.242C0.428893 14.2848 0.294979 14.3482 0.112519 14.5921C0.0186626 14.7176 0.0154262 14.784 0.00266808 16.8348C-0.00610314 18.2444 0.0067488 19.0312 0.0412708 19.1972C0.211442 20.0157 0.878945 20.7037 1.71343 20.9208C2.11958 21.0264 21.8804 21.0264 22.2866 20.9208C23.1211 20.7037 23.7886 20.0157 23.9587 19.1972C23.9933 19.0312 24.0061 18.2444 23.9973 16.8348C23.9846 14.784 23.9813 14.7176 23.8875 14.5921C23.7069 14.3507 23.5698 14.2845 23.1664 14.2439C22.5284 14.1796 22.1535 14.0172 21.7209 13.6172C20.7763 12.744 20.7763 11.2523 21.7209 10.3791C22.1535 9.97916 22.5284 9.81668 23.1664 9.75242C23.5698 9.71182 23.7069 9.64564 23.8875 9.4042C23.9813 9.27873 23.9846 9.21236 23.9973 7.16147C24.0061 5.7519 23.9933 4.9651 23.9587 4.79907C23.7886 3.98056 23.1211 3.29259 22.2866 3.07556C21.8935 2.97331 2.0738 2.97556 1.69335 3.0779ZM22.1603 4.62442C22.2316 4.67753 22.3333 4.77916 22.3865 4.85026C22.4794 4.97433 22.4838 5.04674 22.4967 6.66224C22.5093 8.25106 22.5054 8.34505 22.4263 8.34651C22.2502 8.34979 21.5274 8.66185 21.215 8.86952C20.3409 9.45052 19.7697 10.3071 19.5712 11.3349C19.2361 13.0693 20.2529 14.8541 21.942 15.496C22.1623 15.5797 22.3802 15.649 22.4263 15.6498C22.5054 15.6513 22.5093 15.7453 22.4967 17.3341C22.4838 18.9496 22.4794 19.022 22.3865 19.1461C22.3333 19.2171 22.2316 19.3188 22.1603 19.3719L22.0308 19.4685H12H1.96925L1.8397 19.3719C1.76845 19.3188 1.66667 19.2171 1.61348 19.1461C1.52065 19.022 1.51624 18.9495 1.50339 17.3442L1.48998 15.6717L1.69486 15.617C2.32366 15.449 2.90918 15.1147 3.36331 14.6642C4.25342 13.7812 4.65652 12.5205 4.42875 11.3318C4.15394 9.89747 3.09492 8.75328 1.6965 8.37981L1.49331 8.32552V6.72247C1.49331 5.06027 1.50433 4.9525 1.69579 4.74436C1.92628 4.4937 1.31994 4.507 12.0552 4.51777L22.0308 4.52784L22.1603 4.62442ZM13.4599 5.97404C11.7341 10.5622 9.09359 17.6114 9.08284 17.6588C9.06591 17.7339 10.3985 18.2547 10.4536 18.1945C10.4725 18.1739 11.4808 15.512 12.6943 12.2792C13.9078 9.04633 14.9131 6.36957 14.9284 6.33083C14.95 6.27599 14.8006 6.20218 14.2532 5.99727L13.5501 5.7341L13.4599 5.97404ZM8.08344 7.78747C7.17747 7.91899 6.37423 8.73749 6.22934 9.67669C6.06503 10.7417 6.74464 11.821 7.78283 12.1436C8.12083 12.2486 8.6796 12.2599 9.02154 12.1686C10.0021 11.9066 10.6878 11.0177 10.6861 10.0108C10.6838 8.61698 9.476 7.58524 8.08344 7.78747ZM8.83378 9.36973C8.91108 9.41422 9.02374 9.5233 9.08416 9.61206C9.17478 9.74516 9.19082 9.81912 9.17576 10.0341C9.14481 10.4761 8.86793 10.7336 8.42336 10.7336C8.1469 10.7336 7.92636 10.5841 7.78592 10.3016C7.6401 10.0081 7.67734 9.76352 7.90642 9.51033C8.16102 9.22894 8.50005 9.17751 8.83378 9.36973ZM15.647 12.4704C15.127 12.5929 14.4763 13.1012 14.2376 13.5717C14.0231 13.9942 13.9558 14.3137 13.9808 14.7906C14.0004 15.1636 14.0268 15.2724 14.1716 15.577C14.7273 16.7454 16.0489 17.2158 17.1977 16.6541C18.0623 16.2313 18.5762 15.2554 18.4266 14.3205C18.2916 13.4768 17.6753 12.7575 16.8738 12.5084C16.5682 12.4134 15.9682 12.3949 15.647 12.4704ZM16.6015 14.0239C16.8317 14.1762 16.9899 14.5165 16.9474 14.7677C16.8777 15.1797 16.4267 15.4744 16.0282 15.3684C15.5572 15.243 15.336 14.7551 15.548 14.309C15.7243 13.938 16.2546 13.7944 16.6015 14.0239Z" fill="#1E1142"/>
</svg>
