<svg width="48" height="48" viewBox="0 0 48 48" fill="none" xmlns="http://www.w3.org/2000/svg">
<path fill-rule="evenodd" clip-rule="evenodd" d="M22.9988 3.11606C21.0904 3.5786 19.7324 5.30923 19.7324 7.27881C19.7324 7.65869 19.7829 8.13716 19.8445 8.34203L19.9567 8.71453L19.2493 8.98171C17.3776 9.68861 15.9227 10.6409 14.4324 12.1343C12.4643 14.1066 11.311 16.2198 10.6824 19.0057C10.5197 19.7269 10.506 20.0824 10.4611 24.7443C10.4167 29.349 10.4023 29.7307 10.2651 29.94C10.0443 30.2766 9.64624 30.4856 9.22265 30.4873C8.66761 30.4896 7.86058 30.705 7.31185 30.9974C4.22938 32.6398 4.22938 37.0337 7.31185 38.6761C8.25896 39.1808 8.31028 39.1846 14.1733 39.1859L19.4935 39.1872L19.4324 39.495C19.3455 39.9327 19.3718 40.9618 19.4824 41.4445C19.8888 43.2198 21.4962 44.6834 23.3334 44.9511C26.1174 45.3567 28.6318 43.186 28.6314 40.3774C28.6313 40.0614 28.6041 39.6643 28.5708 39.495L28.5104 39.1872L33.8306 39.1859C39.6459 39.1846 39.7075 39.1803 40.6533 38.703C43.3398 37.3473 43.8205 33.6279 41.5704 31.6075C40.822 30.9354 39.7158 30.4911 38.7813 30.4873C38.3577 30.4856 37.9596 30.2766 37.7388 29.94C37.6016 29.7307 37.5872 29.349 37.5428 24.7443C37.4979 20.0824 37.4842 19.7269 37.3215 19.0057C36.6929 16.2198 35.5396 14.1066 33.5715 12.1343C32.0821 10.6418 30.626 9.68844 28.7579 8.98294L28.0538 8.71699L28.1627 8.29738C28.4385 7.23432 28.1953 5.85927 27.563 4.90703C26.5828 3.43052 24.7188 2.69916 22.9988 3.11606ZM24.521 5.53907C24.9217 5.65037 25.4628 6.13696 25.6551 6.55919C25.8255 6.93316 25.8449 7.49896 25.7011 7.89829L25.603 8.1704L24.002 8.16917L22.4009 8.16794L22.3019 7.9381C22.1543 7.59524 22.1781 6.93292 22.3516 6.55919C22.7456 5.71045 23.6337 5.29273 24.521 5.53907ZM25.788 10.7462C30.5035 11.5107 34.1894 15.2345 34.9655 20.0183C35.0605 20.6037 35.0859 21.695 35.0861 25.2085C35.0864 29.9172 35.1054 30.1953 35.4759 30.9378C36.0857 32.1603 37.0456 32.7905 38.5317 32.9442C39.3191 33.0257 39.601 33.1341 39.9612 33.4942C40.8789 34.4116 40.6431 35.9103 39.4809 36.5476C39.2525 36.6729 38.0279 36.6836 24.002 36.6836C9.97599 36.6836 8.75144 36.6729 8.52302 36.5476C7.36079 35.9103 7.12506 34.4116 8.04269 33.4942C8.40265 33.1344 8.68469 33.0257 9.46922 32.9445C10.3774 32.8506 10.9426 32.6407 11.5277 32.1802C12.0404 31.7767 12.4142 31.2607 12.6891 30.5771C12.8719 30.1223 12.8746 30.0596 12.9222 25.0689L12.9704 20.0208L13.1854 19.1941C13.9395 16.2957 15.4544 14.1032 17.8162 12.4926C18.9607 11.7121 20.773 10.9805 22.1215 10.7546C23.0544 10.5983 24.8506 10.5941 25.788 10.7462ZM25.9884 39.5155C26.2022 39.9528 26.1807 40.7722 25.9418 41.2849C25.6123 41.9922 24.7549 42.5526 24.002 42.5526C23.249 42.5526 22.3916 41.9922 22.0621 41.2849C21.7705 40.659 21.8235 39.584 22.1625 39.2472C22.1975 39.2125 23.041 39.1941 24.037 39.2061L25.848 39.2282L25.9884 39.5155Z" fill="#1E1142"/>
</svg>
