<svg width="24" height="24" viewBox="0 0 24 24" fill="none" xmlns="http://www.w3.org/2000/svg">
<mask id="mask0_603_31480" style="mask-type:alpha" maskUnits="userSpaceOnUse" x="0" y="0" width="24" height="24">
<rect width="24" height="24" fill="#D9D9D9"/>
</mask>
<g mask="url(#mask0_603_31480)">
<path d="M5.625 21.0004C5.15833 21.0004 4.771 20.8464 4.463 20.5384C4.15433 20.2297 4 19.8421 4 19.3754V6.62539C4 6.15872 4.15433 5.77139 4.463 5.46339C4.771 5.15472 5.15833 5.00039 5.625 5.00039H7.375V2.77539H8.45V5.00039H15.625V2.77539H16.625V5.00039H18.375C18.8417 5.00039 19.2293 5.15472 19.538 5.46339C19.846 5.77139 20 6.15872 20 6.62539V19.3754C20 19.8421 19.846 20.2297 19.538 20.5384C19.2293 20.8464 18.8417 21.0004 18.375 21.0004H5.625ZM5.625 20.0004H18.375C18.5417 20.0004 18.6873 19.9377 18.812 19.8124C18.9373 19.6877 19 19.5421 19 19.3754V10.6254H5V19.3754C5 19.5421 5.06267 19.6877 5.188 19.8124C5.31267 19.9377 5.45833 20.0004 5.625 20.0004ZM5 9.62539H19V6.62539C19 6.45872 18.9373 6.31306 18.812 6.18839C18.6873 6.06306 18.5417 6.00039 18.375 6.00039H5.625C5.45833 6.00039 5.31267 6.06306 5.188 6.18839C5.06267 6.31306 5 6.45872 5 6.62539V9.62539Z" fill="#717972"/>
</g>
</svg>
