<svg width="28" height="28" viewBox="0 0 28 28" fill="none" xmlns="http://www.w3.org/2000/svg">
<path d="M20.5458 0H7.46667C2.70044 0 0 2.70044 0 7.46667V20.5333C0 25.2996 2.70044 28 7.46667 28H20.5458C25.312 28 28 25.2996 28 20.5333V7.46667C28 2.70044 25.312 0 20.5458 0Z" fill="#FF179C"/>
<path fill-rule="evenodd" clip-rule="evenodd" d="M9.6875 14.75C12.7392 14.75 12.875 15.785 12.875 17.9375C12.875 19.016 12.875 19.7832 12.422 20.345C11.9008 20.9922 10.952 21.125 9.6875 21.125C8.423 21.125 7.47425 20.9922 6.953 20.345C6.5 19.7832 6.5 19.0167 6.5 17.9562L6.50298 17.5L6.5 17.9375C6.5 15.785 6.63575 14.75 9.6875 14.75ZM17.9375 14.75C20.9893 14.75 21.125 15.785 21.125 17.9375C21.125 19.016 21.125 19.7832 20.672 20.345C20.1508 20.9922 19.202 21.125 17.9375 21.125C16.673 21.125 15.7242 20.9922 15.203 20.345C14.75 19.7832 14.75 19.0167 14.75 17.9562L14.7548 17.4077L14.75 17.9375C14.75 15.785 14.8857 14.75 17.9375 14.75ZM9.84212 15.8753L9.6875 15.875C7.73077 15.875 7.63042 16.0154 7.62528 17.6578L7.62559 18.2976C7.62915 18.9509 7.65404 19.4227 7.82825 19.64C8.027 19.886 8.61725 20 9.6875 20C10.7578 20 11.348 19.8853 11.5468 19.6392C11.75 19.3865 11.75 18.7865 11.75 17.9555C11.75 16.0803 11.75 15.8842 9.84212 15.8753ZM18.0921 15.8753L17.9375 15.875C15.9808 15.875 15.8804 16.0154 15.8753 17.6578L15.8756 18.2976C15.8791 18.9509 15.904 19.4227 16.0782 19.64C16.277 19.886 16.8673 20 17.9375 20C19.0077 20 19.598 19.8853 19.7968 19.6392C20 19.3865 20 18.7865 20 17.9555C20 16.0803 20 15.8842 18.0921 15.8753ZM9.6875 6.5C12.7392 6.5 12.875 7.535 12.875 9.6875C12.875 10.766 12.875 11.5333 12.422 12.095C11.9008 12.7423 10.952 12.875 9.6875 12.875C8.423 12.875 7.47425 12.7423 6.953 12.095C6.5 11.5333 6.5 10.7668 6.5 9.70625V9V9.6875C6.5 7.535 6.63575 6.5 9.6875 6.5ZM17.9375 6.5C20.9893 6.5 21.125 7.535 21.125 9.6875C21.125 10.766 21.125 11.5333 20.672 12.095C20.1508 12.7423 19.202 12.875 17.9375 12.875C16.673 12.875 15.7242 12.7423 15.203 12.095C14.75 11.5333 14.75 10.7668 14.75 9.70625L14.7535 9.21968L14.75 9.6875C14.75 7.535 14.8857 6.5 17.9375 6.5ZM9.84212 7.62533L9.6875 7.625C7.73077 7.625 7.63042 7.76541 7.62528 9.40779L7.62559 10.0476C7.62915 10.7009 7.65404 11.1727 7.82825 11.39C8.027 11.636 8.61725 11.75 9.6875 11.75C10.7578 11.75 11.348 11.6352 11.5468 11.3892C11.75 11.1365 11.75 10.5365 11.75 9.7055C11.75 7.83035 11.75 7.63416 9.84212 7.62533ZM18.0921 7.62533L17.9375 7.625C15.9808 7.625 15.8804 7.76541 15.8753 9.40779L15.8756 10.0476C15.8791 10.7009 15.904 11.1727 16.0782 11.39C16.277 11.636 16.8673 11.75 17.9375 11.75C19.0077 11.75 19.598 11.6352 19.7968 11.3892C20 11.1365 20 10.5365 20 9.7055C20 7.83035 20 7.63416 18.0921 7.62533Z" fill="white"/>
</svg>
