<svg width="28" height="28" viewBox="0 0 28 28" fill="none" xmlns="http://www.w3.org/2000/svg">
<path d="M19.4545 2.33398H8.55523C4.58338 2.33398 2.33301 4.58436 2.33301 8.55621V19.4451C2.33301 23.4169 4.58338 25.6673 8.55523 25.6673H19.4545C23.4263 25.6673 25.6663 23.4169 25.6663 19.4451V8.55621C25.6663 4.58436 23.4263 2.33398 19.4545 2.33398Z" fill="#2563EA"/>
<path fill-rule="evenodd" clip-rule="evenodd" d="M14.2501 7.33398C15.7541 7.33398 17.0968 8.28932 17.5895 9.71198C17.6801 9.97265 17.5415 10.2573 17.2801 10.348C17.0195 10.4393 16.7348 10.3 16.6441 10.0387C16.2915 9.01932 15.3281 8.33398 14.2481 8.33398H14.2388C12.8441 8.33398 11.7081 9.46332 11.7021 10.8567L11.7017 11.7513L16.7897 11.7518C18.459 11.7518 19.8177 13.1105 19.8177 14.7805V17.6391C19.8177 19.3091 18.459 20.6678 16.7897 20.6678H11.695C10.025 20.6678 8.66699 19.3091 8.66699 17.6391V14.7805C8.66699 13.4582 9.51833 12.3311 10.7018 11.9191L10.7021 10.868C10.7108 8.90932 12.2948 7.33398 14.2368 7.33398H14.2501ZM16.7897 12.7518H11.695C10.5763 12.7518 9.66699 13.6618 9.66699 14.7805V17.6391C9.66699 18.7578 10.5763 19.6678 11.695 19.6678H16.7897C17.9077 19.6678 18.8177 18.7578 18.8177 17.6391V14.7805C18.8177 13.6618 17.9077 12.7518 16.7897 12.7518ZM14.2425 14.969C14.5185 14.969 14.7425 15.193 14.7425 15.469V16.9503C14.7425 17.2263 14.5185 17.4503 14.2425 17.4503C13.9665 17.4503 13.7425 17.2263 13.7425 16.9503V15.469C13.7425 15.193 13.9665 14.969 14.2425 14.969Z" fill="white"/>
</svg>
