<svg width="24" height="24" viewBox="0 0 24 24" fill="none" xmlns="http://www.w3.org/2000/svg">
<path fill-rule="evenodd" clip-rule="evenodd" d="M21.6296 11.4662C21.6296 11.8412 21.6296 12.2162 21.6296 12.5912C21.6141 12.7262 21.5987 12.8607 21.5837 12.9957C21.354 15.062 20.5646 16.884 19.1724 18.4295C17.694 20.0701 15.8621 21.0943 13.6824 21.4801C13.321 21.5438 12.9549 21.5804 12.5912 21.6296C9.35352 21.6296 6.11539 21.6296 2.87773 21.6296C2.66773 21.5396 2.51773 21.3896 2.42773 21.1796C2.42773 17.942 2.42773 14.7038 2.42773 11.4662C2.4432 11.3312 2.45867 11.1962 2.47367 11.0616C2.70336 8.99586 3.49273 7.17336 4.88492 5.62789C6.36336 3.98727 8.19523 2.96305 10.3749 2.57727C10.7363 2.51352 11.1024 2.47695 11.4662 2.42773C11.8412 2.42773 12.2162 2.42773 12.5912 2.42773C12.6395 2.43852 12.6873 2.45539 12.736 2.45867C14.2313 2.56414 15.6305 2.9907 16.9084 3.77023C19.4054 5.2932 20.9401 7.49492 21.4796 10.3768C21.5471 10.7363 21.5804 11.1029 21.6296 11.4662ZM12.0277 9.6282C11.1216 9.6282 10.2155 9.6282 9.30945 9.6282C8.81586 9.6282 8.32227 9.62398 7.82867 9.63055C7.50898 9.63477 7.26289 9.86492 7.23195 10.1682C7.20101 10.4705 7.40586 10.7527 7.70961 10.8137C7.79445 10.8305 7.88352 10.8277 7.9707 10.8277C10.6763 10.8282 13.382 10.8282 16.0876 10.8282C16.1499 10.8282 16.2132 10.8315 16.2751 10.8245C16.5268 10.7949 16.7054 10.6651 16.7916 10.4241C16.9384 10.0149 16.6388 9.62961 16.1701 9.62914C14.7896 9.6268 13.4087 9.6282 12.0277 9.6282ZM10.2479 13.2287C9.4543 13.2287 8.66117 13.2287 7.86758 13.2287C7.58961 13.2287 7.38289 13.3487 7.27461 13.6051C7.10586 14.0049 7.40211 14.4249 7.85727 14.4273C8.80039 14.432 9.74398 14.4287 10.6871 14.4287C11.3241 14.4287 11.9616 14.4291 12.5987 14.4282C12.8687 14.4277 13.0702 14.3087 13.1785 14.0607C13.3529 13.6623 13.0623 13.2343 12.609 13.2305C11.822 13.2245 11.0349 13.2291 10.2479 13.2287Z" fill="white"/>
</svg>
