<svg width="24" height="24" viewBox="0 0 24 24" fill="none" xmlns="http://www.w3.org/2000/svg">
<path fill-rule="evenodd" clip-rule="evenodd" d="M12.0016 2C14.675 2 17.1874 3.03939 19.0745 4.92741C22.9752 8.82813 22.9752 15.1743 19.0745 19.075C17.1622 20.9881 14.5875 22.0005 11.9793 22.0005C10.5574 22.0005 9.1263 21.7 7.78729 21.0802C7.39275 20.9221 7.02334 20.7732 6.75814 20.7732C6.45293 20.775 6.04257 20.9165 5.64617 21.0533C4.8329 21.3324 3.8205 21.6804 3.07143 20.9342C2.32516 20.187 2.66945 19.1773 2.94674 18.365C3.08353 17.9649 3.22404 17.5517 3.22404 17.2391C3.22404 16.9823 3.10028 16.6547 2.91045 16.1829C1.16759 12.419 1.97342 7.88273 4.92967 4.92834C6.81676 3.04032 9.32822 2 12.0016 2ZM12.0025 3.39578C9.70136 3.39578 7.53977 4.29093 5.91602 5.91561C3.37199 8.45779 2.67968 12.3613 4.19177 15.6302C4.40951 16.169 4.61981 16.6938 4.61981 17.2391C4.61981 17.7834 4.43278 18.3315 4.26808 18.8154C4.13222 19.2136 3.92658 19.8147 4.05871 19.9469C4.18805 20.0809 4.79289 19.8696 5.19208 19.7329C5.67129 19.5691 6.21472 19.3811 6.75349 19.3774C7.29319 19.3774 7.80218 19.5821 8.34095 19.7989C11.6415 21.325 15.545 20.6308 18.0881 18.0886C21.4436 14.7313 21.4436 9.27013 18.0881 5.91468C16.4634 4.29 14.3028 3.39578 12.0025 3.39578ZM15.6752 11.4566C16.1888 11.4566 16.6057 11.8725 16.6057 12.3871C16.6057 12.9017 16.1888 13.3176 15.6752 13.3176C15.1615 13.3176 14.7409 12.9017 14.7409 12.3871C14.7409 11.8725 15.1532 11.4566 15.6668 11.4566H15.6752ZM11.9449 11.4566C12.4586 11.4566 12.8754 11.8725 12.8754 12.3871C12.8754 12.9017 12.4586 13.3176 11.9449 13.3176C11.4313 13.3176 11.0107 12.9017 11.0107 12.3871C11.0107 11.8725 11.422 11.4566 11.9366 11.4566H11.9449ZM8.2143 11.4566C8.72795 11.4566 9.14482 11.8725 9.14482 12.3871C9.14482 12.9017 8.72795 13.3176 8.2143 13.3176C7.70066 13.3176 7.28007 12.9017 7.28007 12.3871C7.28007 11.8725 7.69228 11.4566 8.20593 11.4566H8.2143Z" fill="white"/>
</svg>
