<svg width="20" height="20" viewBox="0 0 20 20" fill="none" xmlns="http://www.w3.org/2000/svg">
<mask id="mask0_1047_25569" style="mask-type:alpha" maskUnits="userSpaceOnUse" x="0" y="0" width="20" height="20">
<rect width="20" height="20" fill="#D9D9D9"/>
</mask>
<g mask="url(#mask0_1047_25569)">
<path d="M10 18C8.89123 18 7.84926 17.7895 6.87411 17.3684C5.89839 16.9474 5.05263 16.3789 4.33684 15.6632C3.62105 14.9474 3.05263 14.1016 2.63158 13.1259C2.21053 12.1507 2 11.1088 2 10C2 8.89123 2.21053 7.84898 2.63158 6.87326C3.05263 5.89811 3.62105 5.05263 4.33684 4.33684C5.05263 3.62105 5.89839 3.05263 6.87411 2.63158C7.84926 2.21053 8.89123 2 10 2C11.1088 2 12.151 2.21053 13.1267 2.63158C14.1019 3.05263 14.9474 3.62105 15.6632 4.33684C16.3789 5.05263 16.9474 5.89811 17.3684 6.87326C17.7895 7.84898 18 8.89123 18 10C18 11.1088 17.7895 12.1507 17.3684 13.1259C16.9474 14.1016 16.3789 14.9474 15.6632 15.6632C14.9474 16.3789 14.1019 16.9474 13.1267 17.3684C12.151 17.7895 11.1088 18 10 18ZM10 16.7368C11.8807 16.7368 13.4737 16.0842 14.7789 14.7789C16.0842 13.4737 16.7368 11.8807 16.7368 10C16.7368 8.1193 16.0842 6.52632 14.7789 5.22105C13.4737 3.91579 11.8807 3.26316 10 3.26316C8.1193 3.26316 6.52632 3.91579 5.22105 5.22105C3.91579 6.52632 3.26316 8.1193 3.26316 10C3.26316 11.8807 3.91579 13.4737 5.22105 14.7789C6.52632 16.0842 8.1193 16.7368 10 16.7368Z" fill="#717972"/>
<path d="M12.233 13.0703L13.0704 12.233L10.8374 10L13.0704 7.76703L12.233 6.92967L10.0001 9.16264L7.76711 6.92967L6.92975 7.76703L9.16271 10L6.92975 12.233L7.76711 13.0703L10.0001 10.8374L12.233 13.0703Z" fill="#717972"/>
</g>
</svg>
