<svg width="20" height="20" viewBox="0 0 20 20" fill="none" xmlns="http://www.w3.org/2000/svg">
<path fill-rule="evenodd" clip-rule="evenodd" d="M13.1616 0.833984C13.5066 0.833984 13.7866 1.11398 13.7866 1.45898L13.787 2.16549C15.0037 2.24891 16.0143 2.66569 16.7295 3.3824C17.5103 4.16657 17.9212 5.29407 17.917 6.64657V14.2491C17.917 17.0257 16.1537 18.7507 13.3162 18.7507H6.26782C3.43033 18.7507 1.66699 17.0016 1.66699 14.1857V6.6449C1.66699 4.02589 3.23954 2.34477 5.80423 2.16578L5.80474 1.45898C5.80474 1.11398 6.08474 0.833984 6.42974 0.833984C6.77474 0.833984 7.05474 1.11398 7.05474 1.45898L7.05449 2.14982H12.5362L12.5366 1.45898C12.5366 1.11398 12.8166 0.833984 13.1616 0.833984ZM16.667 8.25398H2.91699V14.1857C2.91699 16.3241 4.10699 17.5007 6.26782 17.5007H13.3162C15.477 17.5007 16.667 16.3457 16.667 14.2491L16.667 8.25398ZM13.5013 13.4976C13.8463 13.4976 14.1263 13.7776 14.1263 14.1226C14.1263 14.4676 13.8463 14.7476 13.5013 14.7476C13.1563 14.7476 12.873 14.4676 12.873 14.1226C12.873 13.7776 13.1488 13.4976 13.4938 13.4976H13.5013ZM9.80341 13.4976C10.1484 13.4976 10.4284 13.7776 10.4284 14.1226C10.4284 14.4676 10.1484 14.7476 9.80341 14.7476C9.45841 14.7476 9.17507 14.4676 9.17507 14.1226C9.17507 13.7776 9.45091 13.4976 9.79591 13.4976H9.80341ZM6.09774 13.4976C6.44274 13.4976 6.72274 13.7776 6.72274 14.1226C6.72274 14.4676 6.44274 14.7476 6.09774 14.7476C5.75274 14.7476 5.46858 14.4676 5.46858 14.1226C5.46858 13.7776 5.74524 13.4976 6.09024 13.4976H6.09774ZM13.5013 10.2586C13.8463 10.2586 14.1263 10.5386 14.1263 10.8836C14.1263 11.2287 13.8463 11.5086 13.5013 11.5086C13.1563 11.5086 12.873 11.2287 12.873 10.8836C12.873 10.5386 13.1488 10.2586 13.4938 10.2586H13.5013ZM9.80341 10.2586C10.1484 10.2586 10.4284 10.5386 10.4284 10.8836C10.4284 11.2287 10.1484 11.5086 9.80341 11.5086C9.45841 11.5086 9.17507 11.2287 9.17507 10.8836C9.17507 10.5386 9.45091 10.2586 9.79591 10.2586H9.80341ZM6.09774 10.2586C6.44274 10.2586 6.72274 10.5386 6.72274 10.8836C6.72274 11.2287 6.44274 11.5086 6.09774 11.5086C5.75274 11.5086 5.46858 11.2287 5.46858 10.8836C5.46858 10.5386 5.74524 10.2586 6.09024 10.2586H6.09774ZM12.5362 3.39982H7.05449L7.05474 4.20148C7.05474 4.54648 6.77474 4.82648 6.42974 4.82648C6.08474 4.82648 5.80474 4.54648 5.80474 4.20148L5.8043 3.41874C3.93744 3.57556 2.91699 4.7072 2.91699 6.6449V7.00398H16.667L16.667 6.6449C16.6703 5.61573 16.3937 4.81573 15.8445 4.26573C15.3624 3.78224 14.6577 3.49348 13.7873 3.41914L13.7866 4.20148C13.7866 4.54648 13.5066 4.82648 13.1616 4.82648C12.8166 4.82648 12.5366 4.54648 12.5366 4.20148L12.5362 3.39982Z" fill="#FF179C"/>
</svg>
