<svg width="36" height="36" viewBox="0 0 36 36" fill="none" xmlns="http://www.w3.org/2000/svg">
<mask id="mask0_451_23463" style="mask-type:alpha" maskUnits="userSpaceOnUse" x="0" y="0" width="36" height="36">
<rect width="36" height="36" fill="#2563EA"/>
</mask>
<g mask="url(#mask0_451_23463)">
<path d="M16.501 30.001H9.75098C7.47598 30.001 5.53248 29.2135 3.92048 27.6385C2.30748 26.0635 1.50098 24.1385 1.50098 21.8635C1.50098 19.9135 2.08848 18.176 3.26348 16.651C4.43848 15.126 5.97598 14.151 7.87598 13.726C8.50098 11.426 9.75098 9.56348 11.626 8.13848C13.501 6.71348 15.626 6.00098 18.001 6.00098C20.926 6.00098 23.407 7.01948 25.444 9.05648C27.482 11.0945 28.501 13.576 28.501 16.501C30.226 16.701 31.6575 17.4445 32.7955 18.7315C33.9325 20.0195 34.501 21.526 34.501 23.251C34.501 25.126 33.845 26.72 32.533 28.033C31.22 29.345 29.626 30.001 27.751 30.001H19.501V19.276L21.901 21.601L24.001 19.501L18.001 13.501L12.001 19.501L14.101 21.601L16.501 19.276V30.001Z" fill="#717972"/>
</g>
</svg>
