<svg width="48" height="48" viewBox="0 0 48 48" fill="none" xmlns="http://www.w3.org/2000/svg">
<path fill-rule="evenodd" clip-rule="evenodd" d="M18.6437 44L18.6269 43.9965C18.3908 43.9479 18.1526 43.9058 17.9145 43.8643C17.3957 43.773 16.8596 43.6791 16.3491 43.5139C11.8659 42.0649 9.12705 38.9595 8.20792 34.2837C7.65326 31.4619 8.20969 28.7077 9.86101 26.0966C11.1626 24.0387 12.4736 21.987 13.7843 19.9353L15.5377 17.1891C15.5837 17.1169 15.6284 17.0439 15.6729 16.9712C14.772 16.3488 14.2971 15.4176 14.3645 14.3931C14.4317 13.3742 15.044 12.4642 15.9743 11.9863L14.9157 8.27654C14.7087 7.547 14.4947 6.79273 14.2694 6.05642C14.0451 5.32306 14.381 4.9421 14.7022 4.75162C15.0367 4.55348 15.3932 4.38803 15.7379 4.22816C15.8875 4.15868 16.0373 4.0892 16.1854 4.01708L16.2202 4.00029H17.2889L17.3109 4.00648C17.9863 4.1946 18.6143 4.54759 19.2308 5.08577C19.433 5.26241 19.703 5.35956 19.9909 5.35956C20.2827 5.35956 20.5568 5.26035 20.7637 5.07959C21.3658 4.55348 21.9799 4.20255 22.6417 4.00707L22.665 4.00029H23.797L23.8194 4.00677C24.4812 4.19578 25.0971 4.54377 25.7024 5.07075C25.9144 5.25535 26.1902 5.35691 26.4796 5.35691C26.7614 5.35691 27.0287 5.25976 27.2327 5.08341C27.8666 4.53523 28.4769 4.19313 29.1525 4.00618L29.1743 4H30.2424L30.2766 4.01649C30.4226 4.08656 30.5704 4.15368 30.7182 4.2211C31.0553 4.37448 31.4035 4.53317 31.7303 4.72542C32.2146 5.01069 32.3668 5.47026 32.1834 6.09116C31.771 7.48429 31.367 8.90568 30.9758 10.2803L30.5524 11.767C30.5318 11.8397 30.5133 11.9133 30.4929 11.9943C31.4933 12.5304 32.0315 13.3306 32.093 14.374C32.1543 15.4303 31.7121 16.2926 30.7773 16.9388C30.8203 17.0151 30.8618 17.0887 30.9069 17.1596L32.5046 19.6671C33.8356 21.7574 35.1663 23.8473 36.5062 25.9314C37.9473 28.1736 38.5894 30.631 38.4148 33.2351C38.0927 38.0353 34.4892 42.3925 29.8464 43.5964C29.3928 43.7141 28.9255 43.7977 28.4739 43.8784C28.2605 43.9167 28.0473 43.955 27.8348 43.9965L27.8186 43.9997H18.6437V44ZM18.6422 17.346C18.3808 17.346 18.1197 17.3481 17.8582 17.3563C17.7717 17.3592 17.653 17.4193 17.6245 17.464C17.0866 18.3046 16.5467 19.1436 16.0064 19.9827C14.4105 22.4622 12.76 25.0259 11.202 27.586C9.90811 29.7119 9.57013 32.0657 10.1969 34.5828C11.3316 39.1376 15.1044 42.0943 19.8087 42.1158C20.8656 42.1211 21.9228 42.1229 22.9797 42.1229C24.2071 42.1229 25.4342 42.1202 26.6616 42.1158C28.345 42.1096 29.9094 41.7348 31.3114 41.0021C33.7023 39.7529 35.4867 37.5095 36.2077 34.8472C36.9154 32.2323 36.4988 29.507 35.0344 27.1738C33.2969 24.4052 31.5001 21.6087 29.7625 18.9043L28.8552 17.4923C28.8157 17.4305 28.6832 17.3613 28.5976 17.3578C28.3358 17.3478 28.0735 17.3454 27.8112 17.3454L27.0169 17.3481L26.8226 17.3475C26.1952 17.3439 25.7854 16.9795 25.7786 16.4192C25.7754 16.1539 25.8599 15.9258 26.0236 15.76C26.2111 15.5698 26.4932 15.4692 26.8397 15.4683H28.3117C28.6085 15.4683 28.9046 15.468 29.2011 15.4659C29.6327 15.4633 29.9283 15.2969 30.1046 14.9575C30.253 14.6719 30.2486 14.3604 30.0931 14.1031C29.915 13.809 29.5709 13.6327 29.1722 13.6312C28.3594 13.6288 27.5465 13.6279 26.7337 13.6279L20.1122 13.63C19.1825 13.63 18.253 13.6294 17.323 13.6274C16.8555 13.6274 16.5531 13.7834 16.3671 14.1184C16.2113 14.3987 16.2093 14.7119 16.3612 14.9781C16.529 15.2719 16.854 15.4527 17.2303 15.4621C17.5373 15.4697 17.8447 15.4721 18.1518 15.4721C18.3629 15.4721 19.2081 15.468 19.4198 15.468L19.6662 15.4686C20.2709 15.4712 20.6704 15.8286 20.6836 16.3789C20.6901 16.6459 20.6047 16.8788 20.4366 17.0525C20.2532 17.2421 19.9894 17.3439 19.6738 17.3466L19.3473 17.3478L18.6422 17.346ZM28.5899 11.729L30.2218 6.02109C30.0172 5.93513 29.8341 5.89332 29.6657 5.89332C29.348 5.89332 29.0386 6.042 28.662 6.37556C28.0385 6.92757 27.2604 7.2314 26.4714 7.2314C25.6956 7.2314 24.9319 6.9367 24.321 6.40147C23.9153 6.04612 23.5724 5.88037 23.2423 5.88037C22.9111 5.88037 22.5664 6.04671 22.1566 6.40353C21.5304 6.94906 20.8067 7.22551 20.005 7.22551C19.8973 7.22551 19.7884 7.2205 19.6774 7.21079C18.9628 7.14749 18.3334 6.86103 17.7531 6.33493C17.4237 6.03611 17.1096 5.89067 16.7931 5.89067C16.6161 5.89067 16.4348 5.93454 16.242 6.02463L17.8768 11.729H28.5899Z" fill="white"/>
<path fill-rule="evenodd" clip-rule="evenodd" d="M18.6607 43.8338C17.9061 43.6787 17.1292 43.5918 16.4006 43.356C11.9335 41.9122 9.27005 38.8222 8.37182 34.2524C7.80509 31.3687 8.43542 28.664 10.0022 26.1869C11.8844 23.2116 13.7859 20.2484 15.6787 17.2799C15.7543 17.1616 15.8265 17.0406 15.8998 16.9216C13.8448 15.6336 14.2255 12.9654 16.1736 12.0763C15.8833 11.0591 15.5918 10.0355 15.2989 9.01271C15.0118 8.01055 14.7345 7.00545 14.4295 6.00859C14.285 5.53607 14.3733 5.14216 14.7878 4.89633C15.2571 4.61811 15.767 4.40791 16.2592 4.16797C16.5949 4.16797 16.9308 4.16797 17.2664 4.16797C17.9703 4.36404 18.5683 4.7294 19.1215 5.21223C19.6052 5.63411 20.3859 5.63234 20.8741 5.20604C21.4166 4.73205 22.0025 4.37111 22.6896 4.16826C23.0515 4.16826 23.4127 4.16826 23.7742 4.16826C24.4637 4.36522 25.0502 4.72498 25.5934 5.1978C26.0883 5.62881 26.8522 5.6347 27.3421 5.21075C27.8968 4.73117 28.4927 4.36287 29.1972 4.16826C29.5331 4.16826 29.8687 4.16826 30.2046 4.16826C30.6866 4.39937 31.1868 4.60016 31.6458 4.87042C32.0891 5.13185 32.173 5.53902 32.0235 6.0451C31.4647 7.93312 30.9333 9.82939 30.3922 11.7224C30.3607 11.8331 30.3345 11.9453 30.2992 12.0834C31.2524 12.5573 31.8622 13.2901 31.9263 14.3853C31.9902 15.482 31.4894 16.2907 30.5556 16.8878C30.6304 17.0164 30.6937 17.1368 30.7667 17.2511C32.632 20.176 34.4903 23.1053 36.3663 26.0232C37.7797 28.2227 38.4236 30.6159 38.249 33.2252C37.9304 37.9713 34.4029 42.2443 29.8051 43.4364C29.1477 43.6071 28.4709 43.7031 27.8032 43.8344C24.7555 43.8338 21.7081 43.8338 18.6607 43.8338ZM23.2484 13.4632C21.2736 13.4632 19.2987 13.4659 17.3238 13.4612C16.8489 13.46 16.4594 13.6096 16.2216 14.0382C15.8162 14.7677 16.3393 15.6077 17.2267 15.6298C18.0392 15.6501 18.853 15.6324 19.6661 15.6359C20.1807 15.6383 20.5063 15.9283 20.5175 16.3834C20.529 16.8574 20.1975 17.1754 19.6732 17.1801C19.0664 17.1857 18.4593 17.171 17.8534 17.1901C17.726 17.1942 17.5493 17.2731 17.4846 17.3747C15.3301 20.7421 13.1377 24.0863 11.06 27.5002C9.72521 29.6932 9.41196 32.1203 10.0358 34.6239C11.1884 39.2505 15.0431 42.2617 19.8089 42.2838C22.0935 42.2947 24.3784 42.2917 26.6632 42.2838C28.3255 42.2776 29.9079 41.9255 31.3899 41.1509C36.1148 38.6817 38.4751 32.3411 35.1769 27.0857C33.1413 23.8425 31.0655 20.6249 28.9967 17.4027C28.9255 17.2911 28.7409 17.1972 28.6051 17.1916C28.0122 17.1689 27.4178 17.1845 26.8243 17.181C26.2838 17.1777 25.952 16.8863 25.9464 16.4176C25.9405 15.9304 26.2734 15.6371 26.8411 15.6357C27.6283 15.6336 28.4161 15.6386 29.2031 15.6333C29.6615 15.6304 30.0345 15.4561 30.2535 15.0351C30.6457 14.2799 30.0913 13.4679 29.1736 13.465C27.1985 13.4588 25.2236 13.4632 23.2484 13.4632ZM30.4222 5.9294C29.7059 5.58229 29.1998 5.67768 28.5516 6.25148C27.336 7.32694 25.6419 7.33724 24.4314 6.2768C23.5758 5.52753 22.9113 5.52577 22.0473 6.27886C21.3698 6.86885 20.5879 7.12498 19.6923 7.04549C18.9837 6.98278 18.3884 6.68631 17.8655 6.21232C17.2646 5.66708 16.6917 5.58377 16.0437 5.93911C16.6114 7.91987 17.1807 9.90682 17.7513 11.8967C21.4184 11.8967 25.0652 11.8967 28.7158 11.8967C29.2867 9.90152 29.8525 7.924 30.4222 5.9294Z" fill="white"/>
<path fill-rule="evenodd" clip-rule="evenodd" d="M23.2134 38.0976C22.7162 38.0864 22.312 37.6742 22.294 37.1587C22.2875 36.9824 22.289 36.8057 22.2908 36.6176L22.2914 36.5102C21.4188 36.4516 20.6091 36.156 19.8213 35.6093C19.3856 35.3069 19.2628 34.7696 19.529 34.3319C19.7041 34.0445 19.9915 33.8799 20.318 33.8799C20.4799 33.8799 20.6403 33.9206 20.7955 34.0001C20.8715 34.0389 20.9442 34.0851 21.0166 34.1317C21.1082 34.1902 21.1944 34.2456 21.283 34.2806C21.5459 34.3843 21.8177 34.4761 22.1053 34.5736C22.1621 34.5927 22.2201 34.6124 22.2784 34.6322C22.2852 34.5556 22.2902 34.4964 22.2902 34.4367C22.2908 34.0545 22.2902 33.6724 22.2896 33.2903C22.2884 32.4215 22.287 31.5229 22.2993 30.6388C22.302 30.4498 22.2593 30.3854 22.0823 30.3091C21.8639 30.2158 21.656 30.0983 21.455 29.985C21.3864 29.9461 21.3175 29.9075 21.2483 29.8696C20.1896 29.2922 19.8443 28.424 19.7412 27.7975C19.5793 26.8142 19.9055 25.7125 20.5717 24.9904C21.0319 24.4916 21.5954 24.1681 22.2911 24.0038L22.2905 23.902C22.289 23.723 22.2872 23.544 22.2937 23.3653C22.3126 22.8283 22.6921 22.4485 23.2164 22.4414H23.2167C23.7658 22.4414 24.1523 22.8271 24.17 23.3794C24.1759 23.5563 24.1741 23.733 24.1723 23.8799L24.172 23.9317C24.329 24.0047 24.4841 24.0739 24.6366 24.1422C25.0558 24.3297 25.4518 24.507 25.8307 24.7289C26.1098 24.8929 26.2856 25.1588 26.3127 25.4588C26.3397 25.7558 26.2199 26.0423 25.9841 26.2454C25.7966 26.4062 25.5925 26.4877 25.3767 26.4877C25.2001 26.4877 25.0149 26.4324 24.8262 26.3223C24.6466 26.218 24.4547 26.1244 24.2521 26.0255C24.2312 26.0155 24.21 26.0052 24.1891 25.9949V29.1262C26.3427 29.8236 27.2945 31.1858 27.0172 33.1766C26.7919 34.7961 25.8348 35.884 24.1717 36.4118L24.1723 36.5564C24.1741 36.7542 24.1756 36.9503 24.1694 37.1464C24.1523 37.6798 23.7419 38.097 23.2346 38.097L23.2134 38.0976ZM24.2015 34.3251C24.8483 33.945 25.2116 33.2484 25.1624 32.4506C25.1265 31.8745 24.7723 31.4152 24.2015 31.1891V34.3251ZM22.2708 26.0552C21.8509 26.286 21.6016 26.7439 21.6066 27.3009C21.6107 27.7666 21.8174 28.0693 22.2708 28.26V26.0552Z" fill="white"/>
<path fill-rule="evenodd" clip-rule="evenodd" d="M24.0042 36.286C24.0042 36.5736 24.0113 36.8565 24.0027 37.1386C23.9883 37.5887 23.6371 37.9373 23.2176 37.9276C22.8095 37.9185 22.4763 37.5814 22.4609 37.1495C22.4518 36.8942 22.4592 36.6384 22.4592 36.3478C21.5003 36.3157 20.6707 35.9919 19.9167 35.4687C19.5496 35.2141 19.4545 34.7724 19.6717 34.4153C19.8923 34.0535 20.3197 33.9399 20.7192 34.1451C20.8909 34.2331 21.0443 34.3623 21.2218 34.4327C21.5995 34.5817 21.9875 34.7041 22.4271 34.8564C22.4421 34.6523 22.4571 34.5434 22.4574 34.4336C22.4592 33.1685 22.4489 31.9029 22.4662 30.6378C22.4698 30.3723 22.3779 30.2513 22.1483 30.1526C21.8654 30.0313 21.5998 29.8685 21.3284 29.7202C19.3538 28.6432 19.6273 26.2568 20.6942 25.1006C21.1664 24.5884 21.7455 24.279 22.4589 24.1353C22.4589 23.8794 22.4515 23.6236 22.4606 23.3686C22.4765 22.9214 22.7901 22.6114 23.2187 22.6055C23.6656 22.5997 23.988 22.915 24.0033 23.3822C24.011 23.6265 24.0045 23.8709 24.0045 24.0349C24.6213 24.3258 25.2089 24.5554 25.7462 24.8704C26.2405 25.1601 26.2767 25.771 25.8752 26.1163C25.574 26.3751 25.2528 26.3745 24.9104 26.1755C24.6378 26.0174 24.3481 25.8879 24.0222 25.7236C24.0222 26.9345 24.0222 28.0668 24.0222 29.2462C25.9232 29.8288 27.1535 30.9867 26.852 33.1512C26.6268 34.7704 25.6323 35.8055 24.0042 36.286ZM24.0348 30.9546C24.0348 32.177 24.0348 33.3787 24.0348 34.5926C24.9001 34.221 25.3885 33.3937 25.329 32.4369C25.2852 31.7268 24.8023 31.1645 24.0348 30.9546ZM22.438 25.799C21.8138 26.0015 21.4335 26.5827 21.4399 27.2993C21.4452 27.9069 21.7644 28.2899 22.438 28.4937C22.438 27.5966 22.438 26.7013 22.438 25.799Z" fill="white"/>
<path fill-rule="evenodd" clip-rule="evenodd" d="M23.2172 17.3465C22.7082 17.34 22.3022 16.9355 22.2922 16.4262C22.2875 16.1677 22.3808 15.9266 22.5551 15.7478C22.7288 15.5697 22.9661 15.4705 23.2231 15.4688C23.488 15.4688 23.7262 15.5653 23.9011 15.7408C24.076 15.916 24.1716 16.1532 24.1711 16.4091C24.1693 16.9349 23.7562 17.3468 23.2307 17.3468L23.2172 17.3465Z" fill="white"/>
<path fill-rule="evenodd" clip-rule="evenodd" d="M23.2243 15.6367C23.6659 15.6332 24.005 15.97 24.0039 16.4099C24.0024 16.8482 23.6582 17.1868 23.2193 17.1809C22.7977 17.1753 22.4671 16.8465 22.4591 16.4243C22.4512 15.9836 22.7847 15.64 23.2243 15.6367Z" fill="white"/>
</svg>
