<svg width="24" height="24" viewBox="0 0 24 24" fill="none" xmlns="http://www.w3.org/2000/svg">
<path fill-rule="evenodd" clip-rule="evenodd" d="M13.9766 2.00049C14.0196 2.00049 14.0618 2.00412 14.1028 2.01109L14.238 2.01189C14.442 2.01189 14.637 2.09489 14.779 2.24189L19.845 7.51889C19.978 7.65789 20.053 7.84489 20.053 8.03789V17.2279C20.069 19.7369 18.113 21.7759 15.6 21.8659H7.45995C5.01972 21.8134 3.06266 19.8415 3.00232 17.4261L3.00195 6.49089C3.06095 4.00989 5.10895 2.01189 7.57095 2.01189L13.8503 2.01109C13.8913 2.00412 13.9335 2.00049 13.9766 2.00049ZM13.226 3.51149L7.57395 3.51189C5.91695 3.51189 4.54095 4.85389 4.50195 6.50889V17.2279C4.46595 18.9289 5.80595 20.3289 7.49095 20.3659H15.574C17.243 20.3059 18.564 18.9289 18.553 17.2329L18.553 8.98349L16.5446 8.98449C14.7136 8.97949 13.2266 7.48749 13.2266 5.65949L13.226 3.51149ZM11.1434 9.15939C11.5574 9.15939 11.8934 9.49539 11.8934 9.90939L11.893 14.1315L12.9554 13.0654C13.2474 12.7714 13.7224 12.7714 14.0164 13.0634C14.3094 13.3554 14.3104 13.8304 14.0184 14.1244L11.6993 16.4536C11.6405 16.5185 11.5705 16.5731 11.4923 16.6143C11.4853 16.6165 11.479 16.6197 11.4727 16.6228C11.4436 16.6386 11.4128 16.6513 11.3811 16.6619C11.378 16.6615 11.375 16.6625 11.372 16.6634C11.3 16.6879 11.2231 16.7004 11.1434 16.7004C11.0658 16.7004 10.991 16.6886 10.9207 16.6667C10.9096 16.6625 10.8978 16.6586 10.8861 16.6543C10.8643 16.6471 10.8434 16.6383 10.8229 16.6286C10.8107 16.6223 10.7987 16.6163 10.7869 16.6099C10.7632 16.5975 10.7399 16.5832 10.7176 16.5678C10.7099 16.5622 10.7024 16.5568 10.6949 16.5512C10.6627 16.5274 10.6326 16.5008 10.6047 16.4721L8.26635 14.1244C7.97435 13.8304 7.97535 13.3554 8.26835 13.0634C8.56235 12.7714 9.03735 12.7714 9.32935 13.0654L10.393 14.1335L10.3934 9.90939C10.3934 9.49539 10.7294 9.15939 11.1434 9.15939ZM14.726 4.35249L14.7266 5.65949C14.7266 6.66349 15.5426 7.48149 16.5466 7.48449L17.731 7.48349L14.726 4.35249Z" fill="#FF179C"/>
</svg>
