<svg width="32" height="32" viewBox="0 0 32 32" fill="none" xmlns="http://www.w3.org/2000/svg">
<path fill-rule="evenodd" clip-rule="evenodd" d="M6.76568 3.08099C4.81253 3.47865 3.35911 4.99249 3.05466 6.94624C3.00446 7.26848 2.99152 9.69422 3.00498 16.273C3.02483 25.9707 2.99941 25.2228 3.3406 26.136C3.72537 27.1658 4.85356 28.2954 5.88315 28.6816C6.79052 29.022 6.08174 28.9997 15.9932 28.9997C25.9046 28.9997 25.1958 29.022 26.1032 28.6816C27.1331 28.2953 28.2605 27.1664 28.6462 26.1351C28.9794 25.2446 28.9639 25.5479 28.9639 19.9239C28.9639 14.7804 28.963 14.7403 28.8443 14.581C28.6169 14.2761 28.4314 14.1809 28.0644 14.1809C27.6974 14.1809 27.512 14.2761 27.2845 14.581C27.1663 14.7395 27.1645 14.8037 27.1358 19.8656C27.107 24.9441 27.1057 24.9926 26.9819 25.2947C26.5948 26.2396 25.9293 26.8417 25.0064 27.0824C24.7189 27.1574 23.5007 27.1691 15.9932 27.1691C8.38554 27.1691 7.27018 27.1582 6.97124 27.0802C5.97026 26.8191 5.19927 26.0445 4.93713 25.0368C4.80667 24.5352 4.80667 7.48774 4.93713 6.98617C5.17751 6.06194 5.77886 5.39562 6.72245 5.00795C7.02411 4.88399 7.07257 4.88266 12.1442 4.85383C17.1993 4.82513 17.2634 4.82332 17.4218 4.70495C17.7263 4.47726 17.8213 4.29153 17.8213 3.92403C17.8213 3.55652 17.7263 3.37079 17.4217 3.14311C17.263 3.02438 17.2141 3.02316 12.2022 3.01375C8.2072 3.00619 7.06357 3.02037 6.76568 3.08099ZM23.0444 3.07791C22.9486 3.12149 19.8752 6.16044 16.2145 9.83125C10.4711 15.5906 9.55395 16.5333 9.52331 16.7088C9.50376 16.8207 9.49557 18.0414 9.50503 19.4214C9.5218 21.851 9.5261 21.9357 9.64199 22.091C9.7078 22.1792 9.83374 22.3053 9.92184 22.3712C10.077 22.4873 10.1616 22.4916 12.6168 22.5089C14.2416 22.5202 15.2246 22.5051 15.3548 22.4667C15.5138 22.4198 17.0088 20.9528 22.2427 15.7079C28.1994 9.73856 28.9317 8.98519 28.9666 8.79097C29.0627 8.25703 29.1316 8.34322 26.4499 5.64684C25.0483 4.2376 23.8919 3.12126 23.7862 3.07535C23.5529 2.974 23.2709 2.97493 23.0444 3.07791ZM25.1047 6.9169L26.758 8.57317L26.0183 9.31382L25.2785 10.0545L23.6106 8.38436L21.9427 6.7142L22.6668 5.98738C23.065 5.58768 23.4045 5.26062 23.4212 5.26062C23.4377 5.26062 24.1954 6.00592 25.1047 6.9169ZM22.3191 9.70637L23.9724 11.3627L19.3301 16.0116L14.6877 20.6605H13.019H11.3504V18.9899V17.3193L15.9786 12.6846C18.524 10.1356 20.6199 8.05004 20.6362 8.05004C20.6524 8.05004 21.4097 8.79539 22.3191 9.70637Z" fill="#1E1142"/>
</svg>
