<svg width="36" height="36" viewBox="0 0 36 36" fill="none" xmlns="http://www.w3.org/2000/svg">
<path d="M24.5007 3C29.5847 3 33 6.56717 33 11.8751V24.1249C33 29.4328 29.5847 33 24.4992 33H11.4993C6.41534 33 3 29.4328 3 24.1249V11.8751C3 6.56717 6.41534 3 11.4993 3H24.5007ZM26.1549 18.8251C24.547 17.822 23.3056 19.2306 22.9707 19.6811C22.6479 20.1161 22.3704 20.596 22.0778 21.0759C21.3628 22.2601 20.5438 23.6254 19.1259 24.4195C17.0655 25.5604 15.5013 24.5093 14.3761 23.7446C13.9537 23.4598 13.5434 23.1904 13.1347 23.0108C12.1271 22.5759 11.2206 23.0712 9.8751 24.7802C9.16919 25.6734 8.46931 26.5588 7.76038 27.4412C7.33652 27.969 7.43759 28.7833 8.00926 29.1362C8.92182 29.6981 10.035 30 11.293 30H23.9346C24.648 30 25.363 29.9025 26.0448 29.6796C27.5803 29.178 28.7991 28.0294 29.4356 26.5124C29.9726 25.2368 30.2335 23.6889 29.7312 22.4009C29.5638 21.9737 29.3134 21.5759 28.962 21.226C28.0403 20.3111 27.1791 19.4567 26.1549 18.8251ZM12.7483 9C10.6803 9 9 10.6826 9 12.75C9 14.8174 10.6803 16.5 12.7483 16.5C14.8147 16.5 16.4966 14.8174 16.4966 12.75C16.4966 10.6826 14.8147 9 12.7483 9Z" fill="#717972"/>
</svg>
