<svg width="28" height="28" viewBox="0 0 28 28" fill="none" xmlns="http://www.w3.org/2000/svg">
<path d="M19.611 2H8.40037C4.31503 2 2.00037 4.31467 2.00037 8.4V19.6C2.00037 23.6853 4.31503 26 8.40037 26H19.611C23.6964 26 26.0004 23.6853 26.0004 19.6V8.4C26.0004 4.31467 23.6964 2 19.611 2Z" fill="#2563EA"/>
<path d="M19.4316 11.2107L19.4314 11.2106C19.0991 10.9512 18.6229 11.0128 18.3654 11.3464L18.3653 11.3465L15.7005 14.7848L15.6696 14.8246L15.6301 14.7935L12.5839 12.4008L12.5836 12.4006C12.4246 12.274 12.2243 12.2173 12.0195 12.2437L12.0194 12.2437C11.8186 12.269 11.6352 12.3735 11.5116 12.5346L11.5116 12.5346L8.27853 16.7366L8.27849 16.7366C8.02217 17.0689 8.08487 17.5463 8.41738 17.8028C8.55528 17.9082 8.7184 17.9599 8.88054 17.9599C9.10864 17.9599 9.33358 17.8575 9.48363 17.6629L19.4316 11.2107ZM19.4316 11.2107C19.7641 11.4682 19.8248 11.9455 19.5674 12.2768L19.5674 12.2769L16.4024 16.36L16.4024 16.3601C16.2787 16.5203 16.0963 16.6246 15.8958 16.6489L15.8951 16.649C15.6932 16.6762 15.4927 16.6178 15.332 16.4928C15.332 16.4928 15.332 16.4927 15.332 16.4927L12.2881 14.1013L12.2484 14.0701L12.2176 14.1101L9.48366 17.6629L19.4316 11.2107Z" fill="white" stroke="#2563EA" stroke-width="0.1"/>
</svg>
