<svg width="28" height="28" viewBox="0 0 28 28" fill="none" xmlns="http://www.w3.org/2000/svg">
<path d="M19.4545 2.33398H8.55523C4.58338 2.33398 2.33301 4.58436 2.33301 8.55621V19.4451C2.33301 23.4169 4.58338 25.6673 8.55523 25.6673H19.4545C23.4263 25.6673 25.6663 23.4169 25.6663 19.4451V8.55621C25.6663 4.58436 23.4263 2.33398 19.4545 2.33398Z" fill="#2563EA"/>
<path fill-rule="evenodd" clip-rule="evenodd" d="M19.9997 14.1602C19.9847 16.7235 18.187 19.0721 15.527 19.8008C13.2671 20.4196 10.7578 19.5772 9.30448 17.7107C8.33228 16.463 7.89709 15.0456 8.02186 13.4735C8.15162 11.8365 8.86031 10.4731 10.09 9.38409C10.3476 9.15651 10.7069 9.17946 10.9345 9.42601C11.162 9.67255 11.1541 10.0479 10.8915 10.2814C10.3895 10.7296 9.97624 11.2436 9.68578 11.8535C8.34726 14.6663 9.91934 17.9931 12.9557 18.6699C15.6647 19.2738 18.3058 17.4861 18.724 14.7561C18.9915 13.0084 18.4595 11.5231 17.1509 10.3263C16.9373 10.1307 16.8275 9.91211 16.9144 9.62863C17.0441 9.20142 17.5522 9.07366 17.9036 9.3781C18.5424 9.93107 19.0474 10.5879 19.4108 11.3514C19.804 12.1739 20.0007 13.0423 19.9997 14.1602Z" fill="white"/>
<path fill-rule="evenodd" clip-rule="evenodd" d="M13.3977 11.012C13.3977 10.2295 13.3967 9.44692 13.3987 8.66437C13.3997 8.28008 13.6193 8.02555 13.9617 8.0016C14.2841 7.97864 14.5576 8.20522 14.5955 8.52762C14.6025 8.58352 14.6045 8.63942 14.6045 8.69531C14.6045 10.2415 14.6045 11.7876 14.6055 13.3337C14.6055 13.4954 14.5885 13.6501 14.4877 13.7869C14.342 13.9835 14.0924 14.0773 13.8529 14.0185C13.6183 13.9606 13.4336 13.7569 13.4097 13.5124C13.3957 13.3687 13.3987 13.2219 13.3987 13.0772C13.3967 12.3895 13.3977 11.7007 13.3977 11.012Z" fill="white"/>
</svg>
