<svg width="28" height="28" viewBox="0 0 28 28" fill="none" xmlns="http://www.w3.org/2000/svg">
<path d="M19.6107 2H8.4C4.31467 2 2 4.31467 2 8.4V19.6C2 23.6853 4.31467 26 8.4 26H19.6107C23.696 26 26 23.6853 26 19.6V8.4C26 4.31467 23.696 2 19.6107 2Z" fill="#2563EA"/>
<path fill-rule="evenodd" clip-rule="evenodd" d="M16.8683 7.33398C17.9403 7.33398 18.865 7.69198 19.5416 8.36998C20.249 9.07798 20.637 10.108 20.6356 11.2707L20.6366 15.9349C20.6378 15.9529 20.638 15.9709 20.6372 15.9888L20.6356 16.7007C20.6356 19.0547 19.1203 20.6367 16.865 20.6367H11.101C8.84762 20.6367 7.33362 19.0547 7.33362 16.7007V11.27C7.33362 8.91598 8.84762 7.33398 11.101 7.33398H16.8683ZM17.0527 14.5555C16.6607 14.5555 16.2007 15.2042 15.7934 15.7769C15.2347 16.5635 14.6567 17.3775 13.786 17.3775C13.1974 17.3775 12.658 17.1509 12.1827 16.9502C11.4267 16.6315 11.084 16.5295 10.7487 16.8055C10.0774 17.3587 9.41414 18.3659 9.10937 18.8616C9.5904 19.3576 10.2737 19.6367 11.101 19.6367H16.865C18.5483 19.6367 19.6356 18.4847 19.6356 16.7007L19.6356 16.168L19.6202 16.1518C19.0366 15.5505 18.0289 14.5555 17.0527 14.5555ZM16.8683 8.33398H11.101C9.42028 8.33398 8.33362 9.48665 8.33362 11.27V16.7007C8.33362 17.1464 8.40145 17.5526 8.52943 17.9114C8.91522 17.3289 9.49788 16.5402 10.1134 16.0335C10.948 15.3469 11.8467 15.7242 12.5707 16.0289C12.9967 16.2082 13.3994 16.3775 13.786 16.3775C14.1407 16.3775 14.5854 15.7509 14.9787 15.1982C15.5247 14.4275 16.1447 13.5555 17.0527 13.5555C18.0492 13.5555 18.9517 14.1679 19.6363 14.7756L19.6356 11.27C19.637 10.3613 19.3596 9.60265 18.8343 9.07665C18.349 8.59065 17.6696 8.33398 16.8683 8.33398ZM11.905 10.127C12.859 10.1277 13.635 10.9037 13.6356 11.857V11.8577C13.6356 12.8117 12.8596 13.5877 11.905 13.5877C10.9503 13.5877 10.1743 12.8117 10.1743 11.8577C10.1743 10.903 10.9503 10.127 11.905 10.127ZM11.9043 11.127C11.5016 11.127 11.1743 11.4543 11.1743 11.8577C11.1743 12.2603 11.5016 12.5877 11.905 12.5877C12.3076 12.5877 12.6356 12.2603 12.6356 11.8583C12.635 11.455 12.307 11.1277 11.9043 11.127Z" fill="white"/>
</svg>
