<svg width="20" height="20" viewBox="0 0 20 20" fill="none" xmlns="http://www.w3.org/2000/svg">
<g clip-path="url(#clip0_1073_24100)">
<path d="M10.3996 15.504V14.5224L10.6693 14.475C11.3445 14.3584 12.9146 13.8955 12.9146 12.1148C12.9205 11.2415 12.6541 10.2566 10.6352 9.55811C9.34064 9.12936 8.2184 8.75722 8.2184 7.66995C8.2184 6.70756 9.16248 6.18806 10.0499 6.18806C10.9457 6.18806 11.5193 6.68258 11.8016 7.20374L12.5217 6.8982C12.3036 6.46696 11.7774 5.72518 10.6768 5.5337L10.4079 5.48708V4.49805H9.60039V5.48458L9.34397 5.53953C7.4733 5.94247 7.41918 7.50927 7.41918 7.6866C7.41918 9.22593 8.85445 9.73293 9.80435 10.0684L9.99417 10.1359C11.2971 10.5988 12.1063 11.0941 12.1063 12.1323C12.1063 13.2761 11.0831 13.7965 10.1332 13.7965C8.98432 13.7965 8.26919 13.0047 7.93618 12.1622L7.15527 12.4778C7.62898 13.7648 8.59387 14.256 9.34397 14.4383L9.59206 14.4983V15.5031H10.3996V15.504Z" fill="white"/>
<path d="M10 2C5.58851 2 1.99951 5.589 1.99951 10.0005C1.99951 14.412 5.58851 18.001 10 18.001C14.4116 18.001 18.0006 14.4112 18.0006 10.0005C18.0006 5.58983 14.4116 2 10 2ZM10 16.9854C6.14879 16.9854 3.01519 13.8518 3.01519 10.0005C3.01519 6.14928 6.14879 3.01567 10 3.01567C13.8513 3.01567 16.9849 6.14928 16.9849 10.0005C16.9849 13.8518 13.8513 16.9854 10 16.9854Z" fill="white"/>
</g>
<defs>
<clipPath id="clip0_1073_24100">
<rect width="20" height="20" fill="white"/>
</clipPath>
</defs>
</svg>
