<svg width="24" height="24" viewBox="0 0 24 24" fill="none" xmlns="http://www.w3.org/2000/svg">
<rect x="0.5" y="0.5" width="23" height="23" rx="3.5" fill="white" stroke="#D19C97"/>
<path d="M16.5 11.9996C16.5 12.2269 16.4097 12.4448 16.249 12.6056C16.0883 12.7663 15.8703 12.8566 15.643 12.8566H8.357C8.24446 12.8566 8.13302 12.8344 8.02904 12.7913C7.92506 12.7483 7.83059 12.6851 7.75101 12.6056C7.67143 12.526 7.6083 12.4315 7.56524 12.3275C7.52217 12.2236 7.5 12.1121 7.5 11.9996C7.5 11.887 7.52217 11.7756 7.56524 11.6716C7.6083 11.5676 7.67143 11.4732 7.75101 11.3936C7.83059 11.314 7.92506 11.2509 8.02904 11.2078C8.13302 11.1647 8.24446 11.1426 8.357 11.1426H15.643C15.8703 11.1426 16.0883 11.2329 16.249 11.3936C16.4097 11.5543 16.5 11.7723 16.5 11.9996Z" fill="#D19C97"/>
</svg>
