<svg width="72" height="72" viewBox="0 0 72 72" fill="none" xmlns="http://www.w3.org/2000/svg">
<path fill-rule="evenodd" clip-rule="evenodd" d="M25.3508 7.48828C26.2867 7.55269 26.8894 8.04248 27.2487 8.90227C27.4864 9.47067 27.7744 10.0208 28.0754 10.5591C28.9404 12.106 30.2828 12.8517 32.0439 12.8409C32.8476 12.836 33.6547 12.733 34.4538 12.7814C35.6484 12.8535 36.4109 14.0573 35.9154 15.1296C35.7218 15.5485 35.2815 15.8936 34.8813 16.1662C34.4219 16.4791 33.8817 16.6722 33.378 16.9206C31.5614 17.8166 30.676 19.2666 30.7597 21.3022C30.7912 22.0674 30.8421 22.8365 30.7999 23.599C30.7596 24.3259 30.2179 24.8774 29.5001 25.0366C28.7772 25.1969 28.1528 25.0113 27.718 24.3935C27.483 24.0595 27.3092 23.6818 27.1157 23.3194C26.8164 22.7589 26.5778 22.157 26.2178 21.6392C25.2739 20.2822 23.9256 19.7122 22.2908 19.7883C21.6926 19.8162 21.0951 19.8636 20.4967 19.8838C19.5157 19.9171 18.7918 19.4266 18.5629 18.5922C18.3296 17.742 18.681 16.9869 19.57 16.5063C20.1623 16.1859 20.7825 15.9173 21.3782 15.6029C23.0489 14.7215 23.8463 13.3203 23.8068 11.4398C23.7954 10.8975 23.7865 10.3521 23.7248 9.81394C23.6188 8.89017 23.908 8.16623 24.6975 7.65703C24.915 7.60064 25.133 7.54453 25.3508 7.48828ZM25.4768 9.3382C25.5338 11.2373 25.6987 13.1022 24.6682 14.8261C23.6458 16.5365 21.9111 17.2595 20.2494 18.1295C22.1444 18.0706 24.0056 17.8861 25.7363 18.8938C27.4747 19.9062 28.2097 21.6457 29.0951 23.3193C29.0278 21.4249 28.8591 19.5657 29.8705 17.8408C30.8863 16.1083 32.6245 15.3813 34.2944 14.5011C32.4071 14.5516 30.5398 14.7444 28.8153 13.7305C27.0953 12.7192 26.3539 11.001 25.4768 9.3382Z" fill="#2563EA"/>
<path fill-rule="evenodd" clip-rule="evenodd" d="M45.3578 24.5918C44.8094 24.2581 44.5087 23.6005 44.6821 22.941C44.834 22.3643 45.0633 21.8075 45.2657 21.2446C45.761 19.8666 45.4811 18.6701 44.4347 17.6493C44.0594 17.2832 43.6669 16.9329 43.3144 16.5461C42.7904 15.9708 42.7218 15.2274 43.0978 14.6285C43.4721 14.0328 44.1827 13.7662 44.9195 13.9924C45.4557 14.157 45.9704 14.3894 46.5015 14.5718C47.8137 15.0222 48.9737 14.7628 49.9637 13.7878C50.3372 13.4201 50.6828 13.0238 51.0632 12.6637C51.6794 12.0802 52.4437 11.9849 53.0649 12.3869C53.6746 12.7815 53.9126 13.4845 53.6655 14.2691C53.5081 14.7684 53.2976 15.2505 53.1224 15.7446C52.6507 17.0765 52.9124 18.2507 53.9039 19.2562C54.2851 19.6428 54.6988 19.9981 55.0668 20.3964C55.6063 20.9804 55.6801 21.7704 55.2875 22.3595C54.8964 22.9465 54.1972 23.1914 53.4517 22.9601C52.934 22.7995 52.4352 22.579 51.9226 22.3999C50.5896 21.9338 49.4161 22.199 48.414 23.1948C48.0156 23.5905 47.6486 24.02 47.2313 24.3943C46.6754 24.8937 45.9466 24.9501 45.3578 24.5918ZM45.2151 15.965C47.252 17.8069 47.7175 19.9569 46.675 22.4799C48.5048 20.4379 50.6624 19.9579 53.1878 20.9957C51.1362 19.1516 50.6873 16.9945 51.726 14.4749C49.8899 16.5356 47.7332 17.0001 45.2151 15.965Z" fill="#FF179C"/>
<path fill-rule="evenodd" clip-rule="evenodd" d="M37.7803 53.136C37.7801 55.4406 37.7884 57.7452 37.7697 60.0494C37.7675 60.3301 37.6983 60.6844 37.5197 60.868C37.3483 61.0446 36.9552 61.1633 36.7314 61.0895C36.4803 61.0068 36.2742 60.7017 36.1182 60.4502C36.0327 60.3121 36.0842 60.0849 36.0842 59.8978C36.0831 55.3451 36.0834 50.7921 36.0834 46.2394C36.0834 46.1831 36.0827 46.1269 36.0835 46.0708C36.0943 45.3808 36.4206 44.9744 36.9521 44.9886C37.4654 45.0023 37.777 45.391 37.7787 46.0537C37.7835 48.0585 37.7806 50.0632 37.7806 52.068C37.7803 52.424 37.7803 52.78 37.7803 53.136Z" fill="#1E1142"/>
<path fill-rule="evenodd" clip-rule="evenodd" d="M22.8958 23.2559C23.1942 23.4384 23.4489 23.5328 23.6203 23.7083C26.5698 26.7268 29.1324 30.0232 30.8764 33.9008C30.93 34.02 30.9851 34.1398 31.0229 34.2644C31.1664 34.7365 31.0537 35.1221 30.597 35.3514C30.1735 35.5643 29.7117 35.3886 29.4713 34.9192C29.2669 34.5202 29.1082 34.0979 28.9051 33.6983C27.3481 30.6347 25.2844 27.9367 22.9378 25.4437C22.7069 25.1985 22.4125 24.9805 22.2756 24.6895C22.1568 24.437 22.1273 24.0615 22.2294 23.8098C22.321 23.5837 22.6453 23.4518 22.8958 23.2559Z" fill="#1E1142"/>
<path fill-rule="evenodd" clip-rule="evenodd" d="M39.1202 32.1643C39.3085 30.696 39.5006 29.1733 39.6996 27.6519C39.9497 25.7407 40.2019 23.8296 40.461 21.9195C40.5519 21.2491 40.8904 20.9375 41.4245 20.9975C41.9459 21.0562 42.229 21.4751 42.145 22.1265C41.705 25.5417 41.2587 28.956 40.808 32.3699C40.7348 32.9235 40.3424 33.2651 39.8753 33.2223C39.3998 33.1787 39.105 32.7878 39.1202 32.1643Z" fill="#1E1142"/>
<path fill-rule="evenodd" clip-rule="evenodd" d="M49.2522 27.2724C49.0714 27.6082 48.9735 27.8731 48.8076 28.0849C47.1628 30.1859 45.6818 32.3851 44.621 34.8486C44.3914 35.3814 43.9314 35.5598 43.4776 35.3644C43.0225 35.1682 42.8553 34.6686 43.0891 34.1257C44.0502 31.8943 45.3178 29.8448 46.7957 27.9218C47.0924 27.5359 47.3513 27.1011 47.7166 26.7951C47.9291 26.6171 48.3491 26.5431 48.6193 26.6202C48.8631 26.6898 49.0302 27.0288 49.2522 27.2724Z" fill="#1E1142"/>
<path fill-rule="evenodd" clip-rule="evenodd" d="M34.9616 28.4947C34.9616 29.7102 34.9657 30.9261 34.9601 32.1416C34.9568 32.8336 34.6297 33.2301 34.093 33.2178C33.5752 33.206 33.2689 32.8266 33.2678 32.1616C33.2637 29.6929 33.2634 27.2241 33.2679 24.7553C33.2692 24.0965 33.5836 23.7151 34.1011 23.7091C34.6359 23.7029 34.9574 24.0993 34.9601 24.7914C34.9653 26.0259 34.9616 27.2603 34.9616 28.4947Z" fill="#1E1142"/>
<path fill-rule="evenodd" clip-rule="evenodd" d="M59.7659 39.9043C57.9984 38.0664 56.2337 36.2253 54.448 34.4046C54.1965 34.1481 53.8577 33.9389 53.5201 33.8112C52.1024 33.2748 50.6697 32.7777 49.2425 32.2667C49.1368 32.2287 49.0324 32.185 48.9241 32.1573C48.393 32.0216 47.9586 32.2062 47.8005 32.6301C47.626 33.0982 47.8259 33.5372 48.3625 33.7493C49.0583 34.0241 49.7699 34.2591 50.4728 34.5161C50.6125 34.567 50.7443 34.6397 50.9227 34.7224C50.8042 34.7896 50.7596 34.8245 50.7088 34.8425C46.2316 36.441 41.7554 38.042 37.2725 39.6243C37.0526 39.7021 36.7536 39.6758 36.5269 39.5965C33.6836 38.5982 30.8472 37.5809 28.0088 36.5697C26.3384 35.9744 24.6672 35.3808 22.9963 34.7866C22.9936 34.7455 22.9911 34.7046 22.9885 34.6636C23.8146 34.3668 24.6434 34.0778 25.4654 33.7704C26.0852 33.5385 26.333 33.1044 26.1548 32.6145C25.9816 32.138 25.5032 31.9725 24.8788 32.174C24.8077 32.1971 24.7392 32.2282 24.6687 32.2533C23.2408 32.763 21.8062 33.2544 20.3894 33.7935C20.0188 33.9345 19.65 34.1694 19.3725 34.4516C17.637 36.2161 15.928 38.0067 14.2093 39.7879C13.3539 40.6742 13.4841 41.2722 14.6281 41.68C17.4136 42.6732 20.1998 43.6642 22.9856 44.6563C23.1202 44.7043 23.2543 44.7538 23.3883 44.8036V44.8037L23.3975 44.8069C23.6327 44.8943 23.868 44.9813 24.1054 45.0612L24.7029 45.2758C24.7565 45.3005 24.8127 45.3243 24.873 45.3464C25.0781 45.4213 25.4578 45.5534 25.9249 45.7148L25.9258 45.7151C27.342 46.2045 29.5619 46.9655 30.1632 47.2358C31.0302 47.6255 31.6292 47.4604 32.2757 46.7466C33.7715 45.0946 35.3569 43.5237 36.9835 41.8396C37.1327 42.032 37.2454 42.2078 37.3873 42.3556C38.8814 43.9106 40.3896 45.452 41.8715 47.0183C42.3035 47.4747 42.7355 47.572 43.3274 47.359C48.6638 45.4396 54.0075 43.5399 59.3476 41.6305C60.3319 41.2788 60.4828 40.6496 59.7659 39.9043ZM35.2668 41.1442C33.8788 42.5929 32.4939 44.0446 31.0881 45.4757C30.9883 45.5774 30.7139 45.5875 30.554 45.5364C29.973 45.3502 27.7822 44.5748 26.4255 44.0961L24.8581 43.5223C24.7669 43.4845 24.6741 43.4498 24.5811 43.4167C24.4375 43.3655 24.294 43.3143 24.1504 43.2631L24.1438 43.2606C21.6453 42.3695 19.1464 41.4792 16.6479 40.5882C16.4592 40.5208 16.273 40.4457 16.0304 40.3532C17.4337 38.899 18.7983 37.5082 20.1303 36.0869C20.4269 35.7704 20.6705 35.749 21.0511 35.8862C24.6251 37.1755 28.2056 38.4467 31.7838 39.7245C32.9584 40.1439 34.1317 40.5674 35.2979 40.9863C35.2813 41.0763 35.2873 41.123 35.2668 41.1442ZM52.0958 42.4134C49.2061 43.4457 46.3154 44.4752 43.4306 45.5213C43.0857 45.6463 42.8711 45.6145 42.6074 45.333C41.3904 44.0332 40.1439 42.7608 38.9097 41.4774C38.7842 41.347 38.6685 41.2075 38.4968 41.0141C39.7502 40.5627 40.9396 40.1311 42.1311 39.7056C45.6906 38.4345 49.2536 37.1737 52.8069 35.8858C53.2271 35.7335 53.469 35.8047 53.7681 36.1231C55.0891 37.5289 56.4393 38.9073 57.8465 40.3656C55.8623 41.0719 53.9785 41.7409 52.0958 42.4134Z" fill="#1E1142"/>
<path fill-rule="evenodd" clip-rule="evenodd" d="M54.4318 51.9948C54.4318 50.3837 54.4326 46.1008 54.4314 44.4896C54.431 44.0402 54.452 43.5882 54.4134 43.1417C54.3722 42.6671 54.0712 42.3897 53.5949 42.3829C53.1158 42.3762 52.8322 42.6562 52.754 43.1229C52.7232 43.3057 52.7373 43.4965 52.7373 43.6837C52.7366 47.2245 52.7288 53.437 52.7471 56.9777C52.7494 57.3893 52.6159 57.5638 52.2366 57.6887C51.3323 57.9864 50.4364 58.3107 49.5413 58.6365V58.6364L45.1539 60.198C45.1536 60.1981 45.1535 60.1982 45.1532 60.1983C45.1511 60.199 45.1491 60.1998 45.147 60.2005L44.5672 60.407L44.5678 60.4081C42.1914 61.2592 39.8171 62.1161 37.4332 62.9458C37.1445 63.0462 36.761 63.0575 36.4755 62.9568C31.5171 61.2101 26.5691 59.4339 21.6118 57.6839C21.2166 57.5444 21.1191 57.3491 21.1207 56.9572C21.135 53.4335 21.1293 47.3786 21.1287 43.8547C21.1287 43.6674 21.1391 43.478 21.1159 43.2932C21.0563 42.8201 20.7809 42.5487 20.3025 42.5212C19.8486 42.495 19.4994 42.8211 19.4428 43.3057C19.4255 43.4539 19.4322 43.6052 19.4322 43.755C19.4318 47.5599 19.4315 53.8959 19.4322 57.7008C19.4322 58.5905 19.5387 58.7379 20.393 59.0425C24.0758 60.3562 27.7603 61.6647 31.4409 62.9846C33.1811 63.6086 34.9136 64.2536 36.6496 64.8891C36.8372 64.8891 37.0247 64.8891 37.2123 64.8891C37.3803 64.8139 37.5446 64.727 37.7177 64.6651C40.2439 63.762 42.7715 62.8627 45.2979 61.9607V61.9609L45.4208 61.9169C45.5314 61.8774 45.6419 61.838 45.7524 61.7985C45.7585 61.7962 45.764 61.794 45.77 61.7917L49.9903 60.281L49.9902 60.2803C51.1969 59.8543 52.3991 59.415 53.6107 59.0034C54.2164 58.7977 54.4502 58.4218 54.4414 57.7833C54.4149 55.8544 54.4318 53.9244 54.4318 51.9948Z" fill="#1E1142"/>
</svg>
