<svg width="28" height="28" viewBox="0 0 28 28" fill="none" xmlns="http://www.w3.org/2000/svg">
<path d="M19.611 2H8.40037C4.31503 2 2.00037 4.31467 2.00037 8.4V19.6C2.00037 23.6853 4.31503 26 8.40037 26H19.611C23.6964 26 26.0004 23.6853 26.0004 19.6V8.4C26.0004 4.31467 23.6964 2 19.611 2Z" fill="#2563EA"/>
<path fill-rule="evenodd" clip-rule="evenodd" d="M10.1671 14.6673C12.8797 14.6673 13.0004 15.5873 13.0004 17.5007C13.0004 18.4593 13.0004 19.1413 12.5977 19.6407C12.1344 20.216 11.2911 20.334 10.1671 20.334C9.04307 20.334 8.19974 20.216 7.73641 19.6407C7.33374 19.1413 7.33374 18.46 7.33374 17.5173L7.83374 17.5007H7.33374C7.33374 15.5873 7.45441 14.6673 10.1671 14.6673ZM17.5004 14.6673C20.2131 14.6673 20.3337 15.5873 20.3337 17.5007C20.3337 18.4593 20.3337 19.1413 19.9311 19.6407C19.4677 20.216 18.6244 20.334 17.5004 20.334C16.3764 20.334 15.5331 20.216 15.0697 19.6407C14.6671 19.1413 14.6671 18.46 14.6671 17.5173L15.1671 17.5007H14.6671C14.6671 15.5873 14.7877 14.6673 17.5004 14.6673ZM10.3045 15.6676L10.1671 15.6673C8.42776 15.6673 8.33856 15.7921 8.33399 17.252L8.33427 17.8208C8.33743 18.4014 8.35955 18.8208 8.51441 19.014C8.69107 19.2327 9.21574 19.334 10.1671 19.334C11.1184 19.334 11.6431 19.232 11.8197 19.0133C12.0004 18.7887 12.0004 18.2553 12.0004 17.5167C12.0004 15.8498 12.0004 15.6755 10.3045 15.6676ZM17.6378 15.6676L17.5004 15.6673C15.7611 15.6673 15.6719 15.7921 15.6673 17.252L15.6676 17.8208C15.6708 18.4014 15.6929 18.8208 15.8477 19.014C16.0244 19.2327 16.5491 19.334 17.5004 19.334C18.4517 19.334 18.9764 19.232 19.1531 19.0133C19.3337 18.7887 19.3337 18.2553 19.3337 17.5167C19.3337 15.8498 19.3337 15.6755 17.6378 15.6676ZM10.1671 7.33398C12.8797 7.33398 13.0004 8.25398 13.0004 10.1673C13.0004 11.126 13.0004 11.808 12.5977 12.3073C12.1344 12.8827 11.2911 13.0007 10.1671 13.0007C9.04307 13.0007 8.19974 12.8827 7.73641 12.3073C7.33374 11.808 7.33374 11.1267 7.33374 10.184L7.83374 10.1673H7.33374C7.33374 8.25398 7.45441 7.33398 10.1671 7.33398ZM17.5004 7.33398C20.2131 7.33398 20.3337 8.25398 20.3337 10.1673C20.3337 11.126 20.3337 11.808 19.9311 12.3073C19.4677 12.8827 18.6244 13.0007 17.5004 13.0007C16.3764 13.0007 15.5331 12.8827 15.0697 12.3073C14.6671 11.808 14.6671 11.1267 14.6671 10.184L15.1671 10.1673H14.6671C14.6671 8.25398 14.7877 7.33398 17.5004 7.33398ZM10.3045 8.33428L10.1671 8.33398C8.42776 8.33398 8.33856 8.45879 8.33399 9.91868L8.33427 10.4874C8.33743 11.0681 8.35955 11.4875 8.51441 11.6807C8.69107 11.8993 9.21574 12.0007 10.1671 12.0007C11.1184 12.0007 11.6431 11.8987 11.8197 11.68C12.0004 11.4553 12.0004 10.922 12.0004 10.1833C12.0004 8.51651 12.0004 8.34213 10.3045 8.33428ZM17.6378 8.33428L17.5004 8.33398C15.7611 8.33398 15.6719 8.45879 15.6673 9.91868L15.6676 10.4874C15.6708 11.0681 15.6929 11.4875 15.8477 11.6807C16.0244 11.8993 16.5491 12.0007 17.5004 12.0007C18.4517 12.0007 18.9764 11.8987 19.1531 11.68C19.3337 11.4553 19.3337 10.922 19.3337 10.1833C19.3337 8.51651 19.3337 8.34213 17.6378 8.33428Z" fill="white"/>
</svg>
