<svg width="28" height="28" viewBox="0 0 28 28" fill="none" xmlns="http://www.w3.org/2000/svg">
<path d="M19.611 2H8.40037C4.31503 2 2.00037 4.31467 2.00037 8.4V19.6C2.00037 23.6853 4.31503 26 8.40037 26H19.611C23.6964 26 26.0004 23.6853 26.0004 19.6V8.4C26.0004 4.31467 23.6964 2 19.611 2Z" fill="#2563EA"/>
<path d="M17.5003 16.2575C17.5003 13.95 15.6103 13.687 14.0918 13.476C12.4368 13.246 11.5003 13.046 11.5003 11.621C11.5003 10.425 12.7538 10 13.8273 10C14.3623 9.98272 14.8937 10.0928 15.3778 10.3213C15.8618 10.5498 16.2846 10.89 16.6113 11.314L17.3893 10.686C17.0395 10.2361 16.6041 9.85976 16.1083 9.57865C15.6125 9.29755 15.0661 9.11721 14.5003 9.048V7.5H13.5003V9.011C11.6928 9.121 10.5003 10.141 10.5003 11.621C10.5003 13.986 12.4153 14.2525 13.9538 14.466C15.5803 14.6925 16.5003 14.887 16.5003 16.2575C16.5003 17.7735 14.9338 18 14.0003 18C12.2853 18 11.5613 17.518 10.8893 16.686L10.1113 17.314C10.5077 17.8363 11.0204 18.2591 11.6087 18.5487C12.1969 18.8384 12.8446 18.9869 13.5003 18.9825V20.5H14.5003V18.9775C16.3633 18.8255 17.5003 17.814 17.5003 16.2575Z" fill="white"/>
<path fill-rule="evenodd" clip-rule="evenodd" d="M13.8273 10.1004C13.3013 10.1004 12.7384 10.2049 12.3109 10.4492C11.8879 10.6909 11.6003 11.0663 11.6003 11.6214C11.6003 11.9671 11.6572 12.23 11.7616 12.4346C11.8653 12.6379 12.0194 12.7904 12.2258 12.9106C12.6464 13.1556 13.2726 13.2616 14.1056 13.3773L14.1153 13.3787C14.8676 13.4832 15.736 13.6039 16.4154 13.9942C16.7591 14.1918 17.057 14.4594 17.2682 14.83C17.4793 15.2003 17.6003 15.6671 17.6003 16.2579C17.6003 17.0625 17.3055 17.7322 16.766 18.2188C16.2458 18.688 15.5054 18.9808 14.6003 19.0693V20.6004H13.4003V19.0824C12.7636 19.0718 12.1366 18.9205 11.5645 18.6388C10.9623 18.3423 10.4375 17.9096 10.0317 17.3748L9.97302 17.2975L10.9043 16.5458L10.9671 16.6236C11.2978 17.0329 11.6354 17.3491 12.0961 17.5648C12.5578 17.7811 13.1517 17.9004 14.0003 17.9004C14.4622 17.9004 15.069 17.8438 15.5568 17.6076C15.7994 17.4902 16.0093 17.3299 16.1586 17.113C16.3075 16.8969 16.4003 16.6187 16.4003 16.2579C16.4003 15.926 16.3446 15.674 16.2425 15.4778C16.141 15.2828 15.99 15.136 15.7873 15.0199C15.3742 14.7832 14.7588 14.6795 13.9401 14.5654C13.9401 14.5654 13.9401 14.5654 13.9401 14.5654L13.9311 14.5642C13.1686 14.4584 12.2885 14.3363 11.6 13.9372C11.2518 13.7354 10.9503 13.4617 10.7365 13.0828C10.5229 12.7041 10.4003 12.2263 10.4003 11.6214C10.4003 10.8522 10.7112 10.1997 11.2571 9.72704C11.7827 9.27192 12.5213 8.98752 13.4003 8.91814V7.40039H14.6003V8.96077C15.1478 9.03891 15.6761 9.21903 16.1577 9.49205C16.6649 9.77966 17.1103 10.1647 17.4683 10.625L17.5286 10.7025L16.5946 11.4564L16.5321 11.3754C16.2151 10.964 15.8048 10.6338 15.3351 10.4121C14.8654 10.1904 14.3497 10.0836 13.8306 10.1003L13.8273 10.1004ZM14.5003 9.04839V7.50039H13.5003V9.01139C11.6928 9.12139 10.5003 10.1414 10.5003 11.6214C10.5003 13.9864 12.4153 14.2529 13.9538 14.4664C15.5803 14.6929 16.5003 14.8874 16.5003 16.2579C16.5003 17.7739 14.9338 18.0004 14.0003 18.0004C12.2853 18.0004 11.5613 17.5184 10.8893 16.6864L10.1113 17.3144C10.5077 17.8367 11.0204 18.2595 11.6087 18.5491C12.1801 18.8305 12.8076 18.9786 13.4441 18.9829C13.4628 18.983 13.4816 18.983 13.5003 18.9829V20.5004H14.5003V18.9779C16.3633 18.8259 17.5003 17.8144 17.5003 16.2579C17.5003 13.9504 15.6103 13.6874 14.0918 13.4764C12.4368 13.2464 11.5003 13.0464 11.5003 11.6214C11.5003 10.4254 12.7538 10.0004 13.8273 10.0004C14.3623 9.98311 14.8937 10.0932 15.3778 10.3217C15.8317 10.5359 16.2317 10.8484 16.5491 11.2361C16.5702 11.2619 16.591 11.288 16.6113 11.3144L17.3893 10.6864C17.0395 10.2365 16.6041 9.86015 16.1083 9.57904C15.6125 9.29794 15.0661 9.1176 14.5003 9.04839Z" fill="white"/>
</svg>
