<svg width="32" height="32" viewBox="0 0 32 32" fill="none" xmlns="http://www.w3.org/2000/svg">
<path d="M23.4809 0H8.53333C3.08622 0 0 3.08622 0 8.53333V23.4667C0 28.9138 3.08622 32 8.53333 32H23.4809C28.928 32 32 28.9138 32 23.4667V8.53333C32 3.08622 28.928 0 23.4809 0Z" fill="#FF179C"/>
<path fill-rule="evenodd" clip-rule="evenodd" d="M9.43668 9.74054C9.43834 9.74054 9.39668 9.78387 9.34418 9.83554C9.14251 10.0314 8.72501 10.4389 8.7208 11.2914C8.71418 12.4839 9.49834 14.698 13.2742 18.473C17.0325 22.2297 19.2433 23.023 20.4383 23.023H20.4558C21.3083 23.0189 21.715 22.6005 21.9117 22.3997C21.9717 22.338 22.02 22.293 22.0542 22.2647C22.8842 21.4297 23.3092 20.808 23.305 20.4097C23.2992 20.003 22.7933 19.5222 22.0942 18.8572C21.8717 18.6455 21.63 18.4155 21.375 18.1605C20.7142 17.5014 20.3867 17.6139 19.6667 17.8672C18.6708 18.2164 17.3042 18.6914 15.1808 16.5672C13.0542 14.4422 13.53 13.0772 13.8783 12.0814C14.13 11.3614 14.245 11.033 13.5833 10.3714C13.3242 10.113 13.0917 9.86804 12.8775 9.64304C12.2167 8.94804 11.74 8.44554 11.3358 8.43971H11.3292C10.93 8.43971 10.31 8.86637 9.43251 9.74387C9.43501 9.74137 9.43584 9.74054 9.43668 9.74054ZM20.4392 24.273C18.3625 24.273 15.655 22.6197 12.3908 19.3572C9.11418 16.0814 7.45834 13.3655 7.47077 11.2847C7.47834 9.9097 8.19918 9.20554 8.47001 8.94137C8.48418 8.92387 8.53251 8.87637 8.54918 8.85971C9.74418 7.66387 10.55 7.18054 11.3517 7.18958C12.2825 7.20221 12.945 7.89887 13.7833 8.78137C13.9908 8.99971 14.2158 9.23721 14.4667 9.48721C15.6833 10.7039 15.3367 11.6964 15.0583 12.493C14.755 13.3622 14.4925 14.1122 16.0642 15.6839C17.6375 17.2555 18.3875 16.993 19.2533 16.6872C20.0508 16.4089 21.0408 16.0605 22.2592 17.2772C22.5058 17.5239 22.74 17.7464 22.9558 17.9522C23.8425 18.7947 24.5425 19.4605 24.5543 20.3939C24.5642 21.1897 24.0808 22.0005 22.8875 23.1947L22.3592 22.8364L22.8058 23.273C22.5417 23.5439 21.8383 24.2655 20.4625 24.273H20.4392Z" fill="white"/>
</svg>
