<svg width="24" height="24" viewBox="0 0 24 24" fill="none" xmlns="http://www.w3.org/2000/svg">
<rect x="0.5" y="0.5" width="23" height="23" rx="3.5" fill="white" stroke="#2563EA"/>
<path d="M11.2856 16.285V12.714H7.71463C7.52976 12.7071 7.35477 12.6288 7.22642 12.4955C7.09807 12.3623 7.02637 12.1845 7.02637 11.9995C7.02637 11.8145 7.09807 11.6367 7.22642 11.5035C7.35477 11.3702 7.52976 11.2919 7.71463 11.285H11.2856V7.714C11.2856 7.52464 11.3609 7.34303 11.4948 7.20913C11.6287 7.07522 11.8103 7 11.9996 7C12.189 7 12.3706 7.07522 12.5045 7.20913C12.6384 7.34303 12.7136 7.52464 12.7136 7.714V11.285H16.2856C16.4705 11.2919 16.6455 11.3702 16.7738 11.5035C16.9022 11.6367 16.9739 11.8145 16.9739 11.9995C16.9739 12.1845 16.9022 12.3623 16.7738 12.4955C16.6455 12.6288 16.4705 12.7071 16.2856 12.714H12.7136V16.285C12.7136 16.4744 12.6384 16.656 12.5045 16.7899C12.3706 16.9238 12.189 16.999 11.9996 16.999C11.8103 16.999 11.6287 16.9238 11.4948 16.7899C11.3609 16.656 11.2856 16.4744 11.2856 16.285Z" fill="#2563EA"/>
</svg>
