<svg width="24" height="24" viewBox="0 0 24 24" fill="none" xmlns="http://www.w3.org/2000/svg">
<mask id="mask0_900_27008" style="mask-type:alpha" maskUnits="userSpaceOnUse" x="0" y="0" width="24" height="24">
<rect width="24" height="24" fill="#D9D9D9"/>
</mask>
<g mask="url(#mask0_900_27008)">
<path d="M3.5 19.7V8.775C3.23333 8.64167 3 8.43733 2.8 8.162C2.6 7.88733 2.5 7.56667 2.5 7.2V4.8C2.5 4.3 2.675 3.875 3.025 3.525C3.375 3.175 3.8 3 4.3 3H19.7C20.2 3 20.625 3.175 20.975 3.525C21.325 3.875 21.5 4.3 21.5 4.8V7.2C21.5 7.56667 21.4 7.88733 21.2 8.162C21 8.43733 20.7667 8.64167 20.5 8.775V19.7C20.5 20.2 20.325 20.625 19.975 20.975C19.625 21.325 19.2 21.5 18.7 21.5H5.3C4.8 21.5 4.375 21.325 4.025 20.975C3.675 20.625 3.5 20.2 3.5 19.7ZM5 9V19.7C5 19.7833 5.02933 19.8543 5.088 19.913C5.146 19.971 5.21667 20 5.3 20H18.7C18.7833 20 18.8543 19.971 18.913 19.913C18.971 19.8543 19 19.7833 19 19.7V9H5ZM19.7 7.5C19.7833 7.5 19.8543 7.47067 19.913 7.412C19.971 7.354 20 7.28333 20 7.2V4.8C20 4.71667 19.971 4.64567 19.913 4.587C19.8543 4.529 19.7833 4.5 19.7 4.5H4.3C4.21667 4.5 4.146 4.529 4.088 4.587C4.02933 4.64567 4 4.71667 4 4.8V7.2C4 7.28333 4.02933 7.354 4.088 7.412C4.146 7.47067 4.21667 7.5 4.3 7.5H19.7ZM9.2 13.7H14.8V12.2H9.2V13.7Z" fill="#379F00"/>
</g>
</svg>
