<svg width="28" height="28" viewBox="0 0 28 28" fill="none" xmlns="http://www.w3.org/2000/svg">
<path d="M19.611 2H8.40037C4.31503 2 2.00037 4.31467 2.00037 8.4V19.6C2.00037 23.6853 4.31503 26 8.40037 26H19.611C23.6964 26 26.0004 23.6853 26.0004 19.6V8.4C26.0004 4.31467 23.6964 2 19.611 2Z" fill="#2563EA"/>
<path fill-rule="evenodd" clip-rule="evenodd" d="M13.9967 13.086C14.4922 13.086 14.8944 13.5084 14.8944 14.0288V19.0572C14.8944 19.5776 14.4922 20 13.9967 20C13.5011 20 13.0989 19.5776 13.0989 19.0572V14.0288C13.0989 13.5084 13.5011 13.086 13.9967 13.086ZM14.0026 8C14.6645 8 15.1996 8.56192 15.1996 9.25708C15.1996 9.95225 14.6645 10.5142 14.0026 10.5142C13.3406 10.5142 12.7996 9.95225 12.7996 9.25708C12.7996 8.56192 13.3298 8 13.9906 8H14.0026Z" fill="white"/>
</svg>
