<svg width="36" height="36" viewBox="0 0 36 36" fill="none" xmlns="http://www.w3.org/2000/svg">
<rect width="36" height="36" rx="8" fill="#D19C97"/>
<path fill-rule="evenodd" clip-rule="evenodd" d="M17.9998 10.5748C15.4179 10.5748 13.3248 12.6679 13.3248 15.2498C13.3248 17.8317 15.4179 19.9248 17.9998 19.9248C20.5817 19.9248 22.6748 17.8317 22.6748 15.2498C22.6748 12.6679 20.5817 10.5748 17.9998 10.5748ZM11.6748 15.2498C11.6748 11.7566 14.5066 8.9248 17.9998 8.9248C21.493 8.9248 24.3248 11.7566 24.3248 15.2498C24.3248 18.743 21.493 21.5748 17.9998 21.5748C14.5066 21.5748 11.6748 18.743 11.6748 15.2498Z" fill="white"/>
<path fill-rule="evenodd" clip-rule="evenodd" d="M13.6476 17.2879C14.0422 17.5157 14.1774 18.0202 13.9496 18.4148L11.6038 22.4786L13.3633 22.3647C13.6958 22.3432 14.0085 22.5237 14.1562 22.8223L14.9378 24.4031L17.2837 20.3399C17.4367 20.0749 17.7145 19.9269 18 19.9272C18.2855 19.9269 18.5633 20.0749 18.7163 20.3399L21.0621 24.4037L21.8437 22.8224C21.9913 22.5238 22.304 22.3432 22.6364 22.3647L24.3962 22.4782L22.0503 18.4149C21.8225 18.0203 21.9577 17.5157 22.3523 17.2879C22.7469 17.0601 23.2514 17.1953 23.4793 17.5899L26.5959 22.9881C26.7481 23.2516 26.7428 23.5775 26.5823 23.8359C26.4217 24.0944 26.132 24.2435 25.8284 24.2239L23.0791 24.0467L21.858 26.5171C21.7232 26.7899 21.4492 26.9663 21.145 26.9761C20.8409 26.9859 20.5561 26.8275 20.404 26.564L17.9999 22.3993L15.5959 26.5631C15.4438 26.8266 15.159 26.985 14.8549 26.9752C14.5508 26.9654 14.2768 26.789 14.1419 26.5163L12.9209 24.0468L10.1718 24.2248C9.86812 24.2445 9.5783 24.0954 9.41771 23.837C9.25712 23.5785 9.25183 23.2526 9.40396 22.9891L12.5206 17.5899C12.7484 17.1953 13.253 17.0601 13.6476 17.2879Z" fill="white"/>
</svg>
