<svg width="90" height="90" viewBox="0 0 90 90" fill="none" xmlns="http://www.w3.org/2000/svg">
<circle opacity="0.1" cx="45" cy="45" r="45" fill="#FF179C"/>
<path fill-rule="evenodd" clip-rule="evenodd" d="M43.3735 23.3741C40.2288 23.6755 37.8385 24.3446 35.2262 25.6548C31.7881 27.379 28.6002 30.3044 26.5036 33.6591C24.9899 36.0808 23.8856 39.2122 23.4397 42.3467C23.2979 43.3435 23.2979 46.6896 23.4397 47.6864C23.7948 50.183 24.4547 52.3699 25.4856 54.4671C26.6519 56.8398 27.7944 58.4338 29.6805 60.32C31.546 62.1854 33.1649 63.3503 35.4486 64.4707C37.0422 65.2524 38.071 65.6329 39.6865 66.0381C43.9256 67.1014 48.1771 66.8974 52.3187 65.4323C53.5827 64.9852 55.774 63.886 56.8923 63.1381C61.6389 59.9638 64.957 55.1507 66.1716 49.6783C66.4545 48.4033 66.5999 47.2118 66.6524 45.737C66.7811 42.1222 66.0378 38.6819 64.4295 35.448C63.3734 33.3246 62.1977 31.6604 60.547 29.9523C58.7286 28.0705 56.9011 26.74 54.5191 25.5639C52.0072 24.3234 49.6685 23.6616 46.8909 23.4049C46.0274 23.3252 44.0643 23.3079 43.3735 23.3741ZM47.9928 26.2791C53.3161 27.1737 57.8084 30.078 60.8026 34.5609C62.3138 36.8232 63.311 39.4103 63.7713 42.262C63.981 43.5622 63.981 46.4709 63.7713 47.7712C62.8579 53.4305 59.7603 58.1296 54.9429 61.1639C52.8801 62.4633 50.3945 63.374 47.7385 63.8036C46.4337 64.0147 43.5283 64.0141 42.2293 63.8025C36.6613 62.8959 32.0751 59.9321 29.0292 55.2723C27.607 53.0965 26.647 50.5541 26.1968 47.7712C25.9865 46.4703 25.9865 43.5629 26.1968 42.262C26.8777 38.0529 28.6595 34.534 31.5845 31.6218C34.8257 28.3948 38.8876 26.5 43.4582 26.083C44.3751 25.9993 47.0043 26.1131 47.9928 26.2791ZM43.6278 38.5118V45.5681L47.8877 49.8274L52.1476 54.0867L53.0998 53.1318L54.0519 52.1769L50.196 48.3216L46.34 44.4663V37.9608V31.4554H44.9839H43.6278V38.5118Z" fill="#FF179C"/>
</svg>
