<svg width="36" height="36" viewBox="0 0 36 36" fill="none" xmlns="http://www.w3.org/2000/svg">
<rect width="36" height="36" rx="8" fill="#D19C97"/>
<path fill-rule="evenodd" clip-rule="evenodd" d="M14.0491 10.791C14.3487 11.1404 14.3082 11.6665 13.9588 11.9661L11.7254 13.8804L14.0057 16.1608C14.3311 16.4862 14.3311 17.0138 14.0057 17.3393C13.6802 17.6647 13.1526 17.6647 12.8272 17.3393L9.91057 14.4226C9.74645 14.2585 9.65821 14.0333 9.66712 13.8014C9.67603 13.5694 9.78127 13.3517 9.9575 13.2006L12.8741 10.7006C13.2235 10.4011 13.7496 10.4416 14.0491 10.791Z" fill="white"/>
<path fill-rule="evenodd" clip-rule="evenodd" d="M9.6665 13.8333C9.6665 13.3731 10.0396 13 10.4998 13H20.0806C23.3961 13 26.1993 15.6954 26.3285 19.0092C26.4651 22.512 23.5829 25.5 20.0806 25.5H12.9992C12.5389 25.5 12.1658 25.1269 12.1658 24.6667C12.1658 24.2064 12.5389 23.8333 12.9992 23.8333H20.0806C22.6393 23.8333 24.7628 21.6294 24.6631 19.0741C24.5688 16.6549 22.5009 14.6667 20.0806 14.6667H10.4998C10.0396 14.6667 9.6665 14.2936 9.6665 13.8333Z" fill="white"/>
</svg>
