<svg width="28" height="28" viewBox="0 0 28 28" fill="none" xmlns="http://www.w3.org/2000/svg">
<path d="M20.5458 0H7.46667C2.70044 0 0 2.70044 0 7.46667V20.5333C0 25.2996 2.70044 28 7.46667 28H20.5458C25.312 28 28 25.2996 28 20.5333V7.46667C28 2.70044 25.312 0 20.5458 0Z" fill="#d19c97"/>
<path fill-rule="evenodd" clip-rule="evenodd" d="M20.3808 14.2533C19.8712 13.8788 19.261 13.6442 18.5655 13.5555V9.90054L18.7962 10.132C19.019 10.3556 19.2357 10.5726 19.4531 10.7897C19.571 10.9072 19.7114 10.9717 19.8491 10.9717C19.9696 10.9717 20.0805 10.9235 20.1703 10.8325C20.364 10.6357 20.3465 10.3447 20.1279 10.1257C19.5161 9.51236 18.9696 8.96588 18.4574 8.45519C18.338 8.33617 18.2127 8.27588 18.0844 8.27588C17.9556 8.27588 17.8292 8.33656 17.709 8.45674C17.1731 8.99155 16.6106 9.55359 16.0385 10.1273C15.8199 10.3463 15.8036 10.6368 15.9984 10.834C16.0883 10.9247 16.1995 10.9725 16.3209 10.9725C16.4562 10.9725 16.5927 10.911 16.7055 10.799C16.8747 10.631 17.0435 10.4626 17.212 10.2938C17.3286 10.1771 17.4453 10.0604 17.5624 9.94371C17.5756 9.93049 17.5904 9.91804 17.6064 9.90443V13.554L17.5581 13.5625C17.5087 13.5715 17.4613 13.5797 17.4138 13.5878C16.3909 13.757 15.4523 14.3467 14.8393 15.2055C14.2306 16.0581 13.9883 17.0806 14.1571 18.0853C14.4372 19.7523 15.4088 20.8543 17.0447 21.3595C17.191 21.4046 17.3438 21.433 17.4916 21.4602C17.5593 21.4727 17.6297 21.4859 17.6978 21.5003L17.7013 21.5011H18.4663C18.4663 21.5011 18.5107 21.4925 18.5313 21.4882C18.5756 21.4793 18.6204 21.4704 18.6651 21.463C20.4986 21.1646 21.8596 19.75 22.0521 17.9425C22.2135 16.4287 21.6511 15.1876 20.3808 14.2533ZM18.0844 14.4385V14.4715C18.902 14.4715 19.6725 14.7924 20.2544 15.3747C20.8281 15.9492 21.1435 16.7053 21.1427 17.5038C21.1412 19.188 19.7697 20.5594 18.0836 20.5606C17.2796 20.5606 16.52 20.2405 15.9451 19.6594C15.3699 19.0783 15.0533 18.3113 15.054 17.4995C15.0556 15.8309 16.4142 14.4723 18.0828 14.4715L18.0844 14.4385Z" fill="white"/>
<path fill-rule="evenodd" clip-rule="evenodd" d="M14.4061 9.81399C14.1105 8.22161 13.1607 7.15782 11.5819 6.65296C11.4267 6.60317 11.2638 6.57322 11.1058 6.54405C11.0335 6.53083 10.9588 6.51682 10.8861 6.50127L10.8826 6.50049H10.1171L10.1136 6.50127C10.044 6.51605 9.97243 6.52927 9.9032 6.5425C9.75229 6.5705 9.59632 6.59967 9.44735 6.64596C7.83747 7.14615 6.85847 8.24728 6.53797 9.91822C6.52903 9.9649 6.50024 10.1181 6.50024 10.1181V10.8852L6.50219 10.8902C6.5053 10.8992 6.50919 10.9085 6.51269 10.9174C6.51969 10.9342 6.52592 10.9497 6.52786 10.9641C6.65699 12.0112 7.14085 12.8875 7.96582 13.5693C8.54536 14.0481 9.23692 14.3434 10.0218 14.446V17.0302L9.29332 17.0299C9.12296 17.0299 8.95299 17.0299 8.78301 17.0302C8.63288 17.0306 8.49985 17.0816 8.40845 17.1742C8.32327 17.2605 8.27893 17.3756 8.28049 17.5067C8.2836 17.7786 8.48935 17.9692 8.78146 17.97C8.93509 17.9703 9.08873 17.9703 9.24276 17.9703L10.0308 17.97C10.0308 18.0929 10.0308 18.2146 10.0304 18.3348C10.03 18.6467 10.0296 18.9416 10.0312 19.2411C10.0327 19.5141 10.2346 19.7199 10.5006 19.7199H10.5018C10.7713 19.7195 10.9685 19.5172 10.9701 19.2387C10.9717 18.9941 10.9713 18.7455 10.9709 18.5048C10.9709 18.3994 10.9705 17.9696 10.9705 17.9696L11.7682 17.97C11.9191 17.97 12.0704 17.97 12.2214 17.9692C12.5131 17.9684 12.7181 17.7766 12.72 17.5036C12.7208 17.3729 12.6768 17.2589 12.5924 17.1738C12.501 17.0816 12.3672 17.0302 12.2148 17.0295C12.1459 17.0291 12.0775 17.0291 12.0086 17.0291L10.9787 17.0295V14.4441C12.0669 14.3091 13.0627 13.7249 13.7118 12.8404C14.3587 11.961 14.6049 10.8859 14.4061 9.81399ZM12.6391 8.34218C13.2144 8.92328 13.5306 9.6903 13.5298 10.502C13.5286 12.171 12.1696 13.5297 10.4991 13.5304C9.68733 13.5304 8.9207 13.2131 8.33999 12.6374C7.75929 12.0617 7.43996 11.3017 7.44112 10.4978C7.44268 8.81399 8.81413 7.44292 10.4983 7.44176L10.5006 7.4087V7.44176C11.3046 7.44137 12.0642 7.76148 12.6391 8.34218Z" fill="white"/>
</svg>
