<svg width="36" height="36" viewBox="0 0 36 36" fill="none" xmlns="http://www.w3.org/2000/svg">
<rect width="36" height="36" rx="8" fill="#D19C97"/>
<path fill-rule="evenodd" clip-rule="evenodd" d="M8.87156 10.688C9.36552 10.194 10.0355 9.9165 10.734 9.9165H19.8166C20.5152 9.9165 21.1851 10.194 21.6791 10.688C22.1731 11.1819 22.4506 11.8519 22.4506 12.5505V13.5495H23.4497C24.63 13.5495 25.762 14.0184 26.5966 14.853C27.4312 15.6877 27.9001 16.8197 27.9001 18V21.633C27.9001 22.0907 27.7183 22.5296 27.3947 22.8533C27.2588 22.9891 27.1026 23.1 26.9333 23.1829C26.8042 23.8839 26.4654 24.535 25.9544 25.046C25.2901 25.7103 24.3891 26.0835 23.4497 26.0835C22.5102 26.0835 21.6092 25.7103 20.9449 25.046C20.4769 24.578 20.1534 23.9924 20.003 23.3587H16.1836C15.7321 23.3587 15.3662 22.9927 15.3662 22.5413C15.3662 22.0898 15.7321 21.7239 16.1836 21.7239H20.8157V12.5505C20.8157 12.2855 20.7104 12.0314 20.5231 11.844C20.3357 11.6566 20.0816 11.5514 19.8166 11.5514H10.734C10.4691 11.5514 10.215 11.6566 10.0276 11.844C9.84022 12.0314 9.73496 12.2855 9.73496 12.5505V21.633C9.73496 21.6571 9.74453 21.6802 9.76156 21.6973C9.7786 21.7143 9.8017 21.7239 9.82579 21.7239H10.734C11.1855 21.7239 11.5515 22.0898 11.5515 22.5413C11.5515 22.9927 11.1855 23.3587 10.734 23.3587H9.82579C9.36811 23.3587 8.92917 23.1769 8.60554 22.8533C8.28191 22.5296 8.1001 22.0907 8.1001 21.633V12.5505C8.1001 11.8519 8.3776 11.1819 8.87156 10.688ZM21.7264 23.3587H25.173C25.0803 23.5541 24.9542 23.7341 24.7984 23.89C24.4407 24.2477 23.9555 24.4486 23.4497 24.4486C22.9438 24.4486 22.4587 24.2477 22.101 23.89C21.9451 23.7341 21.819 23.5541 21.7264 23.3587ZM22.4506 21.7239V15.1844H23.4497C24.1964 15.1844 24.9126 15.481 25.4406 16.0091C25.9686 16.5371 26.2653 17.2533 26.2653 18V18.9991H25.2662C24.8147 18.9991 24.4487 19.3651 24.4487 19.8165C24.4487 20.268 24.8147 20.6339 25.2662 20.6339H26.2653V21.633C26.2653 21.6571 26.2557 21.6802 26.2387 21.6973C26.2216 21.7143 26.1985 21.7239 26.1744 21.7239H22.4506Z" fill="white"/>
<path fill-rule="evenodd" clip-rule="evenodd" d="M13.4592 20.6344C12.4058 20.6344 11.5519 21.4883 11.5519 22.5417C11.5519 23.5951 12.4058 24.4491 13.4592 24.4491C14.5126 24.4491 15.3665 23.5951 15.3665 22.5417C15.3665 21.4883 14.5126 20.6344 13.4592 20.6344ZM9.91699 22.5417C9.91699 20.5854 11.5029 18.9995 13.4592 18.9995C15.4155 18.9995 17.0014 20.5854 17.0014 22.5417C17.0014 24.498 15.4155 26.0839 13.4592 26.0839C11.5029 26.0839 9.91699 24.498 9.91699 22.5417Z" fill="white"/>
</svg>
