<svg width="32" height="32" viewBox="0 0 32 32" fill="none" xmlns="http://www.w3.org/2000/svg">
<path fill-rule="evenodd" clip-rule="evenodd" d="M17.8332 28.4072C17.7373 28.4072 17.6359 28.387 17.5319 28.3473C17.2272 28.2313 17.0594 27.9639 17.0591 27.5934C17.0579 26.5054 17.0582 25.4173 17.0584 24.3295L17.0587 22.4467L16.5328 22.7239L15.453 23.3038C14.6054 23.7596 13.7582 24.215 12.9079 24.6657C12.7072 24.7721 12.5477 24.8218 12.4066 24.8218C12.2084 24.8218 12.0237 24.7219 11.7897 24.4878C10.3689 23.0678 8.94836 21.6475 7.52832 20.2268C7.12448 19.8224 7.08453 19.5608 7.35027 19.06C7.79869 18.2146 8.25271 17.3723 8.70649 16.53L9.55778 14.9441H4.37111C4.03279 14.9439 3.79384 14.7882 3.66085 14.4813C3.52956 14.1778 3.57852 13.8987 3.80236 13.6739C4.07103 13.4037 4.33823 13.1322 4.60543 12.8606C5.39875 12.0541 6.21911 11.2203 7.06358 10.4443C8.13945 9.45541 9.47692 8.95048 11.0385 8.94341L11.3807 8.94171C11.6235 8.94025 11.8661 8.93903 12.1087 8.93903C12.4234 8.93903 12.7379 8.94122 13.0526 8.94877C13.0531 8.94877 13.0536 8.94877 13.0538 8.94877C13.313 8.94877 13.4774 8.86255 13.6277 8.66038C14.4575 7.54578 15.2119 6.69352 16.002 5.97814C17.3558 4.75198 19.044 3.90678 21.1634 3.39357C23.2162 2.89668 25.4824 2.66504 28.2957 2.66504L28.634 2.66601C28.9979 2.66821 29.3307 2.98047 29.3321 3.32074C29.3448 5.93844 29.2267 9.02525 28.257 12.0741C27.5572 14.2736 26.2217 16.1237 24.1735 17.7306C24.0933 17.7937 24.0139 17.8575 23.9345 17.9211C23.7419 18.0758 23.5426 18.2358 23.3385 18.3771C23.1349 18.5181 23.0501 18.692 23.0552 18.9592C23.0667 19.5713 23.0676 20.2199 23.0586 21.0011C23.0389 22.607 22.4767 23.9978 21.3882 25.135C20.7055 25.8477 19.9923 26.5553 19.3025 27.2397C18.9961 27.5435 18.6896 27.8475 18.3849 28.1527C18.2159 28.3212 18.0303 28.4072 17.8332 28.4072ZM21.2489 19.8609L20.8626 20.103C20.1732 20.5351 19.4601 20.9821 18.7647 21.431C18.6463 21.5075 18.581 21.6877 18.5795 21.8183C18.5722 22.8627 18.5737 23.9069 18.5749 24.9511L18.5752 25.2364C18.5752 25.2953 18.5752 25.4758 18.7267 25.476H18.7897L18.8416 25.4166C18.996 25.2712 19.1541 25.1265 19.3134 24.9808C19.6941 24.6323 20.0875 24.272 20.4507 23.8857C20.9802 23.3226 21.3195 22.6184 21.4323 21.8485C21.4946 21.423 21.5217 20.9852 21.548 20.5622C21.5599 20.3719 21.5718 20.181 21.5867 19.9885L21.5984 19.8397H21.4491C21.4133 19.8397 21.3887 19.8387 21.3716 19.838L21.3027 19.837L21.2489 19.8609ZM27.5516 4.19225C26.0037 4.23341 24.1718 4.32573 22.3238 4.69767C20.7527 5.01358 19.5156 5.45591 18.4307 6.08945C16.949 6.95463 15.8795 8.21805 15.1132 9.22231C12.696 12.3893 10.7528 15.8821 9.01267 19.1845C8.94422 19.3138 8.99829 19.5292 9.0889 19.6207C9.72001 20.2596 10.3545 20.8951 10.989 21.5311C11.4504 21.9929 11.9114 22.455 12.3713 22.9183C12.4271 22.9743 12.5158 23.0493 12.6397 23.0493C12.7048 23.0493 12.771 23.0293 12.8482 22.9865C13.0957 22.8491 13.3456 22.7163 13.5955 22.5833C13.7899 22.4801 13.9845 22.3768 14.1777 22.2716C16.9271 20.7714 20.1284 18.9368 23.0236 16.7047C25.1112 15.0956 26.417 13.2006 27.015 10.9117C27.3606 9.58986 27.5869 8.18395 27.7065 6.61362C27.7457 6.10187 27.7672 5.57892 27.7876 5.07326C27.7974 4.83675 27.8069 4.59902 27.8186 4.36007L27.8242 4.23999L27.7063 4.21758L27.6451 4.20467C27.6147 4.19785 27.5886 4.19201 27.5577 4.19201H27.5557H27.5516V4.19225ZM11.3322 10.4558C11.1888 10.4558 11.048 10.4577 10.9077 10.4643C9.85568 10.5137 8.96785 10.8374 8.26903 11.4267C7.83182 11.7952 7.41774 12.202 7.0173 12.5953C6.83828 12.7712 6.65925 12.947 6.47779 13.1202L6.40301 13.1916L6.5248 13.4271L7.94946 13.4276C8.72403 13.4276 9.4986 13.4264 10.2732 13.4196C10.451 13.4184 10.5896 13.2086 10.6049 13.1848C10.8938 12.7327 11.1783 12.2777 11.4628 11.8225L11.8257 11.2425C11.9002 11.1239 11.9765 11.0065 12.0608 10.8767L12.3292 10.4611H12.0759C11.9407 10.4611 11.8106 10.4597 11.6844 10.4582C11.5641 10.457 11.4472 10.4558 11.3322 10.4558Z" fill="#1E1142"/>
<path fill-rule="evenodd" clip-rule="evenodd" d="M3.57992 29.3067C3.26279 29.3067 2.97294 29.1934 2.80438 29.0039C2.70062 28.8873 2.65215 28.7499 2.66798 28.6171C2.819 26.7036 3.11104 25.1613 4.04832 23.8384C4.50234 23.1976 5.09642 22.736 5.81399 22.4661C5.93553 22.4206 6.05172 22.3975 6.15913 22.3975C6.37104 22.3975 6.56176 22.4859 6.74249 22.6673C7.60548 23.5354 8.47187 24.4004 9.339 25.2643C9.60839 25.5332 9.66928 25.8284 9.53069 26.1943C9.15364 27.1891 8.41877 27.9332 7.2842 28.4695C6.297 28.936 5.15122 29.201 3.67857 29.3033C3.64496 29.3057 3.61207 29.3067 3.57992 29.3067ZM5.84395 24.1561C4.81655 25.011 4.53473 26.1962 4.2953 27.5439L4.26071 27.7388L4.45533 27.7042C5.8079 27.4645 6.99557 27.1835 7.83103 26.168L7.90995 26.0718L5.94138 24.0745L5.84395 24.1561Z" fill="#1E1142"/>
<path fill-rule="evenodd" clip-rule="evenodd" d="M20.485 14.9427C19.5645 14.9412 18.7022 14.5795 18.0565 13.9246C17.4106 13.2693 17.0559 12.3954 17.0576 11.464C17.0615 9.57822 18.6114 8.04395 20.513 8.04395C21.4395 8.04443 22.3054 8.40395 22.9533 9.05575C23.6013 9.7078 23.9576 10.5788 23.9564 11.5081C23.9542 13.4019 22.3995 14.9427 20.4908 14.9427H20.485ZM20.5013 9.56117C19.4637 9.56482 18.5814 10.4446 18.5748 11.483C18.5717 11.9913 18.7734 12.4763 19.1431 12.8482C19.5131 13.2204 19.9971 13.4255 20.5059 13.4255C21.5499 13.4218 22.4321 12.5415 22.4389 11.5029C22.4421 10.9946 22.2406 10.5099 21.8711 10.1382C21.5014 9.76626 21.0172 9.56117 20.5079 9.56117H20.5013Z" fill="#1E1142"/>
</svg>
