<svg width="36" height="36" viewBox="0 0 36 36" fill="none" xmlns="http://www.w3.org/2000/svg">
<path d="M34.4778 6.61127C34.4588 6.53011 34.4408 6.4485 34.4227 6.36689C34.3825 6.18602 34.3411 5.99942 34.2921 5.81326C33.7014 3.56832 31.8319 1.90172 29.5278 1.56469C29.5195 1.56204 29.5053 1.55631 29.4943 1.55234C29.4696 1.54263 29.4445 1.53337 29.4193 1.52499L29.3518 1.50293H6.65366L6.60646 1.51352C6.53411 1.5294 6.46176 1.54484 6.38898 1.56072C6.22929 1.59469 6.06386 1.63042 5.89888 1.67144C3.5988 2.24712 1.89513 4.12812 1.55546 6.46482C1.55281 6.4732 1.54708 6.48732 1.54311 6.49834C1.53384 6.52305 1.52414 6.54775 1.5162 6.57245L1.49414 6.63995V29.3381L1.50429 29.3849C1.51973 29.4546 1.53428 29.5238 1.54928 29.5935C1.58193 29.7457 1.61545 29.9032 1.65339 30.0603C1.95469 31.3082 2.67285 32.4371 3.67555 33.2395C4.68399 34.0463 5.94343 34.4915 7.22228 34.4937C10.9296 34.4998 14.6003 34.5029 18.1324 34.5029C21.7317 34.5029 25.3079 34.4998 28.762 34.4937C30.1419 34.491 31.475 33.9846 32.5165 33.0675C33.5492 32.1579 34.2277 30.905 34.4271 29.5379C34.4297 29.53 34.435 29.5163 34.4394 29.5057C34.4491 29.481 34.4584 29.4559 34.4668 29.4312L34.4897 29.3628V6.66024L34.4778 6.61127ZM3.70864 14.8111C3.70776 12.3765 3.70687 9.85891 3.71085 7.38282C3.71349 5.66901 4.75016 4.28561 6.35192 3.85771C6.67748 3.77081 7.04494 3.72449 7.41418 3.72404C11.3906 3.71919 15.5875 3.71699 20.2455 3.71699C23.0224 3.71699 25.8002 3.71787 28.5772 3.71919C30.7158 3.72007 32.2695 5.26449 32.2713 7.3912C32.2779 14.7335 32.2779 21.8745 32.2708 28.6169C32.2686 30.7039 30.6902 32.2787 28.5993 32.2805C24.9414 32.2831 21.3377 32.2845 17.8876 32.2845C14.314 32.2845 10.7765 32.2831 7.37359 32.28C5.28923 32.2783 3.71482 30.6995 3.71085 28.6076C3.70599 26.1205 3.70732 23.5914 3.7082 21.1458C3.70864 20.0906 3.70908 19.035 3.70908 17.9798C3.70952 16.9232 3.70908 15.8672 3.70864 14.8111Z" fill="#FF179C"/>
<path d="M14.9961 15.0044L9.74609 11.2544L11.2461 21.7544H24.7461L26.2461 11.2544L20.9961 15.7544L17.9961 9.00439L14.9961 15.0044Z" fill="#FF179C"/>
<path d="M26.5599 10.2251C26.391 10.1294 26.2145 10.0809 26.035 10.0809C25.6936 10.0809 25.4178 10.2556 25.2158 10.4073C24.1315 11.2217 23.0256 12.0453 21.9558 12.8415L21.1719 13.4251C20.905 12.763 20.6381 12.1008 20.3713 11.4387C19.9434 10.3764 19.515 9.3142 19.0862 8.25194C18.818 7.58715 18.3522 7.44775 18.009 7.44775C17.9958 7.44775 17.9821 7.44775 17.9684 7.4482C17.6243 7.45878 17.1607 7.60568 16.9035 8.24621C16.379 9.55417 15.8426 10.8829 15.3238 12.1679L14.9391 13.1208C14.8985 13.2209 14.858 13.321 14.8165 13.422L13.9916 12.808C12.9289 12.017 11.8304 11.1992 10.7532 10.3914C10.5754 10.2582 10.2988 10.0804 9.95474 10.0804C9.76241 10.0804 9.57448 10.1356 9.39538 10.245C8.98336 10.4964 8.81044 10.9071 8.8819 11.4661C9.04821 12.7714 9.21187 14.1001 9.37024 15.3851C9.44655 16.0053 9.52287 16.626 9.60007 17.2462C9.7849 18.7351 9.97592 20.2746 10.1718 21.8164C10.2803 22.6691 10.661 23.0022 11.5296 23.0057C11.7647 23.0066 12.0003 23.0088 12.2354 23.011C12.5279 23.0136 12.8305 23.0167 13.1296 23.0167C15.0529 23.0172 16.9754 23.0172 18.8988 23.0172L24.4773 23.0167C25.3398 23.0167 25.7469 22.6466 25.8387 21.7798C25.8788 21.4004 25.9243 21.0232 25.9794 20.5742L26.1801 18.9415C26.4797 16.5029 26.7898 13.9814 27.1012 11.5027C27.1308 11.2795 27.2164 10.5975 26.5599 10.2251ZM23.6983 20.7092L23.6943 20.7427C23.6935 20.7506 23.6926 20.759 23.6912 20.7669C23.6802 20.7669 23.6692 20.7669 23.659 20.7669C21.4437 20.7669 19.2292 20.7669 17.0138 20.7669H12.3016L11.3928 13.6457C11.6055 13.805 11.8124 13.9602 12.0184 14.1164C12.328 14.3506 12.6373 14.5853 12.9461 14.82C13.4684 15.217 14.0088 15.6273 14.5434 16.0278C14.8086 16.2263 15.0794 16.3274 15.3485 16.3274C15.813 16.3274 16.2003 16.0265 16.4116 15.5016C16.851 14.4106 17.2948 13.3007 17.7245 12.2275C17.8144 12.0025 17.9049 11.7771 17.9949 11.5516C18.2225 12.1207 18.4501 12.6898 18.6777 13.2588C18.9623 13.9704 19.2468 14.6819 19.5318 15.3935C19.7797 16.012 20.1476 16.3256 20.6254 16.3256C20.9147 16.3256 21.2196 16.2025 21.557 15.9493L22.876 14.9603C23.4424 14.5355 24.0089 14.1107 24.5753 13.6858C24.48 14.4521 24.3865 15.202 24.2925 15.952C24.2321 16.4337 24.1716 16.915 24.1112 17.3967C23.974 18.4827 23.8329 19.6046 23.6983 20.7092Z" fill="#FF179C"/>
<path d="M24.9624 25.3599C24.7855 25.3144 24.5936 25.2915 24.3885 25.2915C19.7133 25.295 15.0298 25.3025 11.4725 25.3087C11.3631 25.3087 11.2179 25.3136 11.0657 25.3475C10.5236 25.4693 10.1773 25.9259 10.2046 26.4835C10.236 27.1231 10.7278 27.5364 11.4579 27.5373C12.5065 27.5382 13.5551 27.5386 14.6036 27.5386H19.0719C20.881 27.5386 22.6905 27.5386 24.4996 27.5373C24.6165 27.5373 24.7559 27.5334 24.9011 27.5029C25.4128 27.3962 25.7586 26.9952 25.7829 26.4812C25.808 25.9347 25.486 25.4944 24.9624 25.3599Z" fill="#FF179C"/>
</svg>
