<svg width="28" height="28" viewBox="0 0 28 28" fill="none" xmlns="http://www.w3.org/2000/svg">
<path d="M19.6107 2H8.4C4.31467 2 2 4.31467 2 8.4V19.6C2 23.6853 4.31467 26 8.4 26H19.6107C23.696 26 26 23.6853 26 19.6V8.4C26 4.31467 23.696 2 19.6107 2Z" fill="#2563EA"/>
<path fill-rule="evenodd" clip-rule="evenodd" d="M12.3945 15.3053C14.5671 15.3053 17.4558 15.55 17.4558 17.6667C17.4558 19.8963 14.0899 20.0301 12.6461 20.0381L12.1219 20.0381C10.5824 20.0302 7.33313 19.8971 7.33313 17.68C7.33313 15.4478 10.6991 15.3139 12.1429 15.3058L12.3163 15.3053C12.3434 15.3053 12.3694 15.3053 12.3945 15.3053ZM12.3945 16.3053C10.5418 16.3053 8.33313 16.5433 8.33313 17.68C8.33313 18.5813 9.6998 19.0387 12.3945 19.0387C15.0891 19.0387 16.4558 18.5767 16.4558 17.6667C16.4558 16.7633 15.0891 16.3053 12.3945 16.3053ZM18.4709 14.9939C20.2749 15.2639 20.6529 16.0993 20.6529 16.7519C20.6529 17.2379 20.4429 17.8959 19.4409 18.2753C19.3829 18.2973 19.3229 18.3079 19.2636 18.3079C19.0616 18.3079 18.8716 18.1846 18.7963 17.9853C18.6983 17.7273 18.8283 17.4379 19.0863 17.3406C19.6529 17.1259 19.6529 16.8639 19.6529 16.7519C19.6529 16.3739 19.2056 16.1153 18.3236 15.9839C18.0503 15.9426 17.8616 15.6879 17.9023 15.4153C17.9436 15.1419 18.2029 14.9586 18.4709 14.9939ZM12.3945 7.33398C14.2818 7.33398 15.8178 8.86998 15.8178 10.7573C15.8218 11.6667 15.4691 12.5253 14.8265 13.172C14.1851 13.8193 13.3285 14.1773 12.4171 14.1807H12.3945C10.5065 14.1807 8.97046 12.6447 8.97046 10.7573C8.97046 8.86998 10.5065 7.33398 12.3945 7.33398ZM17.1195 8.08318C18.4295 8.29785 19.3802 9.41852 19.3802 10.7472C19.3775 12.0839 18.3795 13.2319 17.0582 13.4172C17.0349 13.4205 17.0115 13.4219 16.9882 13.4219C16.7429 13.4219 16.5289 13.2412 16.4935 12.9912C16.4555 12.7179 16.6455 12.4645 16.9189 12.4265C17.7509 12.3099 18.3789 11.5879 18.3802 10.7465C18.3802 9.91052 17.7815 9.20518 16.9582 9.07052C16.6855 9.02518 16.5009 8.76852 16.5455 8.49585C16.5902 8.22318 16.8482 8.03985 17.1195 8.08318ZM12.3945 8.33398C11.0578 8.33398 9.97046 9.42132 9.97046 10.7573C9.97046 12.0933 11.0578 13.1807 12.3945 13.1807H12.4151C13.0578 13.178 13.6631 12.9253 14.1171 12.4673C14.5718 12.0107 14.8205 11.4033 14.8178 10.7593C14.8178 9.42132 13.7305 8.33398 12.3945 8.33398Z" fill="#FFF5F5"/>
</svg>
