<svg width="48" height="48" viewBox="0 0 48 48" fill="none" xmlns="http://www.w3.org/2000/svg">
<mask id="mask0_588_21922" style="mask-type:alpha" maskUnits="userSpaceOnUse" x="0" y="0" width="48" height="48">
<rect width="48" height="48" fill="#2563EA"/>
</mask>
<g mask="url(#mask0_588_21922)">
<path d="M22.0013 40H13.0013C9.96795 40 7.37661 38.95 5.22728 36.85C3.07661 34.75 2.00128 32.1833 2.00128 29.15C2.00128 26.55 2.78461 24.2333 4.35128 22.2C5.91795 20.1667 7.96795 18.8667 10.5013 18.3C11.3346 15.2333 13.0013 12.75 15.5013 10.85C18.0013 8.95 20.8346 8 24.0013 8C27.9013 8 31.2093 9.358 33.9253 12.074C36.6426 14.7913 38.0013 18.1 38.0013 22C40.3013 22.2667 42.2099 23.258 43.7273 24.974C45.2433 26.6913 46.0013 28.7 46.0013 31C46.0013 33.5 45.1266 35.6253 43.3773 37.376C41.6266 39.1253 39.5013 40 37.0013 40H26.0013V25.7L29.2013 28.8L32.0013 26L24.0013 18L16.0013 26L18.8013 28.8L22.0013 25.7V40Z" fill="#FF179C"/>
</g>
</svg>
