<svg width="32" height="32" viewBox="0 0 32 32" fill="none" xmlns="http://www.w3.org/2000/svg">
<path fill-rule="evenodd" clip-rule="evenodd" d="M6.83924 28.9988C6.35345 28.9986 6.00045 28.6542 6 28.1797C5.99955 27.7088 6.35142 27.3632 6.83676 27.3578C6.96007 27.3562 7.08338 27.3558 7.2094 27.3558L8.02944 27.3569V26.8235C8.02944 26.4689 8.03215 26.1143 8.03486 25.7597C8.04096 24.9842 8.04729 24.1827 8.02312 23.3931C7.96214 21.4097 8.73205 19.7432 10.3764 18.2985C11.1154 17.6494 11.9795 17.0717 13.1783 16.4251C13.2704 16.3752 13.9563 16.0098 13.9563 16.0098L13.5039 15.7539C13.4256 15.709 13.3585 15.6706 13.2905 15.6342C12.1863 15.0439 10.9153 14.2938 9.86014 13.2093C8.59248 11.906 7.99218 10.4416 8.02493 8.7324C8.04051 7.91868 8.03667 7.09231 8.03283 6.29327C8.03102 5.93192 8.02944 5.57034 8.02944 5.20899V4.64325L7.20172 4.6446C7.07931 4.6446 6.95849 4.64415 6.83743 4.6428C6.35142 4.6367 5.9991 4.29048 6 3.81959C6.00068 3.34554 6.35345 3.00158 6.83856 3.00136C9.87731 3.00045 12.9163 3 15.955 3C18.9938 3 22.0327 3.00045 25.0717 3.00136C25.5494 3.00136 25.9096 3.3539 25.9096 3.82117C25.91 4.29138 25.5568 4.6367 25.0703 4.64257C24.9515 4.64393 24.8325 4.64438 24.711 4.64438L23.8804 4.64325V6.32105C23.8804 6.58054 23.8795 6.84004 23.8783 7.09954C23.8761 7.65557 23.8738 8.23079 23.8822 8.79699C23.9052 10.3194 23.3928 11.6557 22.3162 12.8825C21.2174 14.1346 19.8161 14.9705 18.5902 15.6225L17.8962 15.9924L18.346 16.2442C18.4251 16.2889 18.4931 16.3276 18.5624 16.3639C19.651 16.9376 21.0429 17.7481 22.1502 18.9331C23.351 20.2182 23.9185 21.6455 23.8849 23.296C23.8686 24.1007 23.8727 24.9178 23.8768 25.708C23.8788 26.068 23.8806 26.428 23.8806 26.7878V27.3567L24.7167 27.3553C24.835 27.3553 24.9525 27.3558 25.0697 27.3571C25.5561 27.3623 25.9096 27.7077 25.9096 28.1779C25.9098 28.4048 25.8262 28.6124 25.6743 28.7628C25.5209 28.9148 25.307 28.9984 25.0724 28.9986C22.0336 28.9995 18.9947 28.9999 15.9557 28.9999C12.9167 29.0002 9.87798 28.9997 6.83924 28.9988ZM15.9313 16.9748C15.8561 16.9748 15.7804 16.9906 15.7183 17.0193C14.2853 17.6831 12.8987 18.3604 11.6861 19.348C10.2985 20.4779 9.63859 21.7815 9.6684 23.3333C9.68376 24.1346 9.67992 24.951 9.6763 25.7405C9.6745 26.0992 9.67269 26.4578 9.67269 26.8165V27.3425H22.2371V27.1503C22.2371 26.7632 22.2349 26.3795 22.2326 25.9978C22.2276 25.1188 22.2229 24.2888 22.2437 23.4421C22.2782 22.0103 21.7597 20.814 20.6582 19.7848C19.3124 18.528 17.6863 17.7574 16.1138 17.0125C16.0618 16.9879 15.9986 16.9748 15.9313 16.9748ZM9.67201 5.92311C9.67088 6.91254 9.66975 7.89316 9.67743 8.87332C9.67969 9.16082 9.7147 9.4691 9.78132 9.78958C10.0065 10.8707 10.6228 11.7885 11.7213 12.6779C12.9348 13.6601 14.3529 14.3485 15.7012 14.9693C15.7608 14.9964 15.8299 15.0102 15.9071 15.0102C16.009 15.0102 16.119 14.9863 16.2089 14.9443C16.7922 14.6723 17.2728 14.4361 17.7214 14.2006C18.7458 13.6615 19.8204 13.0384 20.7373 12.1381C21.3317 11.5548 22.1276 10.634 22.1775 9.37989C22.2191 8.32858 22.2098 7.2565 22.2008 6.21964C22.1967 5.76728 22.1929 5.31378 22.1929 4.85848V4.66628H9.67269L9.67201 5.92311Z" fill="#1E1142"/>
</svg>
