<svg width="48" height="48" viewBox="0 0 48 48" fill="none" xmlns="http://www.w3.org/2000/svg">
<rect width="48" height="48" rx="12" fill="white"/>
<path d="M30.7733 10.5C35.9467 10.5 39 13.4769 39 18.5727H32.6533V18.6247C29.7078 18.6247 27.32 20.9527 27.32 23.8245C27.32 26.6963 29.7078 29.0243 32.6533 29.0243H39V29.4923C39 34.5231 35.9467 37.5 30.7733 37.5H17.2267C12.0533 37.5 9 34.5231 9 29.4923V18.5077C9 13.4769 12.0533 10.5 17.2267 10.5H30.7733ZM37.88 20.8086C38.4986 20.8086 39 21.2975 39 21.9006V25.6964C38.9928 26.2966 38.4956 26.7814 37.88 26.7884H32.7733C31.2822 26.808 29.9782 25.8126 29.64 24.3965C29.4706 23.5174 29.7084 22.6103 30.2896 21.9183C30.8708 21.2263 31.736 20.8201 32.6533 20.8086H37.88ZM33.3733 22.5636H32.88C32.5771 22.5601 32.2854 22.675 32.07 22.8826C31.8545 23.0902 31.7333 23.3732 31.7333 23.6685C31.7333 24.2881 32.2446 24.7923 32.88 24.7995H33.3733C34.0066 24.7995 34.52 24.2989 34.52 23.6815C34.52 23.0641 34.0066 22.5636 33.3733 22.5636ZM24.5733 16.3368H16.1067C15.4786 16.3367 14.9673 16.8294 14.96 17.4417C14.96 18.0613 15.4712 18.5656 16.1067 18.5727H24.5733C25.2066 18.5727 25.72 18.0722 25.72 17.4547C25.72 16.8373 25.2066 16.3368 24.5733 16.3368Z" fill="#2563EA"/>
</svg>
