<svg width="24" height="24" viewBox="0 0 24 24" fill="none" xmlns="http://www.w3.org/2000/svg">
<path d="M12.0019 2C9.49477 1.99827 7.07852 2.93885 5.23238 4.63519C3.38624 6.33154 2.24504 8.65976 2.03512 11.1581C1.82519 13.6565 2.56187 16.1425 4.09905 18.1231C5.63623 20.1037 7.86163 21.4343 10.3339 21.851V14.086H7.92192V11.293H10.3339V9.233C10.285 8.74462 10.3434 8.25144 10.5051 7.78803C10.6669 7.32462 10.928 6.90218 11.2702 6.55034C11.6125 6.19849 12.0275 5.92575 12.4863 5.75122C12.945 5.57669 13.4364 5.5046 13.9259 5.54C14.6457 5.53802 15.3651 5.57507 16.0809 5.651V8.151H14.6019C13.4419 8.151 13.2189 8.702 13.2189 9.511V11.291H15.9859L15.6249 14.085H13.2179V21.917C15.7319 21.5915 18.0284 20.3235 19.643 18.3693C21.2577 16.4151 22.0699 13.9206 21.9154 11.3904C21.7609 8.86015 20.6513 6.48302 18.8109 4.73976C16.9705 2.9965 14.5368 2.01723 12.0019 2Z" fill="#4267B2"/>
</svg>
