<svg width="28" height="28" viewBox="0 0 28 28" fill="none" xmlns="http://www.w3.org/2000/svg">
<path fill-rule="evenodd" clip-rule="evenodd" d="M23.0673 9.4369C23.0752 9.64093 23.0778 9.84488 23.0778 10.0489C23.0778 16.2348 18.7264 23.3761 10.769 23.3761C8.32466 23.3761 6.05176 22.597 4.13672 21.2708C4.47524 21.3079 4.81903 21.3358 5.1681 21.3358C7.19481 21.3358 9.06149 20.5844 10.5422 19.3231C8.64911 19.2953 7.05061 17.932 6.49932 16.0772C6.76397 16.1328 7.03653 16.1607 7.31525 16.1607C7.70829 16.1607 8.08988 16.1051 8.45566 15.9938C6.47467 15.5672 4.98258 13.6753 4.98258 11.4031C4.98258 11.3753 4.98258 11.366 4.98258 11.3474C5.56641 11.6906 6.23464 11.9038 6.94421 11.9316C5.78182 11.0877 5.01773 9.65019 5.01773 8.0272C5.01773 7.17397 5.23051 6.36708 5.60508 5.67151C7.73817 8.50942 10.9273 10.3736 14.5226 10.5683C14.4488 10.2252 14.4109 9.86358 14.4109 9.50188C14.4109 6.91438 16.3479 4.81836 18.7378 4.81836C19.9819 4.81836 21.1056 5.38417 21.8943 6.29304C22.8818 6.08901 23.8068 5.69952 24.6438 5.16161C24.3194 6.25597 23.6344 7.17393 22.7393 7.74893C23.6151 7.63764 24.4504 7.38743 25.225 7.01646C24.6438 7.95315 23.9123 8.77843 23.0673 9.4369Z" fill="#1EA1F2"/>
</svg>
